<ttFont>
          <CharString index="0">
            rmoveto
            -7 -5 -9 -6 -13 -6 -15 -8 -9 -3 -3 2 rrcurveto
            -1 1 -1 1 3 vvcurveto
            11 8 25 17 41 vhcurveto
            -64 hlineto
            -18 -67 -9 -45 -25 vvcurveto
            -11 2 -5 4 -1 vhcurveto
            13 -2 18 3 25 8 25 8 17 9 11 9 rrcurveto
            return
          </CharString>
          <CharString index="1">
            rmoveto
            -59 1 -35 0 -11 -3 -13 -4 -10 -12 -6 -19 -8 -33 -8 -32 -8 -33 -13 -49 -15 -38 -17 -26 rrcurveto
            -36 -24 -30 -18 -35 hhcurveto
            -47 -24 25 51 30 12 62 23 94 hvcurveto
            5 19 1 12 -3 5 -49 3 -42 2 -34 -1 -19 -87 rcurveline
            6 23 -1 -10 -5 hvcurveto
            -4 -4 -25 -9 -47 vhcurveto
            -9 -44 -3 -34 2 -25 2 -30 11 -25 20 -21 28 -29 41 -15 55 1 53 1 47 13 39 26 31 21 24 26 16 32 26 75 19 62 12 48 3 6 8 2 15 -2 return
          </CharString>
          <CharString index="2">
            rmoveto
            -52 3 -40 -13 -27 -30 rrcurveto
            -17 -19 -9 -21 -25 vvcurveto
            -19 4 -14 9 -10 vhcurveto
            16 -19 31 -8 47 3 7 36 rcurveline
            -21 -3 -16 3 -12 11 rrcurveto
            -4 3 -2 5 7 vvcurveto
            32 35 16 37 -3 vhcurveto
            return
          </CharString>
          <CharString index="3">
            8 33 4 33 31 vvcurveto
            75 -21 59 -42 45 vhcurveto
            47 -45 -63 24 -81 -63 callsubr
            -138 13 rmoveto
            -12 -54 -25 -29 callsubr
            -35 -45 callgsubr
            -11 35 43 vvcurveto
            62 21 57 41 52 vhcurveto
            55 45 52 28 61 hhcurveto
            93 46 -47 -94 -21 -2 -21 -5 -23 hvcurveto
            return
          </CharString>
          <CharString index="4">
            -8 -7 -21 -4 -34 hhcurveto
            -201 hlineto
            38 171 136 2 83 -4 29 -10 rlinecurve
            27 126 rlineto
            -9 -23 -85 -5 -145 hhcurveto
            31 143 rlineto
            175 hlineto
            37 19 -2 -5 3 hvcurveto
            3 -5 1 -8 -1 -12 rrcurveto
            83 hlineto
            8 57 10 46 11 34 rrcurveto
            return
          </CharString>
          <CharString index="5">
            -15 30 -34 13 -53 -3 -14 -65 rcurveline
            19 1 16 -3 12 -8 rrcurveto
            6 -4 3 -7 -10 vvcurveto
            -13 -5 -9 -10 -7 vhcurveto
            -17 -11 -18 -3 -19 3 -8 -36 rcurveline
            return
          </CharString>
          <CharString index="6">
            rmoveto
            -23 4 -24 -5 -25 -14 -29 -15 -21 -24 -13 -33 -20 60 -30 26 -75 1 -61 2 -53 -19 -46 -40 -42 -37 -26 -45 -9 -51 rrcurveto
            -3 -17 -1 -17 -17 vvcurveto
            -48 12 -38 24 -29 vhcurveto
            -33 27 40 -16 52 hhcurveto
            72 53 27 54 35 hvcurveto
            return
          </CharString>
          <CharString index="7">
            rmoveto
            -50 41 -51 42 -51 41 -204 -124 rcurveline
            36 -61 71 42 54 32 37 21 rlinecurve
            42 -37 34 -28 25 -20 rrcurveto
            return
          </CharString>
          <CharString index="8">
            -19 34 -10 40 45 vvcurveto
            15 2 14 3 13 vhcurveto
            91 21 71 56 95 hhcurveto
            83 45 -41 -71 -11 -1 -12 -2 -12 hvcurveto
            -10 -53 -32 -52 -54 -51 -44 -43 -29 -57 -13 -73 -10 -49 rcurveline
            73 3 87 0 99 -3 rrcurveto
            9 5 23 9 38 vhcurveto
            9 35 6 22 3 9 return
          </CharString>
          <CharString index="9">
            rmoveto
            7 29 4 27 25 vvcurveto
            93 -53 54 -100 1 vhcurveto
            -62 1 -54 -18 -45 -35 -45 -35 -26 -46 -8 -57 rrcurveto
            -3 -17 -1 -16 -16 vvcurveto
            -108 62 -62 112 5 vhcurveto
            43 2 50 15 58 29 -44 78 rcurveline
            -21 -17 -26 -11 -33 -5 rrcurveto
            -1 -9 -9 -1 -8 hhcurveto
            -50 -25 22 44 6 1 7 1 7 hvcurveto
            31 74 rmoveto
            17 43 32 21 47 1 47 1 23 -22 -1 -44 rrcurveto
            return
          </CharString>
          <CharString index="10">
            1 -26 11 -21 21 -15 rrcurveto
            -14 18 -69 callsubr
            10 1 11 2 12 vhcurveto
            11 62 31 40 53 19 rrcurveto
            -175 -86 rmoveto
            -34 -13 -31 -27 -27 vhcurveto
            return
          </CharString>
          <CharString index="11">
            rmoveto
            23 -25 -35 12 -45 hhcurveto
            -38 -35 -11 -22 -31 hvcurveto
            -31 -22 -18 -25 -6 -29 rrcurveto
            -2 -9 -1 -8 -7 vvcurveto
            -33 18 -23 37 -13 vhcurveto
            -63 -15 -34 -34 -5 -55 -3 -35 12 -26 27 -19 23 -16 27 -7 32 2 51 2 41 12 32 22 -21 76 rcurveline
            -17 -27 -27 -8 -29 hhcurveto
            -27 -12 11 22 2 hvcurveto
            3 25 18 18 35 9 19 5 24 0 27 -5 16 74 rcurveline
            -22 -7 -19 -2 -16 2 rrcurveto
            -31 3 -16 12 21 vvcurveto
            8 3 8 6 9 vhcurveto
            14 10 14 7 17 hhcurveto
            26 20 -12 -25 13 hvcurveto
            return
          </CharString>
          <CharString index="12">
            33 callgsubr
            -6 0 -1 -6 hvcurveto
            -27 -64 rlineto
            27 19 -4 -7 11 hvcurveto
            7 -5 3 -6 -8 vvcurveto
            -16 -9 -12 -19 -8 vhcurveto
            -21 -9 -23 -3 -25 1 -13 -30 rcurveline
            -1 12 12 0 11 hhcurveto
            -50 callgsubr
            return
          </CharString>
          <CharString index="13">
            143 20 69 vstem
            742 683 73 callsubr
            -48 hhcurveto
            -7 -6 0 -1 -6 hvcurveto
            -27 -64 29 2 20 -3 11 -7 rlinecurve
            7 -5 4 -7 -11 vvcurveto
            -24 -11 -14 -23 -5 vhcurveto
            -15 -3 -15 -3 -17 -1 rrcurveto
            1 vlineto
            45 -50 -64 22 -77 -63 callsubr
            8 33 4 33 32 vvcurveto
            51 -10 44 -19 37 vhcurveto
            31 3 26 11 22 18 rrcurveto
            26 21 13 28 36 vvcurveto
            13 -2 13 -5 11 vhcurveto
            -232 -371 rmoveto
            -12 -54 -25 -29 callsubr
            -35 -45 callgsubr
            -11 35 43 vvcurveto
            62 21 57 41 52 vhcurveto
            55 45 52 28 61 hhcurveto
            93 46 -47 -94 -21 -2 -21 -5 -23 hvcurveto
            return
          </CharString>
          <CharString index="14">
            -27 -26 -30 -13 -34 hhcurveto
            -48 -30 32 49 9 1 10 3 11 hvcurveto
            6 29 15 24 24 20 24 21 24 10 25 1 rrcurveto
            52 3 34 -38 -49 vvcurveto
            return
          </CharString>
          <CharString index="15">
            367 -96 callgsubr
            rrcurveto
            return
          </CharString>
          <CharString index="16">
            -13 19 -69 callsubr
            9 1 11 2 13 vhcurveto
            11 62 31 40 53 19 rrcurveto
            -176 -86 rmoveto
            -35 -13 -30 -27 -27 vhcurveto
            return
          </CharString>
          <CharString index="17">
            -80 callsubr
            -2 25 23 -1 22 hhcurveto
            167 97 57 113 25 hvcurveto
            5 20 2 19 17 vvcurveto
            85 -56 58 -113 31 vhcurveto
            -59 17 -35 11 -12 5 -22 11 -10 14 2 19 rrcurveto
            45 5 46 22 88 hhcurveto
            49 37 -10 -20 25 hvcurveto
            7 -6 4 -13 -1 -19 rrcurveto
            68 hlineto
            return
          </CharString>
          <CharString index="18">
            -7 24 -20 113 -33 201 -13 84 -16 98 -17 113 rrcurveto
            return
          </CharString>
          <CharString index="19">
            rmoveto
            -67 -15 -52 -43 -60 hhcurveto
            -52 -36 36 51 35 14 31 27 27 hvcurveto
            27 27 32 13 35 hhcurveto
            52 return
          </CharString>
          <CharString index="20">
            rmoveto
            -1 1 -38 0 -76 -1 rrcurveto
            -1 -21 -36 -73 -41 hvcurveto
            -49 -87 -39 -67 -30 -48 -31 152 -22 104 -13 57 -109 -1 rcurveline
            33 -143 33 -142 33 -142 -11 -20 -13 -19 -17 -19 -21 -22 -17 -11 -13 1 -31 2 -28 13 -25 23 -69 -94 rcurveline
            13 -2 21 -8 29 -14 23 -11 26 -5 29 2 39 3 41 21 42 40 31 30 34 43 36 55 26 41 26 40 25 41 71 117 59 99 46 80 rrcurveto
            return
          </CharString>
          <CharString index="21">
            -91 callgsubr
            endchar
          </CharString>
          <CharString index="22">
            3 16 1 15 15 vvcurveto
            96 -60 59 -105 -124 -97 -69 -119 -25 vhcurveto
            -3 -17 -2 -16 -16 vvcurveto
            -48 14 -39 return
          </CharString>
          <CharString index="23">
            -19 -23 -10 -26 -27 vvcurveto
            -27 9 -22 17 -17 vhcurveto
            -19 19 26 -10 34 hhcurveto
            84 62 43 69 7 hvcurveto
            5 53 -16 32 -38 12 rrcurveto
            8 70 rmoveto
            -7 -29 -19 -15 -32 -2 -27 3 -17 19 5 23 3 12 7 10 13 8 rrcurveto
            6 11 11 3 11 hhcurveto
            33 13 -13 -25 -5 hvcurveto
            -25 -167 rmoveto
            -29 -7 -31 -25 -33 hhcurveto
            -32 -20 21 24 19 9 17 17 15 hvcurveto
            15 13 18 8 19 4 rrcurveto
            31 -8 16 -17 -26 vvcurveto
            -5 -1 -5 -1 -6 vhcurveto
            endchar
          </CharString>
          <CharString index="24">
            626 -49 callgsubr
            -101 callgsubr
            return
          </CharString>
          <CharString index="25">
            13 9 18 -52 callsubr
            8 38 20 -30 callsubr
            3 23 rrcurveto
            return
          </CharString>
          <CharString index="26">
            -19 -94 -33 -1 -22 2 -9 5 -19 -88 rcurveline
            10 3 23 2 35 1 -2 -8 rcurveline
            -47 -223 -30 -128 -11 -35 -12 -35 -18 -16 -23 3 -11 1 -14 9 -17 17 -23 -45 -16 -31 -9 -17 21 -7 15 -6 7 -5 rrcurveto
            -5 13 15 -2 19 hhcurveto
            54 39 20 40 24 hvcurveto
            return
          </CharString>
          <CharString index="27">
            rmoveto
            -15 -3 -21 3 -27 8 -17 5 -25 5 -35 5 -35 5 -26 2 -18 -1 -171 -5 -98 -58 -23 -112 rrcurveto
            -3 -14 -2 -13 -13 vvcurveto
            -49 24 -39 48 -29 vhcurveto
            25 -15 48 -17 72 -21 rrcurveto
            64 -19 32 -24 -30 vvcurveto
            -7 -1 -6 -2 -7 vhcurveto
            -37 -14 -43 -19 -72 hhcurveto
            -17 -16 1 3 -16 hvcurveto
            -51 8 -39 16 -29 24 -14 12 -7 12 1 11 rrcurveto
            -68 hlineto
            -22 -94 -13 -56 -3 -18 16 3 15 -1 14 -5 14 -5 27 -8 39 -10 39 -9 28 -6 15 -1 rrcurveto
            return
          </CharString>
          <CharString index="28">
            rmoveto
            32 33 31 32 24 -18 19 -24 -31 -33 -32 -32 -23 17 -19 24 hvcurveto
            -127 55 rmoveto
            return
          </CharString>
          <CharString index="29">
            -1 -54 0 -109 vhcurveto
            1 -5 1 -7 -8 vvcurveto
            -45 -16 -98 -32 -151 vhcurveto
            -13 -61 -14 -62 -13 -61 -13 -61 -13 -42 -12 -25 rrcurveto
            78 callgsubr
            43 12 62 13 60 13 60 13 61 30 139 rcurveline
            71 -121 93 -149 115 -179 rrcurveto
            129 hlineto
            66 310 51 callgsubr
            rlinecurve
            34 callgsubr
            return
          </CharString>
          <CharString index="30">
            rmoveto
            -63 -41 -50 -33 -37 -24 -47 40 -36 32 -26 24 -56 -58 rcurveline
            129 -121 rlineto
            46 hlineto
            62 39 60 41 59 41 rrcurveto
            return
          </CharString>
          <CharString index="31">
            27 5 -19 26 -28 hhcurveto
            -32 -34 -31 -32 -24 19 -18 25 28 29 25 27 7 hvcurveto
            return
          </CharString>
          <CharString index="32">
            214 -74 callgsubr
            return
          </CharString>
          <CharString index="33">
            27 19 17 13 16 hhcurveto
            15 17 -5 -10 21 hvcurveto
            33 return
          </CharString>
          <CharString index="34">
            742 -104 callgsubr
            return
          </CharString>
          <CharString index="35">
            rmoveto
            -1 -5 -6 -1 -7 hhcurveto
            -11 -21 4 8 -32 hvcurveto
            8 -31 -36 4 -41 hhcurveto
            -95 -82 -29 -59 -69 hvcurveto
            -68 -59 -43 -76 -18 -93 rrcurveto
            -5 -26 -3 -26 -25 vvcurveto
            -68 16 -58 33 -47 vhcurveto
            35 -51 49 -30 73 callgsubr
            15 -1 16 hhcurveto
            37 35 4 8 31 hvcurveto
            return
          </CharString>
          <CharString index="36">
            -113 163 -105 callsubr
            return
          </CharString>
          <CharString index="37">
            27 5 -19 26 -27 hhcurveto
            -32 -34 -31 -32 -24 18 -18 25 29 30 25 27 5 hvcurveto
            return
          </CharString>
          <CharString index="38">
            21 -7 25 hhcurveto
            38 91 rlineto
            -45 1 -22 23 45 vvcurveto
            return
          </CharString>
          <CharString index="39">
            rmoveto
            -37 10 -37 3 -38 -4 -57 -6 -47 -19 -39 -31 -41 -34 -26 -44 -10 -53 rrcurveto
            -3 -17 -1 -16 -15 vvcurveto
            -50 14 -40 27 -30 vhcurveto
            30 -33 42 -15 53 3 24 1 21 3 19 5 11 3 14 5 19 8 -10 85 rcurveline
            -13 -29 -29 -7 -27 hhcurveto
            -52 -34 38 51 38 13 31 27 25 hvcurveto
            return
          </CharString>
          <CharString index="40">
            447 195 rmoveto
            -85 callsubr
            28 -30 vhcurveto
            -32 31 41 -16 52 hhcurveto
            60 52 -41 callgsubr
            30 50 11 62 rrcurveto
            -100 -87 callgsubr
            31 1 callgsubr
            return
          </CharString>
          <CharString index="41">
            hmoveto
            -89 callsubr
            -105 hlineto
            -211 -357 -128 -211 -43 -65 rrcurveto
            144 hlineto
            return
          </CharString>
          <CharString index="42">
            -25 callsubr
            684 367 -61 callgsubr
          </CharString>
          <CharString index="43">
            rmoveto
            -214 -441 -25 211 -16 147 -9 83 rlinecurve
            -67 hlineto
            -224 -441 rlineto
            -26 270 -13 147 24 vvcurveto
            -140 hlineto
            10 -44 17 -118 23 -191 10 -79 11 -91 11 -103 rrcurveto
            113 hlineto
            188 337 21 -168 13 -112 6 -57 rlinecurve
            113 hlineto
            212 382 119 209 27 35 rrcurveto
            return
          </CharString>
          <CharString index="44">
            -56 callgsubr
            93 81 28 56 69 hvcurveto
            69 57 46 76 22 96 rrcurveto
            return
          </CharString>
          <CharString index="45">
            rmoveto
            -115 -2 -90 -1 -64 1 -53 -1 -68 2 -85 4 -1 -21 -4 -23 -7 -26 -2 -6 -6 -21 -10 -37 rrcurveto
            86 hlineto
            3 12 4 8 5 5 rrcurveto
            hintmask 01001100
            5 5 22 2 39 hhcurveto
            114 hlineto
            -393 -489 -8 -37 114 3 88 0 61 -1 rlinecurve
            hintmask 00110100
            53 1 78 -1 103 -4 2 21 5 26 8 31 rrcurveto
            hintmask 01010100
            2 7 7 24 11 40 rrcurveto
            -86 hlineto
            -3 -13 -5 -10 -7 -7 rrcurveto
            -9 -8 -22 -4 -35 hhcurveto
            hintmask 10010100
            -156 -1 rlineto
            return
          </CharString>
          <CharString index="46">
            -96 callgsubr
            rrcurveto
            hintmask 01101100
            -3 7 -2 6 1 7 -83 1 rcurveline
            -1 -8 -3 -22 -7 -35 -7 -37 -5 -24 -3 -10 79 4 88 0 97 -4 7 31 3 16 1 1 rrcurveto
            6 24 3 22 20 vvcurveto
            33 -11 34 -21 36 vhcurveto
            return
          </CharString>
          <CharString index="47">
            rmoveto
            1 -1 -23 0 -45 1 28 130 rcurveline
            -101 -26 -7 -35 -8 -34 -8 -35 rlinecurve
            -57 hlineto
            -1 -3 -14 -27 -5 hvcurveto
            -5 -27 -4 -14 -1 -1 rrcurveto
            57 hlineto
            -15 -67 -9 -43 -5 -21 rrcurveto
            -21 -87 -11 -52 -18 vvcurveto
            -17 4 -8 9 -1 vhcurveto
            40 -3 47 13 55 28 2 51 0 27 -2 4 -2 -1 -6 -3 -9 -6 rrcurveto
            -5 -9 -6 -3 -3 hhcurveto
            -5 -2 5 9 9 8 36 15 64 hvcurveto
            13 53 7 30 2 7 rrcurveto
            67 hlineto
            return
          </CharString>
          <CharString index="48">
            vvcurveto
            17 2 17 4 19 vhcurveto
            14 65 29 52 45 39 39 34 42 17 44 1 42 1 29 -9 15 -18 3 -4 1 -5 1 -6 rrcurveto
            -21 82 vlineto
            9 90 7 54 4 18 return
          </CharString>
          <CharString index="49">
            -21 162 120 351 -20 return
          </CharString>
          <CharString index="50">
            14 -30 -29 7 -29 hhcurveto
            -52 -40 -21 callsubr
            return
          </CharString>
          <CharString index="51">
            -343 rmoveto
            -7 -5 -9 -6 -13 -6 -15 -8 -9 -3 -3 2 rrcurveto
            -1 1 -1 1 3 vvcurveto
            return
          </CharString>
          <CharString index="52">
            108 -35 callsubr
            143 105 return
          </CharString>
          <CharString index="53">
            rmoveto
            -97 callgsubr
            rrcurveto
            return
          </CharString>
          <CharString index="54">
            7 30 4 18 3 5 rrcurveto
            71 hlineto
            25 hlineto
            8 -1 4 -5 -9 vvcurveto
            48 hlineto
            4 27 5 23 7 19 rrcurveto
            return
          </CharString>
          <CharString index="55">
            -67 callgsubr
            2 return
          </CharString>
          <CharString index="56">
            rmoveto
            -17 -1 -22 0 -27 1 -81 -92 -68 -75 -55 -57 -8 -36 rcurveline
            146 hlineto
            -11 -43 -9 -30 -5 -19 rrcurveto
            85 hlineto
            5 45 4 30 3 16 15 -1 12 -1 10 -3 14 67 rcurveline
            -16 -2 -13 -1 -9 -1 22 107 16 68 9 28 rrcurveto
            -105 -128 rmoveto
            1 3 0 1 1 1 rrcurveto
            -1 vlineto
            1 -6 -27 -12 -55 vhcurveto
            -27 -1 -19 0 -10 1 rrcurveto
            return
          </CharString>
          <CharString index="57">
            rmoveto
            -87 -177 55 -16 99 167 rlineto
            return
          </CharString>
          <CharString index="58">
            rmoveto
            24 5 -14 21 -27 hhcurveto
            -32 -26 -27 -32 -23 13 -12 25 31 18 16 33 7 hvcurveto
            return
          </CharString>
          <CharString index="59">
            -12 -170 -21 182 111 287 -20 hstem
            -8 116 vstem
            402 389 rmoveto
            -26 -90 -14 -64 -3 -37 -1 -13 -9 -17 -17 -22 rrcurveto
            -29 -22 -25 -15 -27 hhcurveto
            -26 -22 10 21 -17 hvcurveto
            -14 17 -7 16 1 17 48 206 rcurveline
            -114 hlineto
            -49 -204 -28 -116 -6 -29 rrcurveto
            -21 -93 -11 -59 -25 vvcurveto
            -22 3 -18 6 -14 vhcurveto
            122 25 rlineto
            -10 17 -5 24 30 vvcurveto
            30 9 51 17 72 vhcurveto
            -35 5 49 -32 48 hhcurveto
            27 26 9 18 25 hvcurveto
            20 15 15 16 9 17 3 -22 5 -20 7 -19 3 -8 3 -7 4 -7 113 44 rcurveline
            -21 40 -10 39 2 39 1 37 9 52 17 66 7 28 9 29 9 31 rrcurveto
            endchar
          </CharString>
          <CharString index="60">
            627 rmoveto
            -25 -1 -38 -2 -52 -1 rrcurveto
            -1 -33 -37 0 -43 hhcurveto
            -28 -41 1 2 -53 hvcurveto
            hintmask 11001000
            2 -53 -39 1 -26 hhcurveto
            2 -25 -2 -29 -7 -33 -5 -25 -8 -36 -10 -48 -10 -47 -7 -36 -5 -25 -32 -149 -20 -89 -8 -29 -8 -29 -6 -19 -5 -9 rrcurveto
            152 hlineto
            -2 33 5 46 12 59 12 59 9 43 5 25 rrcurveto
            1 11 12 0 14 hhcurveto
            51 hlineto
            86 54 -3 -7 23 hvcurveto
            27 126 rlineto
            -9 -23 -56 -5 -90 hhcurveto
            -84 hlineto
            hintmask 11010000
            33 158 rlineto
            198 hlineto
            27 13 -6 -13 hvcurveto
            hintmask 11100000
            -4 0 -4 -1 -5 vhcurveto
            84 hlineto
            4 25 3 19 2 13 8 39 6 26 4 11 rrcurveto
            endchar
          </CharString>
          <CharString index="61">
            -8 94 -75 -21 312 95 return
          </CharString>
          <CharString index="62">
            -1 1 -37 0 -73 hhcurveto
            -49 -116 -49 -99 -49 -81 -11 127 -7 99 -3 70 rrcurveto
            -110 hlineto
            5 -14 10 -69 14 -123 6 -51 7 -61 7 -69 rrcurveto
            129 hlineto
            43 85 41 76 38 67 rrcurveto
            return
          </CharString>
          <CharString index="63">
            -11 -43 -6 -29 3 callgsubr
            4 -1 vhcurveto
            16 -1 28 3 40 9 40 9 26 9 12 9 19 -52 callsubr
            return
          </CharString>
          <CharString index="64">
            12 -23 -25 6 -29 hhcurveto
            -37 -38 -6 -11 -38 hvcurveto
            -38 -11 -27 -14 -17 -16 -3 -91 rcurveline
            18 18 30 16 42 14 42 14 34 6 27 -3 rrcurveto
            37 -3 18 -19 -33 vvcurveto
            -5 -1 -6 -1 -6 vhcurveto
            1 -11 -10 0 -11 hhcurveto
            -57 -50 -10 -19 -43 hvcurveto
            -51 -23 -30 -34 -7 -44 rrcurveto
            -2 -9 -1 -8 -8 vvcurveto
            -33 13 -26 27 -19 vhcurveto
            -17 23 31 -8 38 hhcurveto
            73 -1 58 21 42 44 30 -44 45 -20 61 3 56 3 54 16 52 29 -43 77 rcurveline
            -32 -25 -34 -13 -36 1 rrcurveto
            -35 -24 9 18 -11 hvcurveto
            -5 8 -3 11 -1 13 rrcurveto
            9 0 10 1 9 vhcurveto
            20 73 rmoveto
            return
          </CharString>
          <CharString index="65">
            8 callgsubr
            -11 73 rcurveline
            -15 -23 -18 -8 -15 hhcurveto
            -26 -1 -13 10 20 vvcurveto
            9 3 11 5 13 vhcurveto
            return
          </CharString>
          <CharString index="66">
            -22 callsubr
            11 57 13 60 13 60 13 59 47 224 rcurveline
            88 hlineto
            34 20 -4 -8 6 hvcurveto
            return
          </CharString>
          <CharString index="67">
            6 12 -25 hvcurveto
            return
          </CharString>
          <CharString index="68">
            27 18 17 13 17 hhcurveto
            15 17 -5 -10 20 hvcurveto
            33 -16 29 -7 23 3 19 3 18 10 17 17 7 8 7 9 6 10 rrcurveto
            endchar
          </CharString>
          <CharString index="69">
            778 726 rmoveto
            27 -10 23 callgsubr
            -6 hvcurveto
            -27 -64 29 3 20 -3 11 -7 rlinecurve
            7 -5 4 -8 -10 vvcurveto
            return
          </CharString>
          <CharString index="70">
            -21 callgsubr
            25 6 return
          </CharString>
          <CharString index="71">
            rmoveto
            29 26 11 23 23 hvcurveto
            24 63 callsubr
            31 -44 -29 -27 -11 -23 -23 vhcurveto
            -23 -22 -12 -26 -29 vvcurveto
            -41 31 -32 44 vhcurveto
            63 93 rmoveto
            -24 -5 -24 -20 -24 hhcurveto
            -24 -15 20 24 5 hvcurveto
            24 5 24 19 24 hhcurveto
            24 15 -19 -24 -5 hvcurveto
            return
          </CharString>
          <CharString index="72">
            -108 151 128 100 return
          </CharString>
          <CharString index="73">
            625 rmoveto
            -19 -106 -15 -79 -11 -52 -6 -28 rcurveline
            22 -22 -27 11 -32 hhcurveto
            -125 -93 -72 -116 -21 hvcurveto
            -3 -17 -2 -17 -15 vvcurveto
            -101 62 -66 103 4 vhcurveto
            44 1 35 12 26 23 rrcurveto
            hintmask 01111000
            6 -29 rlineto
            70 hlineto
            33 172 26 129 19 86 25 121 19 80 13 37 rrcurveto
            -177 -357 rmoveto
            -13 -62 -10 -50 -8 -37 rrcurveto
            hintmask 10111000
            -25 -27 -30 -12 -33 hhcurveto
            -52 -37 28 52 9 1 11 3 11 hvcurveto
            65 15 55 46 61 hhcurveto
            34 25 -12 -24 16 hvcurveto
            return
          </CharString>
          <CharString index="74">
            129 403 128 return
          </CharString>
          <CharString index="75">
            rmoveto
            3 13 1 12 12 vvcurveto
            67 -38 34 -75 -73 -46 -30 -60 -20 vhcurveto
            -4 -11 -2 -12 -12 vvcurveto
            -23 6 -20 13 -16 vhcurveto
            13 -19 19 -9 23 -1 22 -1 17 2 13 4 32 60 rcurveline
            hintmask 11011000
            -6 -9 -12 -3 -13 hhcurveto
            -33 -16 13 25 5 1 5 2 5 hvcurveto
            30 9 19 15 31 hhcurveto
            31 15 -16 -32 -15 -4 -18 -8 -19 hvcurveto
            -16 -38 -31 -38 -46 -37 -45 -29 -31 -18 -18 -7 32 -47 rcurveline
            59 20 50 29 41 38 47 43 29 50 12 55 rrcurveto
            endchar
          </CharString>
          <CharString index="76">
            19 -67 callgsubr
            return
          </CharString>
          <CharString index="77">
            75 23 89 14 57 return
          </CharString>
          <CharString index="78">
            -46 -39 -37 rrcurveto
            -40 -41 -46 -20 -52 hhcurveto
            -43 return
          </CharString>
          <CharString index="79">
            -145 18 -105 callsubr
            return
          </CharString>
          <CharString index="80">
            rmoveto
            -108 -87 -76 -59 -44 -32 41 191 30 132 21 72 rrcurveto
            -108 hlineto
            -5 -48 -20 -107 -37 -166 -13 -53 -13 -52 -13 -53 rrcurveto
            -17 -69 -8 -44 -20 vvcurveto
            -9 1 -5 3 -1 vhcurveto
            9 -3 18 0 27 3 25 3 18 3 10 4 rrcurveto
            -2 3 -1 6 9 vvcurveto
            20 4 31 9 41 vhcurveto
            66 50 83 -112 43 -59 2 -7 rlinecurve
            82 67 -54 65 -43 54 -32 45 rlinecurve
            166 132 rlineto
            endchar
          </CharString>
          <CharString index="81">
            -35 -18 -16 -23 3 -11 1 -14 9 -17 17 -23 -45 -16 -31 -9 -17 21 -7 15 -6 7 -5 rrcurveto
            -5 13 15 -2 19 hhcurveto
            54 39 20 40 24 hvcurveto
            13 20 20 68 28 116 25 107 19 89 13 72 return
          </CharString>
          <CharString index="82">
            5 callsubr
            0 callsubr
            hintmask 10101100
            return
          </CharString>
          <CharString index="83">
            626 rmoveto
            -22 -39 -22 -33 -22 -28 -92 -114 rcurveline
            -50 117 -19 51 -10 32 -3 14 rlinecurve
            -176 hlineto
            12 -13 32 -53 51 -95 21 -40 24 -46 27 -53 -142 -137 -112 -109 -82 -80 rrcurveto
            183 hlineto
            19 31 22 30 27 29 138 147 rcurveline
            65 -143 16 -46 9 -31 2 -17 rlinecurve
            167 hlineto
            -168 318 151 169 95 103 39 36 rlinecurve
            endchar
          </CharString>
          <CharString index="84">
            -44 -159 -21 201 -21 313 91 return
          </CharString>
          <CharString index="85">
            -24 callgsubr
            -48 -225 -38 -179 -13 -57 -13 -40 -12 -25 rlinecurve
            78 callgsubr
            41 return
          </CharString>
          <CharString index="86">
            87 callgsubr
            -17 -29 -17 -62 -81 callsubr
            13 20 20 68 28 116 25 107 19 89 13 72 return
          </CharString>
          <CharString index="87">
            -83 -194 rmoveto
            32 32 31 32 24 -17 19 -25 -31 -33 -32 -32 -23 18 -19 24 hvcurveto
            -98 55 -71 callgsubr
            return
          </CharString>
          <CharString index="88">
            -6 97 220 85 return
          </CharString>
          <CharString index="89">
            -69 callgsubr
            endchar
          </CharString>
          <CharString index="90">
            -12 -35 -40 -19 -67 -5 -25 -1 -25 2 -25 5 -14 -66 rcurveline
            57 hlineto
            35 1 29 1 22 3 49 5 37 18 27 31 rrcurveto
            24 27 12 31 34 vvcurveto
            34 -13 27 -26 20 vhcurveto
            15 -19 -30 8 -41 hhcurveto
            -12 -12 -1 -1 -13 hvcurveto
            -14 callsubr
          </CharString>
          <CharString index="91">
            -3 -27 callgsubr
            return
          </CharString>
          <CharString index="92" raw="1">
            ab941d0b   
          </CharString>
          <CharString index="93">
            -53 callsubr
            endchar
          </CharString>
          <CharString index="94">
            -13 -60 -13 -42 -13 -25 rrcurveto
            152 hlineto
            -1 28 18 103 38 179 35 -29 38 -39 41 -51 41 -51 28 -36 13 -22 17 -28 9 -27 3 -27 rrcurveto
            169 hlineto
            -29 68 -53 79 -77 91 -25 29 -26 28 -29 28 39 33 30 25 23 19 5 4 52 45 101 85 55 46 38 31 22 15 rrcurveto
            return
          </CharString>
          <CharString index="95">
            19 20 -15 -12 4 hvcurveto
            60 hlineto
            10 49 6 30 3 10 rrcurveto
            endchar
          </CharString>
          <CharString index="96">
            39 -11 8 -11 -4 -33 rrcurveto
            83 hlineto
            9 93 7 55 4 18 rrcurveto
            return
          </CharString>
          <CharString index="97">
            15 75 10 42 3 9 11 27 19 15 27 3 return
          </CharString>
          <CharString index="98">
            55 0 14 hhcurveto
            -2 -8 -47 -223 -30 -128 -12 -35 rlinecurve
            -11 -26 callsubr
            return
          </CharString>
          <CharString index="99">
            -65 30 -33 59 74 50 54 108 27 vhcurveto
            -71 -5 rmoveto
            -55 -13 -21 -28 -28 hhcurveto
            -23 -11 13 27 11 2 14 4 18 hvcurveto
            58 12 21 29 31 hhcurveto
            23 11 -12 -24 -12 -3 -17 -5 -22 hvcurveto
            257 169 rmoveto
            -392 -735 rlineto
            114 hlineto
            394 735 rlineto
            return
          </CharString>
          <CharString index="100">
            -120 rmoveto
            -15 -23 -18 -8 -15 hhcurveto
            -26 -1 -13 10 20 vvcurveto
            9 3 11 5 13 vhcurveto
            23 52 26 32 31 13 -100 3 rcurveline
            -49 -41 -26 -47 -5 -54 -3 -27 9 -23 19 -19 rrcurveto
            hintmask 10000000
            -20 19 25 -10 29 8 callgsubr
            rrcurveto
            endchar
          </CharString>
          <CharString index="101">
            82 -17 127 -104 104 54 147 143 188 -124 124 return
          </CharString>
          <CharString index="102">
            -12 -37 105 -3 rcurveline
            18 101 14 75 10 47 4 23 rcurveline
            15 -19 27 -10 41 1 135 1 79 64 23 126 rrcurveto
            return
          </CharString>
          <CharString index="103">
            -98 -1 38 179 rlineto
            99 hlineto
            -1 3 0 1 5 hvcurveto
            15 hlineto
            return
          </CharString>
          <CharString index="104">
            -19 -92 -17 -82 -17 -71 return
          </CharString>
          <CharString index="105">
            15 callgsubr
            hintmask 10111000
            return
          </CharString>
          <CharString index="106">
            -40 callsubr
            -27 13 return
          </CharString>
          <CharString index="107">
            hstemhm
            100 -52 callgsubr
            return
          </CharString>
          <CharString index="108">
            -30 callsubr
            4 23 rrcurveto
            return
          </CharString>
          <CharString index="109">
            0 103 -103 147 -128 -21 496 131 -99 99 return
          </CharString>
          <CharString index="110">
            19 callgsubr
            -55 1 -39 1 -21 2 rrcurveto
            -11 -12 -60 -23 -107 vhcurveto
            44 hlineto
            5 6 4 4 5 1 rrcurveto
            4 14 14 2 13 hhcurveto
            47 24 -17 -35 -9 -2 -10 -4 -10 hvcurveto
            return
          </CharString>
          <CharString index="111">
            -1 108 -35 callsubr
            return
          </CharString>
          <CharString index="112">
            172 -14 callgsubr
            return
          </CharString>
          <CharString index="113">
            605 rmoveto
            -21 7 -15 6 -7 5 rrcurveto
            14 -30 -29 7 -29 hhcurveto
            -52 -40 87 callgsubr
            return
          </CharString>
          <CharString index="114">
            -20 16 callsubr
            77 return
          </CharString>
          <CharString index="115">
            -8 96 -96 249 return
          </CharString>
          <CharString index="116">
            rmoveto
            -304 hlineto
            -12 -59 rlineto
            304 hlineto
            return
          </CharString>
          <CharString index="117">
            -93 callsubr
            endchar
          </CharString>
          <CharString index="118">
            698 167 rmoveto
            5 24 3 23 21 vvcurveto
            97 -56 62 -107 1 vhcurveto
            -27 -29 -6 -13 -31 hvcurveto
            -33 -14 -24 -18 -13 -22 -9 27 -17 20 -26 15 rrcurveto
            return
          </CharString>
          <CharString index="119">
            61 13 61 13 return
          </CharString>
          <CharString index="120">
            131 2 114 215 71 129 27 42 rlinecurve
            return
          </CharString>
          <CharString index="121">
            -44 21 -21 313 91 return
          </CharString>
          <CharString index="122">
            -29 14 -47 hhcurveto
            -7 return
          </CharString>
          <CharString index="123">
            hstemhm
            35 98 208 return
          </CharString>
          <CharString index="124">
            vvcurveto
            -9 2 -5 return
          </CharString>
          <CharString index="125">
            51 26 -20 -41 -8 -1 -8 -1 -9 hvcurveto
            return
          </CharString>
          <CharString index="126">
            -13 -62 -13 -61 -13 return
          </CharString>
          <CharString index="127">
            10 17 5 16 15 vvcurveto
            25 -12 20 -25 15 vhcurveto
            return
          </CharString>
          <CharString index="128">
            hlineto
            -1 25 6 return
          </CharString>
          <CharString index="129">
            94 -75 -21 96 216 0 95 return
          </CharString>
          <CharString index="130">
            12 callgsubr
            62 hhcurveto
            53 1 return
          </CharString>
          <CharString index="131">
            640 -69 callgsubr
            return
          </CharString>
          <CharString index="132">
            -8 -17 -17 vhcurveto
            -17 -17 -9 return
          </CharString>
          <CharString index="133">
            21 callgsubr
            vstem
            return
          </CharString>
          <CharString index="134">
            24 103 433 105 return
          </CharString>
          <CharString index="135">
            rmoveto
            14 67 rlineto
            -28 hlineto
            10 47 19 26 28 5 6 43 rcurveline
            -79 -9 -47 -43 -17 -75 -12 -61 rcurveline
            endchar
          </CharString>
          <CharString index="136">
            -90 -19 callsubr
            246 -20 hstem
            19 97 219 107 vstem
            439 195 rmoveto
            2 16 1 16 return
          </CharString>
          <CharString index="137">
            626 -49 callgsubr
            rrcurveto
            return
          </CharString>
          <CharString index="138">
            3 17 1 17 16 vvcurveto
            103 -66 58 -99 -1 vhcurveto
            -39 -1 -35 -9 -30 -19 -33 21 rcurveline
            -41 3 return
          </CharString>
          <CharString index="139">
            121 471 49 -49 191 return
          </CharString>
          <CharString index="140">
            rmoveto
            49 10 24 30 51 vvcurveto
            return
          </CharString>
          <CharString index="141">
            165 -16 121 return
          </CharString>
          <CharString index="142">
            -67 -21 82 75 170 84 -2 74 170 84 hstemhm
            89 73 104 72 117 72 103 75 return
          </CharString>
          <CharString index="143">
            44 27 38 22 47 hhcurveto
            45 25 -22 -44 5 hvcurveto
            -320 -65 rmoveto
            -5 -27 -3 -21 -2 -14 return
          </CharString>
          <CharString index="144">
            rmoveto
            29 27 11 23 23 hvcurveto
            23 63 callsubr
            31 -44 -29 -26 -11 -23 return
          </CharString>
          <CharString index="145">
            -21 197 -20 hstem
            return
          </CharString>
          <CharString index="146">
            -39 -186 rcurveline
            return
          </CharString>
          <CharString index="147">
            18 callsubr
            endchar
          </CharString>
          <CharString index="148">
            -1 105 -105 147 -128 -21 496 130 -98 98 5 -20 hstemhm
            hintmask 10000100
            return
          </CharString>
          <CharString index="149">
            -13 -8 22 callsubr
            0 return
          </CharString>
          <CharString index="150">
            471 -21 196 -20 hstem
            return
          </CharString>
          <CharString index="151">
            -21 337 60 -60 198 return
          </CharString>
          <CharString index="152">
            13 62 14 62 13 return
          </CharString>
          <CharString index="153">
            rmoveto
            31 -24 24 -31 -31 -24 -24 -31 -31 24 -24 31 31 24 24 31 vhcurveto
            return
          </CharString>
          <CharString index="154">
            12 -110 7 -77 3 -43 rrcurveto
            return
          </CharString>
          <CharString index="155">
            -20 hstem
            35 97 218 101 vstem
            return
          </CharString>
          <CharString index="156">
            69 -12 225 -88 88 return
          </CharString>
          <CharString index="157">
            -20 hstem
            86 131 vstem
            return
          </CharString>
          <CharString index="158">
            27 64 rcurveline
            hintmask 10111100
            1 6 7 0 7 hhcurveto
            47 29 -14 -27 10 hvcurveto
            return
          </CharString>
          <CharString index="159">
            rmoveto
            74 -24 60 -49 58 vhcurveto
            -23 27 -28 27 -29 18 rrcurveto
            -11 hlineto
            -22 return
          </CharString>
          <CharString index="160">
            -76 -157 -21 172 94 215 93 return
          </CharString>
          <CharString index="161">
            1 103 -103 135 return
          </CharString>
          <CharString index="162">
            -21 216 98 0 59 hstemhm
            94 75 108 75 hintmask 10111000
            348 return
          </CharString>
          <CharString index="163">
            81 callgsubr
            -120 123 rmoveto
            return
          </CharString>
          <CharString index="164">
            150 hlineto
            -1 return
          </CharString>
          <CharString index="165">
            -5 -49 72 callsubr
            return
          </CharString>
          <CharString index="166">
            rmoveto
            69 -22 77 167 -79 29 rlineto
            return
          </CharString>
          <CharString index="167">
            153 -17 -33 callsubr
            return
          </CharString>
          <CharString index="168">
            100 111 137 -105 105 return
          </CharString>
          <CharString index="169">
            rmoveto
            17 17 7 14 16 hvcurveto
            return
          </CharString>
          <CharString index="170">
            23 12 26 29 vvcurveto
            41 -31 return
          </CharString>
          <CharString index="171">
            149 19 -21 23 -21 return
          </CharString>
          <CharString index="172">
            -20 hstemhm
            hintmask 10100000
            return
          </CharString>
          <CharString index="173">
            87 callsubr
            vstem
            return
          </CharString>
          <CharString index="174">
            -21 162 120 207 172 -28 -20 59 -20 hstemhm
            return
          </CharString>
          <CharString index="175">
            hlineto
            70 169 rlineto
            -87 hlineto
            -21 -53 -28 -63 -22 -53 rrcurveto
            return
          </CharString>
          <CharString index="176">
            97 219 100 return
          </CharString>
          <CharString index="177">
            66 -66 115 return
          </CharString>
          <CharString index="178">
            rmoveto
            -287 -318 -150 318 -157 -1 rlineto
            return
          </CharString>
          <CharString index="179">
            rrcurveto
            -55 -5 36 -44 57 8 callgsubr
            return
          </CharString>
          <CharString index="180">
            rmoveto
            27 -10 -29 14 return
          </CharString>
          <CharString index="181">
            rrcurveto
            -153 hlineto
            1 return
          </CharString>
          <CharString index="182">
            650 rmoveto
            -49 -177 73 -20 63 167 rlineto
            return
          </CharString>
          <CharString index="183">
            637 -92 callgsubr
            return
          </CharString>
          <CharString index="184">
            21 -21 478 -20 hstem
            return
          </CharString>
          <CharString index="185">
            85 callgsubr
            -1 return
          </CharString>
          <CharString index="186">
            21 -21 626 -20 hstem
            return
          </CharString>
          <CharString index="187">
            -239 21 -21 return
          </CharString>
          <CharString index="188">
            -21 528 -20 hstem
            111 79 vstem
            190 return
          </CharString>
          <CharString index="189">
            -7 89 -61 -21 304 89 return
          </CharString>
          <CharString index="190">
            hstemhm
            18 131 567 69 return
          </CharString>
          <CharString index="191">
            -246 20 -21 303 86 return
          </CharString>
          <CharString index="192">
            -20 hstem
            35 100 vstem
            return
          </CharString>
          <CharString index="193">
            hstem
            366 105 vstem
            return
          </CharString>
          <CharString index="194">
            -20 hstem
            37 105 return
          </CharString>
          <CharString index="195">
            -100 -21 107 136 136 135 hstemhm
            return
          </CharString>
          <CharString index="196">
            625 rmoveto
            -115 -2 -90 -1 -64 1 return
          </CharString>
          <CharString index="197">
            vhcurveto
            -19 -10 -24 -4 -30 2 -6 -27 rcurveline
            return
          </CharString>
          <CharString index="198">
            -2 -10 -1 -22 3 -35 7 -19 -91 rcurveline
            return
          </CharString>
        <CharString name=".notdef">
          -49 0 63 594 62 hstem
          63 62 250 63 vstem
          438 hmoveto
          719 -375 -719 vlineto
          62 657 rmoveto
          250 -594 -250 hlineto
          endchar
        </CharString>
        <CharString name="A">
          76 21 -58 callsubr
          hstem
          573 -66 callsubr
          35 65 31 54 27 43 rrcurveto
          196 hlineto
          -58 callgsubr
          endchar
        </CharString>
        <CharString name="AE">
          421 0 107 -107 150 12 120 -4 61 callsubr
          hstemhm
          hintmask 10100100
          1031 30 callsubr
          -18 -35 1 2 -53 hvcurveto
          1 -44 -35 1 -26 hhcurveto
          -347 -352 -207 -209 -69 -65 rrcurveto
          143 hlineto
          61 65 53 54 44 43 rrcurveto
          196 hlineto
          -14 -54 -14 -54 -13 -54 rrcurveto
          32 42 1 1 51 hvcurveto
          2 65 42 1 18 hhcurveto
          53 1 82 -2 110 -4 rrcurveto
          hintmask 01101000
          13 66 10 50 9 34 rrcurveto
          -82 hlineto
          -5 -15 -6 -10 -5 -6 rrcurveto
          hintmask 10010100
          -8 -7 -21 -4 -34 hhcurveto
          -201 hlineto
          39 171 135 2 83 -4 29 -10 rlinecurve
          27 126 rlineto
          -9 -23 -85 -5 -145 hhcurveto
          31 143 rlineto
          175 hlineto
          37 19 -2 -5 3 hvcurveto
          hintmask 10101000
          3 -5 1 -8 -1 -12 rrcurveto
          83 hlineto
          8 57 10 46 11 34 rrcurveto
          -483 -175 rmoveto
          -15 -56 -15 -56 -15 -57 rrcurveto
          -120 hlineto
          55 55 55 57 55 57 rrcurveto
          endchar
        </CharString>
        <CharString name="AEacute">
          421 0 107 -107 150 12 120 -4 61 callsubr
          238 -20 hstemhm
          hintmask 10100110
          1035 30 callsubr
          -18 -35 1 2 -53 hvcurveto
          1 -44 -35 1 -26 hhcurveto
          -347 -352 -207 -209 -69 -65 rrcurveto
          143 hlineto
          61 65 53 54 44 43 rrcurveto
          196 hlineto
          -14 -54 -14 -54 -13 -54 rrcurveto
          32 42 1 1 51 hvcurveto
          2 65 42 1 18 hhcurveto
          53 1 82 -2 110 -4 rrcurveto
          hintmask 01101010
          13 66 10 50 9 34 rrcurveto
          -82 hlineto
          -5 -15 -6 -10 -5 -6 rrcurveto
          hintmask 10010110
          -8 -7 -21 -4 -34 hhcurveto
          -201 hlineto
          39 171 135 2 83 -4 29 -10 rlinecurve
          27 126 rlineto
          -9 -23 -85 -5 -145 hhcurveto
          31 143 rlineto
          175 hlineto
          37 19 -2 -5 3 hvcurveto
          hintmask 10101010
          3 -5 1 -8 -1 -12 rrcurveto
          83 hlineto
          8 57 10 46 11 34 rrcurveto
          -483 -175 rmoveto
          -15 -56 -15 -56 -15 -57 rrcurveto
          -120 hlineto
          55 55 55 57 55 57 rrcurveto
          182 413 -92 callgsubr
          -80 30 -92 callgsubr
          endchar
        </CharString>
        <CharString name="Aacute">
          76 21 -58 callsubr
          255 -20 hstem
          573 -66 callsubr
          35 65 31 54 27 43 rrcurveto
          196 hlineto
          -58 callgsubr
          56 586 -92 callgsubr
          -80 30 -92 callgsubr
          endchar
        </CharString>
        <CharString name="Abreve">
          76 21 -58 callsubr
          61 56 86 -20 hstem
          556 816 -95 callgsubr
          -21 -777 rmoveto
          -89 callsubr
          -105 hlineto
          -211 -357 -128 -211 -43 -65 rrcurveto
          144 hlineto
          35 65 31 54 27 43 rrcurveto
          196 hlineto
          -58 callgsubr
          endchar
        </CharString>
        <CharString name="Acircumflex">
          76 21 -58 callsubr
          239 -20 hstem
          599 728 -100 callsubr
          31 -677 rmoveto
          -89 callsubr
          -105 hlineto
          -211 -357 -128 -211 -43 -65 rrcurveto
          144 hlineto
          35 65 31 54 27 43 rrcurveto
          196 hlineto
          -58 callgsubr
          endchar
        </CharString>
        <CharString name="Adieresis">
          76 21 -58 callsubr
          56 31 callgsubr
          466 106 hintmask 11110100
          507 30 callgsubr
          hintmask 11101100
          -76 callsubr
          193 -724 rmoveto
          -89 callsubr
          -105 hlineto
          -211 -357 -128 -211 -43 -65 rrcurveto
          144 hlineto
          35 65 31 54 27 43 rrcurveto
          196 hlineto
          -58 callgsubr
          endchar
        </CharString>
        <CharString name="Agrave">
          76 21 -58 callsubr
          242 -20 hstem
          380 855 -69 callgsubr
          126 -681 rmoveto
          -89 callsubr
          -105 hlineto
          -211 -357 -128 -211 -43 -65 rrcurveto
          144 hlineto
          35 65 31 54 27 43 rrcurveto
          196 hlineto
          -58 callgsubr
          endchar
        </CharString>
        <CharString name="Alpha">
          95 21 -58 callsubr
          hstem
          588 -66 callsubr
          35 65 31 54 27 43 rrcurveto
          196 hlineto
          -58 callgsubr
          endchar
        </CharString>
        <CharString name="Alphatonos">
          95 21 -58 callsubr
          62 -20 hstem
          71 675 rmoveto
          -49 -177 73 -20 63 167 rlineto
          430 -645 rmoveto
          -89 callsubr
          -105 hlineto
          -211 -357 -128 -211 -43 -65 rrcurveto
          144 hlineto
          35 65 31 54 27 43 rrcurveto
          196 hlineto
          -58 callgsubr
          endchar
        </CharString>
        <CharString name="Amacron">
          76 21 -58 callsubr
          57 52 hstem
          268 722 -9 callgsubr
          -2 -722 rmoveto
          -89 callsubr
          -105 hlineto
          -211 -357 -128 -211 -43 -65 rrcurveto
          144 hlineto
          35 65 31 54 27 43 rrcurveto
          196 hlineto
          -58 callgsubr
          endchar
        </CharString>
        <CharString name="Aogonek">
          89 -201 -21 243 -58 callsubr
          hstem
          602 -120 rmoveto
          -15 -23 -18 -8 -15 hhcurveto
          -26 -1 -13 10 20 vvcurveto
          9 3 11 5 13 vhcurveto
          15 35 19 27 21 19 rrcurveto
          40 hlineto
          -89 callsubr
          -105 hlineto
          -211 -357 -128 -211 -43 -65 rrcurveto
          144 hlineto
          35 65 31 54 27 43 rrcurveto
          196 hlineto
          1 1 8 -54 15 -109 rrcurveto
          2 hlineto
          -29 -33 -17 -41 58 callsubr
          rrcurveto
          -293 475 rmoveto
          33 55 33 57 33 57 7 -56 7 -56 7 -57 rrcurveto
          endchar
        </CharString>
        <CharString name="Aring">
          76 21 -58 callsubr
          44 48 87 49 hstem
          343 188 vstem
          417 657 rmoveto
          29 27 11 22 23 hvcurveto
          23 63 callsubr
          32 91 callgsubr
          -26 -29 vvcurveto
          -41 30 -31 44 vhcurveto
          63 92 rmoveto
          -24 -5 -23 -20 -24 hhcurveto
          -24 -15 20 24 4 hvcurveto
          24 5 24 19 24 hhcurveto
          24 15 -19 -24 -5 hvcurveto
          93 -749 rmoveto
          -89 callsubr
          -105 hlineto
          -211 -357 -128 -211 -43 -65 rrcurveto
          144 hlineto
          35 65 31 54 27 43 rrcurveto
          196 hlineto
          -58 callgsubr
          endchar
        </CharString>
        <CharString name="Aringacute">
          76 90 callgsubr
          49 86 49 229 -20 hstem
          341 188 vstem
          415 673 rmoveto
          29 27 11 23 23 hvcurveto
          23 23 12 25 29 vvcurveto
          43 -31 30 91 callgsubr
          -25 -29 vvcurveto
          -43 30 -30 44 vhcurveto
          63 92 rmoveto
          -24 -5 -23 -19 -24 hhcurveto
          -24 -16 19 24 5 hvcurveto
          24 5 24 19 24 hhcurveto
          24 15 -19 -24 -5 hvcurveto
          95 -765 rmoveto
          -89 callsubr
          -105 hlineto
          -211 -357 -128 -211 -43 -65 rrcurveto
          144 hlineto
          35 65 31 54 27 43 rrcurveto
          196 hlineto
          -58 callgsubr
          113 804 -92 callgsubr
          -80 30 -92 callgsubr
          endchar
        </CharString>
        <CharString name="Atilde">
          76 21 -58 callsubr
          61 55 callgsubr
          hintmask 11110000
          622 744 -55 callgsubr
          hintmask 11101000
          -77 callgsubr
          -49 -744 rmoveto
          -89 callsubr
          -105 hlineto
          -211 -357 -128 -211 -43 -65 rrcurveto
          144 hlineto
          35 65 31 54 27 43 rrcurveto
          196 hlineto
          -58 callgsubr
          endchar
        </CharString>
        <CharString name="B">
          97 -60 callgsubr
        </CharString>
        <CharString name="Beta">
          103 -60 callgsubr
        </CharString>
        <CharString name="C">
          15 44 callgsubr
          -86 callgsubr
          endchar
        </CharString>
        <CharString name="Cacute">
          15 44 callgsubr
          225 -20 -86 callgsubr
          -118 251 -92 callgsubr
          -80 30 -92 callgsubr
          endchar
        </CharString>
        <CharString name="Ccaron">
          54 44 callgsubr
          207 -20 -86 callgsubr
          -2 233 -77 callsubr
          endchar
        </CharString>
        <CharString name="Ccedilla">
          14 -193 77 119 -21 534 126 hstem
          42 137 vstem
          272 -18 rmoveto
          37 36 4 9 35 hvcurveto
          39 10 29 4 19 -3 19 66 17 56 15 47 -84 -1 rcurveline
          -8 -17 -8 -13 -9 -7 -17 -14 -29 -8 -39 -3 rrcurveto
          -85 -5 -60 56 92 -59 callsubr
          -15 -3 -28 3 -39 10 rrcurveto
          11 -43 -29 5 -15 hhcurveto
          -96 -82 -29 -59 -68 hvcurveto
          -68 -58 -42 -77 -17 -96 rrcurveto
          -5 -25 -2 -24 -25 vvcurveto
          -61 13 -52 25 -44 vhcurveto
          27 -48 37 -32 49 -17 rrcurveto
          -29 -21 -10 -14 -38 callgsubr
          20 callsubr
          8 11 rlineto
          endchar
        </CharString>
        <CharString name="Ccircumflex">
          15 44 callgsubr
          206 -20 -86 callgsubr
          -15 108 -100 callsubr
          endchar
        </CharString>
        <CharString name="Cdotaccent">
          15 44 callgsubr
          32 94 -86 callgsubr
          -115 107 -49 callsubr
          endchar
        </CharString>
        <CharString name="Chi">
          100 79 callsubr
          535 -24 callsubr
        </CharString>
        <CharString name="D">
          141 0 104 413 108 hstem
          543 137 vstem
          672 302 rmoveto
          5 31 3 29 27 vvcurveto
          54 -12 46 -24 37 vhcurveto
          61 -40 -87 38 -97 hhcurveto
          -255 hlineto
          1 -19 -4 -32 -9 -45 -19 -97 -15 -72 -11 -48 -27 -126 -17 -79 -9 -32 -9 -32 -8 -25 -8 -18 rrcurveto
          248 hlineto
          113 88 26 53 64 hvcurveto
          69 57 43 75 17 91 rrcurveto
          -138 1 rmoveto
          -13 -59 -28 -49 -45 -39 rrcurveto
          -35 -40 -50 -17 -59 hhcurveto
          -103 hlineto
          23 117 14 73 6 27 5 25 8 33 9 40 9 40 8 33 6 25 rrcurveto
          107 hlineto
          57 40 -16 -32 23 hvcurveto
          21 -29 11 -32 -35 vvcurveto
          -19 -3 -24 -6 -27 vhcurveto
          endchar
        </CharString>
        <CharString name="Dcaron">
          141 0 104 413 108 222 -20 hstem
          543 137 vstem
          556 847 -77 callsubr
          75 -485 rmoveto
          5 31 3 29 27 vvcurveto
          54 -12 46 -24 37 vhcurveto
          61 -40 -87 38 -97 hhcurveto
          -255 hlineto
          1 -19 -4 -32 -9 -45 -19 -97 -15 -72 -11 -48 -27 -126 -17 -79 -9 -32 -9 -32 -8 -25 -8 -18 rrcurveto
          248 hlineto
          113 88 26 53 64 hvcurveto
          69 57 43 75 17 91 rrcurveto
          -138 1 rmoveto
          -13 -59 -28 -49 -45 -39 rrcurveto
          -35 -40 -50 -17 -59 hhcurveto
          -103 hlineto
          23 117 14 73 6 27 5 25 8 33 9 40 9 40 8 33 6 25 rrcurveto
          107 hlineto
          57 40 -16 -32 23 hvcurveto
          21 -29 11 -32 -35 vvcurveto
          -19 -3 -24 -6 -27 vhcurveto
          endchar
        </CharString>
        <CharString name="Delta">
          -8 callgsubr
        </CharString>
        <CharString name="Dmacron">
          123 0 104 187 75 151 108 hstem
          519 138 vstem
          649 302 rmoveto
          5 29 3 27 25 vvcurveto
          75 -21 59 -43 42 vhcurveto
          44 -45 -65 22 -86 hhcurveto
          -255 hlineto
          1 -19 -4 -32 -9 -45 -7 -40 -11 -54 -15 -69 rrcurveto
          -100 hlineto
          -13 -75 rlineto
          97 hlineto
          -23 -106 -16 -72 -10 -38 -9 -32 -8 -25 -8 -18 rrcurveto
          248 hlineto
          232 125 91 211 37 hvcurveto
          -138 1 rmoveto
          -13 -59 -27 -48 -43 -37 rrcurveto
          -37 -43 -50 -18 -59 hhcurveto
          -103 hlineto
          21 111 13 62 3 14 rrcurveto
          160 hlineto
          13 75 rlineto
          -157 hlineto
          15 67 12 51 8 33 rrcurveto
          107 hlineto
          101 50 -49 -99 -21 -3 -22 -5 -23 hvcurveto
          endchar
        </CharString>
        <CharString name="E">
          52 -1 -55 callsubr
          1 -20 hstemhm
          hintmask 10110000
          611 30 callsubr
          hintmask 01101000
          -101 callgsubr
          hintmask 10110000
          -54 callgsubr
        </CharString>
        <CharString name="Eacute">
          52 -1 -55 callsubr
          246 80 callgsubr
          611 -83 callsubr
          hintmask 10111000
          -103 callsubr
          -178 246 -92 callgsubr
          -80 30 -92 callgsubr
          endchar
        </CharString>
        <CharString name="Ebreve">
          52 -1 -55 callsubr
          43 56 86 -20 hstemhm
          hintmask 01111100
          514 811 -95 callgsubr
          59 -146 -49 callgsubr
          -101 callgsubr
          hintmask 10111100
          -54 callgsubr
        </CharString>
        <CharString name="Ecaron">
          52 -1 -55 callsubr
          222 80 callgsubr
          543 848 -77 callsubr
          27 -162 -49 callgsubr
          -101 callgsubr
          hintmask 10111000
          -54 callgsubr
        </CharString>
        <CharString name="Ecircumflex">
          52 -1 -55 callsubr
          224 80 callgsubr
          572 726 -100 callsubr
          96 -49 -49 callgsubr
          -101 callgsubr
          hintmask 10111000
          -54 callgsubr
        </CharString>
        <CharString name="Edieresis">
          52 4 callsubr
          111 137 -105 105 44 31 callgsubr
          452 106 hintmask 10110101
          493 670 -79 callsubr
          hintmask 01101011
          -76 callsubr
          245 -99 -49 callgsubr
          -101 callgsubr
          hintmask 10101101
          -54 callgsubr
        </CharString>
        <CharString name="Edotaccent">
          52 -1 -55 callsubr
          44 94 hstemhm
          hintmask 01111000
          444 719 -49 callsubr
          167 -93 -49 callgsubr
          -101 callgsubr
          hintmask 10111000
          -54 callgsubr
        </CharString>
        <CharString name="Egrave">
          52 -1 -55 callsubr
          235 80 callgsubr
          368 861 -69 callgsubr
          176 -61 -49 callgsubr
          -101 callgsubr
          hintmask 10111000
          -54 callgsubr
        </CharString>
        <CharString name="Emacron">
          52 -1 -55 callsubr
          40 49 hstemhm
          hintmask 01111000
          547 715 rmoveto
          -316 hlineto
          -11 -49 rlineto
          317 hlineto
          74 -40 -49 callgsubr
          -101 callgsubr
          hintmask 10111000
          -54 callgsubr
        </CharString>
        <CharString name="Eng">
          201 -223 94 150 26 callgsubr
          hintmask 11100000
          636 626 rmoveto
          2 -25 -6 -43 19 callsubr
          -62 -13 -62 -13 -62 -10 -42 -5 -23 rrcurveto
          hintmask 11010000
          5 callgsubr
          hintmask 11100000
          -1 -54 0 -109 vhcurveto
          1 -5 1 -7 -8 vvcurveto
          -45 -16 -98 -32 -151 vhcurveto
          -13 -61 -14 -62 -13 -61 -13 -61 -13 -42 -12 -25 rrcurveto
          78 callgsubr
          43 12 62 13 60 13 60 13 61 30 139 rcurveline
          71 -121 93 -149 115 -179 -1 -31 -12 -29 -21 -27 -21 -27 -22 -14 -23 -1 -28 -1 -28 13 -28 26 -69 -94 rcurveline
          13 -2 21 -8 29 -13 24 -11 26 -5 28 1 129 3 80 75 33 145 65 310 rcurveline
          51 callgsubr
          34 callgsubr
          endchar
        </CharString>
        <CharString name="Eogonek">
          52 -201 -21 221 -55 callsubr
          1 -20 hstemhm
          hintmask 11011000
          611 30 callsubr
          hintmask 10110100
          -126 2 -79 2 -32 2 1 -19 -5 -41 -13 -61 -12 -61 -13 -60 -13 -61 -40 -188 -27 -108 -14 -29 97 3 76 2 55 1 -32 -34 -18 -43 -5 -51 rrcurveto
          -55 -5 36 -44 57 -42 callsubr
          17 39 21 28 23 19 82 -2 55 -2 29 -1 13 66 10 50 9 34 rrcurveto
          -82 hlineto
          -5 -15 -6 -10 -5 -6 rrcurveto
          hintmask 11011000
          -54 callgsubr
        </CharString>
        <CharString name="Epsilon">
          62 -1 -55 callsubr
          1 -20 hstemhm
          hintmask 10110000
          631 30 callsubr
          hintmask 01101000
          -101 callgsubr
          hintmask 10110000
          -54 callgsubr
        </CharString>
        <CharString name="Epsilon.alt">
          -3 -16 129 149 97 156 127 hstem
          21 138 vstem
          179 359 rmoveto
          19 49 28 39 38 29 35 25 35 13 36 1 48 1 31 -8 14 -17 3 -16 1 -13 -2 -10 rrcurveto
          86 hlineto
          8 91 6 54 5 19 -26 -2 -27 3 -27 9 rrcurveto
          11 -35 -34 5 -32 hhcurveto
          -93 -79 -31 -61 -66 hvcurveto
          -66 -61 -41 -79 -17 -97 rrcurveto
          -4 -23 -2 -23 -23 vvcurveto
          -67 16 -57 32 -46 vhcurveto
          35 -49 48 -29 73 callgsubr
          13 -1 15 hhcurveto
          35 34 4 9 33 hvcurveto
          40 10 31 3 21 -3 18 65 16 56 15 47 rrcurveto
          -85 hlineto
          -7 -17 -8 -12 -9 -7 -19 -16 -30 -9 -39 -1 rrcurveto
          -91 -1 -50 54 96 vvcurveto
          133 1 79 -4 27 -9 30 126 rcurveline
          -11 -28 -83 -6 -138 hhcurveto
          endchar
        </CharString>
        <CharString name="Epsilontonos">
          62 -1 -55 callsubr
          48 80 callgsubr
          -16 674 rmoveto
          -49 -177 73 -20 63 167 rlineto
          560 -18 -49 callgsubr
          -101 callgsubr
          hintmask 10111000
          -54 callgsubr
        </CharString>
        <CharString name="Eta">
          -30 callgsubr
          endchar
        </CharString>
        <CharString name="Etatonos">
          182 -22 callgsubr
          306 -20 hstem
          -41 676 rmoveto
          -49 -177 73 -20 63 167 rlineto
          544 -21 -105 callgsubr
          endchar
        </CharString>
        <CharString name="Eth">
          123 0 104 187 75 151 108 hstem
          519 138 vstem
          649 302 rmoveto
          5 29 3 27 25 vvcurveto
          75 -21 59 -43 42 vhcurveto
          44 -45 -65 22 -86 hhcurveto
          -255 hlineto
          1 -19 -4 -32 -9 -45 -7 -40 -11 -54 -15 -69 rrcurveto
          -100 hlineto
          -13 -75 rlineto
          97 hlineto
          -23 -106 -16 -72 -10 -38 -9 -32 -8 -25 -8 -18 rrcurveto
          248 hlineto
          232 125 91 211 37 hvcurveto
          -138 1 rmoveto
          -13 -59 -27 -48 -43 -37 rrcurveto
          -37 -43 -50 -18 -59 hhcurveto
          -103 hlineto
          21 111 13 62 3 14 rrcurveto
          160 hlineto
          13 75 rlineto
          -157 hlineto
          15 67 12 51 8 33 rrcurveto
          107 hlineto
          101 50 -49 -99 -21 -3 -22 -5 -23 hvcurveto
          endchar
        </CharString>
        <CharString name="Euro">
          169 0 89 125 88 28 89 140 89 hstem
          144 214 rmoveto
          -133 45 116 -81 144 hhcurveto
          83 72 26 53 62 hvcurveto
          104 vlineto
          -81 -73 -73 -13 -71 hhcurveto
          -90 -73 42 83 -48 hvcurveto
          314 hlineto
          38 88 rlineto
          -377 hlineto
          -1 12 1 2 14 vvcurveto
          389 hlineto
          36 89 rlineto
          -406 hlineto
          12 26 17 25 20 21 rrcurveto
          45 46 56 23 66 hhcurveto
          70 68 -36 -72 66 hvcurveto
          37 91 rlineto
          71 -70 -80 35 -91 hhcurveto
          -93 -77 -31 -63 -61 hvcurveto
          -39 -38 -26 -47 -14 -50 rrcurveto
          -68 hlineto
          -37 -89 rlineto
          92 hlineto
          -9 -1 -10 1 -9 vhcurveto
          -61 hlineto
          -37 -88 rlineto
          endchar
        </CharString>
        <CharString name="F">
          65 56 callgsubr
          629 -47 callsubr
        </CharString>
        <CharString name="G">
          -6 callsubr
          hstemhm
          50 141 hintmask 10101100
          -10 callgsubr
          hintmask 01101100
          -80 callgsubr
          hintmask 10110100
          17 callgsubr
        </CharString>
        <CharString name="Gamma">
          44 20 -21 479 143 -95 95 5 65 callsubr
          637 625 rmoveto
          -85 -3 -70 -2 -53 1 rrcurveto
          hintmask 10010000
          -159 3 -88 1 -17 1 1 -23 -19 -109 -41 -193 -13 -60 -13 -59 -13 -59 -13 -58 -12 -41 -18 callgsubr
          154 hlineto
          -1 25 4 41 11 57 13 59 12 60 13 60 rrcurveto
          hintmask 10100000
          48 225 rlineto
          178 hlineto
          35 19 -4 -7 4 hvcurveto
          hintmask 11000000
          4 -7 1 -12 -3 -18 rrcurveto
          84 hlineto
          9 61 10 49 12 37 rrcurveto
          endchar
        </CharString>
        <CharString name="Gbreve">
          -6 callsubr
          27 56 86 -20 hstemhm
          50 141 hintmask 10101111
          571 811 -95 callgsubr
          14 -152 -72 callsubr
          hintmask 01101111
          -80 callgsubr
          hintmask 10110111
          17 callgsubr
        </CharString>
        <CharString name="Gcircumflex">
          -6 callsubr
          208 -20 hstemhm
          50 141 hintmask 10101110
          602 726 -100 callsubr
          78 -55 -72 callsubr
          hintmask 01101110
          -80 callgsubr
          hintmask 10110110
          17 callgsubr
        </CharString>
        <CharString name="Gcommaaccent">
          82 -278 -21 188 94 23 104 0 54 0 147 0 143 64 124 hstemhm
          50 141 hintmask 11101011
          -10 callgsubr
          -80 callgsubr
          hintmask 11010111
          -11 callsubr
          -366 -731 29 callgsubr
        </CharString>
        <CharString name="Gdotaccent">
          -6 callsubr
          23 110 hstemhm
          50 141 202 110 hintmask 10101111
          -10 callgsubr
          hintmask 01101111
          -80 callgsubr
          hintmask 10110111
          -11 callsubr
          -120 100 46 callsubr
          endchar
        </CharString>
        <CharString name="H">
          196 -22 callgsubr
          255 -20 hstem
          590 -103 callgsubr
          endchar
        </CharString>
        <CharString name="H18533">
          -155 67 -21 284 -20 hstem
          194 330 rmoveto
          -39 -34 -14 -28 -28 hvcurveto
          -27 -27 -14 -34 -39 vvcurveto
          -39 14 -34 27 -28 vhcurveto
          -27 27 34 -14 40 hhcurveto
          39 34 14 27 27 hvcurveto
          27 28 14 34 39 vvcurveto
          39 -14 34 -28 27 vhcurveto
          28 -27 -33 14 -39 hhcurveto
          endchar
        </CharString>
        <CharString name="H18543">
          -226 92 186 hstem
          65 186 vstem
          65 278 rmoveto
          -186 186 186 vlineto
          endchar
        </CharString>
        <CharString name="H18551">
          -226 94 30 125 31 hstem
          68 30 125 31 vstem
          68 280 rmoveto
          -186 186 186 vlineto
          -31 -156 rmoveto
          -125 125 125 hlineto
          endchar
        </CharString>
        <CharString name="H22073">
          -106 -4 30 319 30 hstem
          29 30 319 30 vstem
          29 -4 rmoveto
          379 379 -379 hlineto
          349 -30 rmoveto
          -319 -319 319 vlineto
          endchar
        </CharString>
        <CharString name="Hbar">
          196 -22 callgsubr
          62 75 -75 193 hstemhm
          hintmask 11100000
          710 507 rmoveto
          hintmask 11010000
          13 55 12 40 11 23 rrcurveto
          -151 hlineto
          hintmask 11100000
          2 -25 -4 -40 -11 -53 rrcurveto
          -300 hlineto
          hintmask 11010000
          13 52 12 39 12 27 rrcurveto
          -152 hlineto
          hintmask 11100000
          2 -23 -4 -40 -11 -55 rrcurveto
          -62 hlineto
          -14 -75 rlineto
          61 hlineto
          -11 -53 -9 -40 -6 -27 rrcurveto
          -26 -123 -13 -61 -1 vvcurveto
          -14 -60 -13 -42 -18 callgsubr
          152 hlineto
          -1 28 14 85 30 143 rrcurveto
          298 hlineto
          -28 -138 -22 -85 -15 -33 rrcurveto
          152 hlineto
          -2 31 18 103 38 176 25 122 rcurveline
          69 hlineto
          13 75 rlineto
          -224 -137 rmoveto
          -299 hlineto
          5 23 4 21 4 18 rrcurveto
          300 hlineto
          endchar
        </CharString>
        <CharString name="Hcircumflex">
          196 -22 callgsubr
          482 -20 hstem
          641 728 -100 callsubr
          6 -52 -105 callgsubr
          endchar
        </CharString>
        <CharString name="I">
          80 callsubr
          623 -20 hstem
          171 -5 callgsubr
          endchar
        </CharString>
        <CharString name="IJ">
          66 -19 105 -65 -21 625 -20 hstemhm
          hintmask 01100000
          138 -5 callgsubr
          217 2 rmoveto
          1 -25 -2 -27 -6 -31 -5 -31 -16 -76 -26 -123 -20 -93 -15 -62 -11 -30 rrcurveto
          hintmask 10100000
          -27 -9 -19 -14 -27 hhcurveto
          -11 -11 3 5 -9 hvcurveto
          -14 8 -7 12 1 16 rrcurveto
          -58 hlineto
          hintmask 01100000
          -28 -130 15 3 20 -2 24 -8 rlinecurve
          hintmask 10100000
          -8 24 27 -4 30 hhcurveto
          66 48 20 40 29 hvcurveto
          23 31 28 90 31 148 45 callsubr
          61 13 62 13 43 12 25 rrcurveto
          endchar
        </CharString>
        <CharString name="Iacute">
          80 callsubr
          868 -20 hstem
          171 -5 callgsubr
          -6 245 -92 callgsubr
          -80 30 -92 callgsubr
          endchar
        </CharString>
        <CharString name="Ibreve">
          80 callsubr
          670 56 86 -20 hstem
          383 812 -95 callgsubr
          -250 -150 rmoveto
          1 -25 -5 -42 -11 -60 -13 -61 -13 -60 -13 -61 rrcurveto
          -26 -123 -13 -62 -1 vvcurveto
          -15 -61 -13 -42 -37 callsubr
          43 13 61 13 61 12 12 callsubr
          61 14 61 13 12 callsubr
          42 11 25 rrcurveto
          endchar
        </CharString>
        <CharString name="Icircumflex">
          80 callsubr
          847 -20 hstem
          430 723 -100 callsubr
          -202 -49 rmoveto
          1 -25 -5 -42 -11 -60 -13 -61 -13 -60 -13 -61 rrcurveto
          -26 -123 -13 -62 -1 vvcurveto
          -15 -61 -13 -42 -37 callsubr
          43 13 61 13 61 12 12 callsubr
          61 14 61 13 12 callsubr
          42 11 25 rrcurveto
          endchar
        </CharString>
        <CharString name="Idieresis">
          80 callsubr
          667 31 callgsubr
          303 106 hintmask 11010000
          344 667 -79 callsubr
          hintmask 10110000
          -76 callsubr
          -46 -99 rmoveto
          1 -25 -5 -42 -11 -60 -13 -61 -13 -60 -13 -61 rrcurveto
          -26 -123 -13 -62 -1 vvcurveto
          -15 -61 -13 -42 -37 callsubr
          43 13 61 13 61 12 12 callsubr
          61 14 61 13 12 callsubr
          42 11 25 rrcurveto
          endchar
        </CharString>
        <CharString name="Idotaccent">
          80 callsubr
          672 94 hstem
          310 721 -49 callsubr
          -139 -98 rmoveto
          1 -25 -5 -42 -11 -60 -13 -61 -13 -60 -13 -61 rrcurveto
          -26 -123 -13 -62 -1 vvcurveto
          -15 -61 -13 -42 -37 callsubr
          43 13 61 13 61 12 12 callsubr
          61 14 61 13 12 callsubr
          42 11 25 rrcurveto
          endchar
        </CharString>
        <CharString name="Igrave">
          80 callsubr
          864 -20 hstem
          232 864 -69 callgsubr
          -128 -67 rmoveto
          1 -25 -5 -42 -11 -60 -13 -61 -13 -60 -13 -61 rrcurveto
          -26 -123 -13 -62 -1 vvcurveto
          -15 -61 -13 -42 -37 callsubr
          43 13 61 13 61 12 12 callsubr
          61 14 61 13 12 callsubr
          42 11 25 rrcurveto
          endchar
        </CharString>
        <CharString name="Imacron">
          80 callsubr
          669 52 hstem
          106 721 -9 callgsubr
          -242 -98 rmoveto
          1 -25 -5 -42 -11 -60 -13 -61 -13 -60 -13 -61 rrcurveto
          -26 -123 -13 -62 -1 vvcurveto
          -15 -61 -13 -42 -37 callsubr
          43 13 61 13 61 12 12 callsubr
          61 14 61 13 12 callsubr
          42 11 25 rrcurveto
          endchar
        </CharString>
        <CharString name="Iogonek">
          -289 -201 -21 243 -21 623 -20 hstem
          138 623 rmoveto
          1 -25 -5 -42 -11 -60 -13 -61 -13 -60 -13 -61 39 callsubr
          -15 -61 -13 -42 -18 callgsubr
          21 hlineto
          -29 -33 -17 -41 -5 -49 rrcurveto
          -55 -5 36 -44 57 -42 callsubr
          15 35 19 27 21 19 rrcurveto
          36 21 callsubr
          43 13 61 13 61 12 12 callsubr
          61 14 61 13 12 callsubr
          42 11 25 rrcurveto
          endchar
        </CharString>
        <CharString name="Iota">
          -245 21 -21 623 -20 hstem
          163 623 rmoveto
          1 -25 -5 -42 -11 -60 -13 -61 -13 -60 -13 -61 39 callsubr
          -15 -61 -13 -42 -37 callsubr
          43 13 61 13 61 12 12 callsubr
          61 14 61 13 12 callsubr
          42 11 25 rrcurveto
          endchar
        </CharString>
        <CharString name="Iotadieresis">
          -245 21 -21 667 31 callgsubr
          306 106 hintmask 11010000
          347 667 -79 callsubr
          hintmask 10110000
          -76 callsubr
          -57 -99 rmoveto
          1 -25 -5 -42 -11 -60 -13 -61 -13 -60 -13 -61 39 callsubr
          -15 -61 -13 -42 -37 callsubr
          43 13 61 13 61 12 12 callsubr
          61 14 61 13 12 callsubr
          42 11 25 rrcurveto
          endchar
        </CharString>
        <CharString name="Iotatonos">
          -245 21 -21 671 -20 hstem
          671 vmoveto
          -87 -177 69 -20 98 167 rlineto
          83 -18 rmoveto
          1 -25 -5 -42 -11 -60 -13 -61 -13 -60 -13 -61 39 callsubr
          -15 -61 -13 -42 -37 callsubr
          43 13 61 13 61 12 12 callsubr
          61 14 61 13 12 callsubr
          42 11 25 rrcurveto
          endchar
        </CharString>
        <CharString name="Itilde">
          80 callsubr
          670 55 callgsubr
          hintmask 11000000
          461 740 -55 callgsubr
          hintmask 10100000
          -77 callgsubr
          -290 -117 rmoveto
          1 -25 -5 -42 -11 -60 -13 -61 -13 -60 -13 -61 rrcurveto
          -26 -123 -13 -62 -1 vvcurveto
          -15 -61 -13 -42 -37 callsubr
          43 13 61 13 61 12 12 callsubr
          61 14 61 13 12 callsubr
          42 11 25 rrcurveto
          endchar
        </CharString>
        <CharString name="J">
          -107 -19 105 539 -20 hstem
          282 625 -20 callgsubr
        </CharString>
        <CharString name="Jcircumflex">
          -107 -19 105 762 -20 hstem
          532 724 -100 callsubr
          -193 -48 -20 callgsubr
        </CharString>
        <CharString name="K">
          180 21 26 callgsubr
          hintmask 11000000
          163 626 rmoveto
          2 -25 -2 -27 -6 -31 -6 -31 -29 -138 -53 -247 -31 callgsubr
        </CharString>
        <CharString name="Kappa">
          146 21 26 callgsubr
          hintmask 11000000
          163 626 rmoveto
          2 -25 -5 -43 -13 -62 -13 -61 -12 -62 -13 -61 -40 -185 rcurveline
          -31 callgsubr
        </CharString>
        <CharString name="Kcommaaccent">
          180 -280 -21 322 26 callgsubr
          hintmask 11100000
          233 -113 -72 callgsubr
          -176 739 rmoveto
          2 -25 -2 -27 -6 -31 -6 -31 -29 -138 -53 -247 -13 callsubr
          hintmask 11010000
          -202 1 -5 -21 -18 -24 -30 -28 rlinecurve
          -14 -13 -43 -37 -72 -59 -41 -35 -44 -38 -47 -41 rrcurveto
          hintmask 11100000
          35 165 25 98 15 32 rrcurveto
          endchar
        </CharString>
        <CharString name="L">
          25 -2 107 -107 150 477 65 callsubr
          459 149 rmoveto
          -9 -29 -6 -9 -32 -4 rrcurveto
          -1 -6 -11 0 -17 hhcurveto
          -63 callgsubr
          hintmask 01100000
          12 66 11 50 9 34 rrcurveto
          endchar
        </CharString>
        <CharString name="Lacute">
          25 -2 107 -107 150 717 65 callsubr
          301 865 -92 callgsubr
          78 -686 rmoveto
          -9 -29 -6 -9 -32 -4 rrcurveto
          -1 -6 -11 0 -17 hhcurveto
          -63 callgsubr
          hintmask 01100000
          12 66 11 50 9 34 rrcurveto
          endchar
        </CharString>
        <CharString name="Lambda">
          95 21 -21 633 -20 hstem
          588 hmoveto
          -89 callsubr
          -113 hlineto
          -206 -357 -125 -211 -43 -65 rrcurveto
          139 hlineto
          93 165 86 151 79 135 34 -282 18 -150 3 -19 rrcurveto
          141 hlineto
          endchar
        </CharString>
        <CharString name="Lcaron">
          25 -2 107 -107 150 592 65 callsubr
          533 740 -92 callgsubr
          -154 -561 rmoveto
          -9 -29 -6 -9 -32 -4 rrcurveto
          -1 -6 -11 0 -17 hhcurveto
          -63 callgsubr
          hintmask 01100000
          12 66 11 50 9 34 rrcurveto
          endchar
        </CharString>
        <CharString name="Lcommaaccent">
          25 -274 -21 188 105 0 107 -107 150 477 -20 hstemhm
          hintmask 11001000
          211 -107 -72 callgsubr
          142 256 rmoveto
          -9 -29 -6 -9 -32 -4 rrcurveto
          -1 -6 -11 0 -17 hhcurveto
          hintmask 10101000
          -63 callgsubr
          hintmask 10011000
          12 66 11 50 9 34 rrcurveto
          endchar
        </CharString>
        <CharString name="Ldot">
          25 -2 107 -107 150 168 110 199 -20 hstemhm
          307 110 hintmask 10111000
          417 371 46 callsubr
          42 -222 rmoveto
          -9 -29 -6 -9 -32 -4 rrcurveto
          -1 -6 -11 0 -17 hhcurveto
          -63 callgsubr
          hintmask 01111000
          12 66 11 50 9 34 rrcurveto
          endchar
        </CharString>
        <CharString name="Lslash">
          25 -2 107 -107 150 477 65 callsubr
          453 149 rmoveto
          -9 -29 -6 -9 -32 -4 rrcurveto
          -1 -6 -11 0 -17 hhcurveto
          -188 -1 46 203 151 39 -13 75 -121 -32 26 127 20 78 14 30 rlinecurve
          -148 hlineto
          1 -23 -4 -37 -10 -51 -11 -53 -12 -53 -12 -53 -115 -30 rcurveline
          -76 vlineto
          98 25 -33 -157 -24 -92 -13 -27 rlinecurve
          3 23 callsubr
          71 -2 91 -4 rrcurveto
          hintmask 01100000
          12 66 11 50 9 34 rrcurveto
          endchar
        </CharString>
        <CharString name="M">
          360 20 -21 627 -20 hstem
          747 626 71 callsubr
          2 -7 1 -10 -13 vvcurveto
          -35 -16 -94 -33 -155 vhcurveto
          -13 -61 -13 -62 -14 -61 -13 -61 -13 -42 -11 85 callgsubr
          -2 25 5 42 13 61 13 12 callsubr
          60 27 128 rcurveline
          160 -346 156 175 103 115 50 56 rlinecurve
          -27 -128 -13 -60 -14 -61 -13 -61 rlinecurve
          -13 -61 -13 -42 -11 78 callsubr
          25 5 42 12 12 callsubr
          62 13 61 21 101 14 63 7 26 16 63 16 41 15 20 rrcurveto
          endchar
        </CharString>
        <CharString name="Mu">
          357 22 -21 627 -20 hstem
          747 628 71 callsubr
          3 -7 1 -11 -13 vvcurveto
          -35 -16 -94 -33 -154 vhcurveto
          -13 -61 -14 -62 -13 -61 -13 -61 -13 -42 -12 -25 rrcurveto
          78 callgsubr
          43 12 62 13 60 13 60 13 61 27 128 rcurveline
          161 -346 156 174 103 115 49 57 rlinecurve
          -27 -128 -13 -61 -12 -60 -13 -60 rlinecurve
          -14 -62 -13 -43 -12 -24 rrcurveto
          57 callsubr
          25 5 42 13 12 callsubr
          62 13 61 21 101 14 63 6 25 16 63 16 42 15 20 rrcurveto
          endchar
        </CharString>
        <CharString name="N">
          255 21 26 callgsubr
          hintmask 11000000
          666 626 rmoveto
          2 -25 -6 -43 19 callsubr
          -62 -13 -62 -13 -62 -10 -42 -5 -23 rrcurveto
          hintmask 10100000
          5 callgsubr
          hintmask 11000000
          -78 callsubr
          endchar
        </CharString>
        <CharString name="Nacute">
          255 21 -21 869 -20 hstem
          666 626 rmoveto
          2 -25 -6 -43 19 callsubr
          -62 -13 -62 -13 -62 -10 -42 -5 -23 5 callgsubr
          -78 callsubr
          -260 243 -92 callgsubr
          -80 30 -92 callgsubr
          endchar
        </CharString>
        <CharString name="Ncaron">
          255 21 -21 849 -20 hstem
          655 849 -77 callsubr
          -30 -163 rmoveto
          2 -25 -6 -43 19 callsubr
          -62 -13 -62 -13 -62 -10 -42 -5 -23 5 callgsubr
          -78 callsubr
          endchar
        </CharString>
        <CharString name="Ncommaaccent">
          255 -276 -21 318 26 callgsubr
          hintmask 11100000
          305 -109 -72 callgsubr
          255 735 rmoveto
          2 -25 -6 -43 19 callsubr
          -62 -13 -62 -13 -62 -10 -42 -5 -23 rrcurveto
          hintmask 11010000
          5 callgsubr
          hintmask 11100000
          -78 callsubr
          endchar
        </CharString>
        <CharString name="Ntilde">
          255 21 -21 672 55 callgsubr
          hintmask 11000000
          726 742 -55 callgsubr
          hintmask 10100000
          -77 callgsubr
          -60 -116 rmoveto
          2 -25 -6 -43 19 callsubr
          -62 -13 -62 -13 -62 -10 -42 -5 -23 5 callgsubr
          -78 callsubr
          endchar
        </CharString>
        <CharString name="Nu">
          252 21 26 callgsubr
          hintmask 11000000
          666 626 rmoveto
          2 -25 -6 -43 19 callsubr
          -62 -13 -62 -13 -62 -10 -42 -5 -23 rrcurveto
          hintmask 10100000
          5 callgsubr
          hintmask 11000000
          -78 callsubr
          endchar
        </CharString>
        <CharString name="O">
          145 -14 -33 callsubr
          hstem
          83 callgsubr
          vstem
          672 299 rmoveto
          -104 callsubr
          endchar
        </CharString>
        <CharString name="OE">
          443 -14 121 -108 151 128 61 callsubr
          -105 125 hstemhm
          18 140 hintmask 10101010
          983 626 -49 callgsubr
          -126 2 -79 2 -31 2 rrcurveto
          hintmask 10100110
          13 -48 -37 6 -26 -56 callgsubr
          hintmask 01110010
          25 38 4 9 51 hvcurveto
          115 5 88 2 62 -1 53 1 75 -2 97 -4 13 66 10 50 9 34 rrcurveto
          -83 hlineto
          -5 -15 -5 -10 -5 -6 rrcurveto
          hintmask 10101010
          -8 -8 -21 -4 -33 hhcurveto
          -201 hlineto
          38 171 135 2 83 -4 30 -10 rlinecurve
          26 126 rlineto
          -9 -23 -84 -5 -146 hhcurveto
          32 143 rlineto
          175 hlineto
          37 19 -2 -5 3 hvcurveto
          3 -5 1 -8 -2 -12 rrcurveto
          84 hlineto
          8 57 10 46 11 34 rrcurveto
          -490 -160 rmoveto
          -33 -156 -22 -99 -9 -41 rrcurveto
          -37 -40 -45 -18 -49 hhcurveto
          -43 -35 -45 callgsubr
          -11 35 43 vvcurveto
          62 21 57 41 52 vhcurveto
          55 45 52 28 61 hhcurveto
          53 39 -17 -35 23 hvcurveto
          endchar
        </CharString>
        <CharString name="Oacute">
          145 -14 -33 callsubr
          226 -20 hstem
          83 callgsubr
          vstem
          672 299 rmoveto
          -104 callsubr
          -40 560 -92 callgsubr
          -80 30 -92 callgsubr
          endchar
        </CharString>
        <CharString name="Obreve">
          145 -14 -33 callsubr
          25 56 86 -20 hstem
          83 callgsubr
          vstem
          573 813 -95 callgsubr
          61 -475 rmoveto
          -104 callsubr
          endchar
        </CharString>
        <CharString name="Ocircumflex">
          145 -14 -33 callsubr
          204 -20 hstem
          83 callgsubr
          vstem
          605 726 -100 callsubr
          124 -376 rmoveto
          -104 callsubr
          endchar
        </CharString>
        <CharString name="Odieresis">
          145 -14 -33 callsubr
          29 106 1 -20 hstemhm
          42 140 317 106 -64 143 hintmask 11101100
          540 675 rmoveto
          32 33 30 32 24 -18 20 -24 -31 -33 -33 -31 -24 18 -18 23 hvcurveto
          -127 55 rmoveto
          hintmask 11011010
          25 5 -19 27 -27 hhcurveto
          -32 -34 -31 -32 -23 18 -19 25 28 31 25 28 5 hvcurveto
          259 -431 rmoveto
          -104 callsubr
          endchar
        </CharString>
        <CharString name="Ograve">
          145 -14 -33 callsubr
          224 -20 hstem
          83 callgsubr
          vstem
          398 870 -69 callgsubr
          207 -397 rmoveto
          -104 callsubr
          endchar
        </CharString>
        <CharString name="Ohm">
          145 -14 -33 callsubr
          19 31 callgsubr
          42 140 336 106 -83 143 hintmask 11101100
          559 665 -79 callsubr
          hintmask 11011010
          -76 callsubr
          240 -421 rmoveto
          -104 callsubr
          endchar
        </CharString>
        <CharString name="Ohorn">
          141 -14 -33 callsubr
          78 -20 hstem
          18 140 359 -94 callsubr
          endchar
        </CharString>
        <CharString name="Ohungarumlaut">
          145 -14 -33 callsubr
          219 -20 hstem
          83 callgsubr
          vstem
          521 865 rmoveto
          -49 -177 73 -20 63 167 rlineto
          -227 30 rmoveto
          -49 -177 73 -20 63 167 rlineto
          204 -536 rmoveto
          -104 callsubr
          endchar
        </CharString>
        <CharString name="Omacron">
          145 -14 -33 callsubr
          24 52 hstem
          83 callgsubr
          vstem
          286 722 -9 callgsubr
          79 -423 rmoveto
          -104 callsubr
          endchar
        </CharString>
        <CharString name="Omega">
          -65 callsubr
        </CharString>
        <CharString name="Omega.alt">
          220 -11 126 520 -20 hstem
          54 143 223 82 181 130 vstem
          800 244 rmoveto
          9 42 4 41 41 vvcurveto
          109 -29 89 -57 69 vhcurveto
          -110 -71 17 -22 14 -27 10 -33 rlinecurve
          17 -50 8 -45 -40 vvcurveto
          -34 -4 -36 -9 -37 vhcurveto
          -9 -42 -15 -32 -21 -22 rrcurveto
          -19 -19 -20 -10 -21 hhcurveto
          -37 -29 32 47 3 hvcurveto
          3 48 8 46 13 43 5 18 7 17 7 16 74 callsubr
          -28 -1 -20 -1 -12 -5 -33 -12 -42 -19 -50 rrcurveto
          -45 -19 -48 -38 -40 hhcurveto
          -34 -17 23 47 15 2 17 4 19 hvcurveto
          17 83 45 85 72 88 20 24 26 24 32 25 -104 71 rcurveline
          -129 -123 -83 -135 -35 -146 rrcurveto
          -7 -29 -3 -28 -25 vvcurveto
          -57 18 -44 37 -29 vhcurveto
          -20 25 26 -10 27 hhcurveto
          108 78 48 97 47 hvcurveto
          1 -61 19 -42 38 -23 23 -15 30 -7 35 3 40 2 41 18 41 35 56 47 37 67 19 86 rrcurveto
          endchar
        </CharString>
        <CharString name="Omegatonos">
          5 callsubr
          28 -20 0 callsubr
          hintmask 10110110
          26 671 rmoveto
          -49 -177 73 -20 63 167 rlineto
          571 -274 -96 callgsubr
          rrcurveto
          hintmask 01110110
          -3 7 -2 6 1 7 -83 1 rcurveline
          -1 -8 -3 -22 -7 -35 -7 -37 -5 -24 -3 -10 79 4 88 0 97 -4 7 31 3 16 1 1 rrcurveto
          6 24 3 22 20 vvcurveto
          33 -11 34 -21 36 vhcurveto
          hintmask 10111010
          -99 callsubr
          rrcurveto
          hintmask 01111010
          -84 -1 -19 callgsubr
          rlinecurve
          hintmask 10111010
          -78 callgsubr
          endchar
        </CharString>
        <CharString name="Omicron">
          60 callsubr
          hstem
          50 -29 callgsubr
          vstem
          680 296 -79 callgsubr
          43 -47 vhcurveto
          -51 45 62 -25 79 hhcurveto
          93 81 28 56 69 hvcurveto
          69 57 46 76 22 96 22 callgsubr
          -11 -54 -26 -29 callsubr
          -34 -45 callgsubr
          -12 35 43 vvcurveto
          62 21 57 41 52 vhcurveto
          55 45 52 28 61 hhcurveto
          93 46 -47 -94 -21 -2 -21 -5 -23 hvcurveto
          endchar
        </CharString>
        <CharString name="Omicrontonos">
          60 callsubr
          29 -20 hstem
          50 -29 callgsubr
          vstem
          -5 672 -92 callgsubr
          605 -346 -79 callgsubr
          43 -47 vhcurveto
          -51 45 62 -25 79 hhcurveto
          93 81 28 56 69 hvcurveto
          69 57 46 76 22 96 22 callgsubr
          -11 -54 -26 -29 callsubr
          -34 -45 callgsubr
          -12 35 43 vvcurveto
          62 21 57 41 52 vhcurveto
          55 45 52 28 61 hhcurveto
          93 46 -47 -94 -21 -2 -21 -5 -23 hvcurveto
          endchar
        </CharString>
        <CharString name="Oslash">
          126 -78 -21 863 -20 hstem
          18 -29 callgsubr
          vstem
          648 299 rmoveto
          8 33 4 33 31 vvcurveto
          119 -57 89 -108 31 vhcurveto
          42 129 rlineto
          -94 hlineto
          -38 -118 -99 -1 -84 -31 -70 -61 rlinecurve
          -69 -61 -43 -79 -17 -99 rrcurveto
          -3 -23 -2 -22 -21 vvcurveto
          -63 15 -53 29 -45 vhcurveto
          31 -47 44 -30 56 -15 -31 -94 rcurveline
          94 hlineto
          28 85 89 3 78 30 66 56 rlinecurve
          66 56 44 75 21 93 22 callgsubr
          -11 -48 -22 -42 -33 -37 -33 -37 -39 -22 -45 -8 125 384 rcurveline
          43 -22 22 -42 -61 vvcurveto
          -21 -2 -21 -5 -23 vhcurveto
          -274 -185 rmoveto
          -52 23 -26 45 69 vvcurveto
          59 19 55 39 51 vhcurveto
          41 55 49 29 57 4 rrcurveto
          endchar
        </CharString>
        <CharString name="Oslashacute">
          126 -78 -21 948 -20 hstem
          18 -29 callgsubr
          vstem
          648 299 rmoveto
          8 33 4 33 31 vvcurveto
          119 -57 89 -108 31 vhcurveto
          42 129 rlineto
          -94 hlineto
          -38 -118 -99 -1 -84 -31 -70 -61 rlinecurve
          -69 -61 -43 -79 -17 -99 rrcurveto
          -3 -23 -2 -22 -21 vvcurveto
          -63 15 -53 29 -45 vhcurveto
          31 -47 44 -30 56 -15 -31 -94 rcurveline
          94 hlineto
          28 85 89 3 78 30 66 56 rlinecurve
          66 56 44 75 21 93 22 callgsubr
          -11 -48 -22 -42 -33 -37 -33 -37 -39 -22 -45 -8 125 384 rcurveline
          43 -22 22 -42 -61 vvcurveto
          -21 -2 -21 -5 -23 vhcurveto
          -274 -185 rmoveto
          -52 23 -26 45 69 vvcurveto
          59 19 55 39 51 vhcurveto
          41 55 49 29 57 4 rrcurveto
          -106 332 -92 callgsubr
          -80 30 -92 callgsubr
          endchar
        </CharString>
        <CharString name="Otilde">
          145 -14 -33 callsubr
          27 55 callgsubr
          83 callgsubr
          hintmask 11101100
          638 743 -55 callgsubr
          hintmask 11011100
          -77 callgsubr
          34 -444 rmoveto
          -104 callsubr
          endchar
        </CharString>
        <CharString name="P">
          60 21 -21 222 103 201 100 hstem
          478 136 vstem
          610 426 rmoveto
          3 17 1 17 15 vvcurveto
          101 -57 50 -113 vhcurveto
          -281 hlineto
          1 -25 -6 -43 -13 -63 -13 -63 19 callsubr
          -61 19 callsubr
          -59 -13 -41 -11 78 callsubr
          25 2 28 5 29 1 7 5 24 9 43 6 29 3 14 8 23 rrcurveto
          39 76 1 1 24 hvcurveto
          60 3 45 9 30 15 65 31 39 58 14 86 rrcurveto
          -135 3 rmoveto
          -9 -48 -23 -31 -37 -15 rrcurveto
          -7 -15 -23 -3 -30 hhcurveto
          -98 hlineto
          -12 callgsubr
        </CharString>
        <CharString name="Phi">
          198 0 178 -105 105 289 106 -106 158 hstemhm
          50 139 411 137 hintmask 10101100
          731 316 rmoveto
          4 20 2 19 18 vvcurveto
          63 -23 51 -47 37 vhcurveto
          33 -41 -51 16 -61 hhcurveto
          hintmask 10011100
          9 24 6 17 3 11 rrcurveto
          -151 hlineto
          hintmask 10101100
          2 -17 -1 -17 -3 -18 rrcurveto
          -72 -65 -18 -37 -57 hvcurveto
          -67 -43 -43 -62 -17 -80 rrcurveto
          -5 -23 -3 -22 -21 vvcurveto
          -67 26 -51 52 -35 vhcurveto
          -27 41 48 -13 57 hhcurveto
          -11 -39 -8 -25 -7 -10 rrcurveto
          152 hlineto
          hintmask 01101100
          -1 8 3 24 6 41 rrcurveto
          70 62 15 30 53 hvcurveto
          73 42 46 66 19 90 rrcurveto
          -135 7 rmoveto
          -7 -35 -17 -31 -26 -28 rrcurveto
          -34 -33 -39 -17 -46 hhcurveto
          13 63 10 44 6 26 16 78 11 52 5 26 rrcurveto
          65 46 -49 -65 -10 -1 -10 -3 -10 hvcurveto
          -237 145 rmoveto
          -15 -71 -10 -52 -7 -33 -15 -67 -11 -45 -5 -21 rrcurveto
          -38 -28 12 24 -19 hvcurveto
          -15 19 -7 25 31 vvcurveto
          45 17 41 34 37 vhcurveto
          37 35 39 18 45 hhcurveto
          endchar
        </CharString>
        <CharString name="Pi">
          196 20 -21 527 100 7 65 callsubr
          803 -39 callgsubr
        </CharString>
        <CharString name="Psi">
          197 21 -21 624 67 callgsubr
          78 128 hintmask 11010000
          668 624 rmoveto
          3 -34 -9 -37 -21 -40 -20 -40 -18 -28 -15 -17 -31 -32 -42 -19 -53 -7 27 139 20 84 15 31 rrcurveto
          -146 hlineto
          1 -22 -4 -35 -10 -48 -11 -51 -12 -50 -11 -51 -79 9 -42 49 -4 87 rrcurveto
          hintmask 10110000
          -2 45 5 37 12 31 rrcurveto
          -131 hlineto
          -8 -37 -4 -34 -32 vvcurveto
          -86 26 -68 52 -51 vhcurveto
          43 -43 50 -23 59 -3 -11 -50 -10 -50 -11 -51 -9 -40 -11 -32 -12 78 callsubr
          34 14 82 29 131 rrcurveto
          hintmask 11010000
          212 24 113 120 49 233 rrcurveto
          endchar
        </CharString>
        <CharString name="Q">
          145 -134 246 -129 -33 callsubr
          hstemhm
          83 callgsubr
          hintmask 01111000
          672 296 -79 callgsubr
          43 -48 vhcurveto
          45 -51 62 -25 79 1 rrcurveto
          5 hlineto
          9 -35 rlineto
          hintmask 10111000
          10 -37 5 -28 -1 -17 rrcurveto
          166 hlineto
          -7 5 -10 13 -13 20 -17 26 -12 25 -7 24 -7 22 rcurveline
          129 41 97 107 33 147 22 callgsubr
          -11 -54 -26 -29 callsubr
          -34 -45 callgsubr
          -12 35 43 vvcurveto
          62 21 57 41 52 vhcurveto
          55 45 52 28 61 hhcurveto
          93 46 -47 -94 -21 -2 -21 -5 -23 hvcurveto
          endchar
        </CharString>
        <CharString name="R">
          92 21 -21 524 102 49 callgsubr
          hintmask 11010000
          614 452 43 callgsubr
          hintmask 11100000
          -75 callgsubr
          -4 callsubr
          hintmask 11010000
          40 callsubr
        </CharString>
        <CharString name="Racute">
          92 21 -21 524 102 243 -20 49 callgsubr
          hintmask 11101000
          614 452 43 callgsubr
          hintmask 11110000
          -75 callgsubr
          -4 callsubr
          hintmask 11101000
          18 callsubr
          -80 430 -92 callgsubr
          -80 30 -92 callgsubr
          endchar
        </CharString>
        <CharString name="Rcaron">
          92 21 -21 524 102 226 -20 49 callgsubr
          hintmask 11101000
          520 852 -77 callsubr
          53 -340 43 callgsubr
          hintmask 11110000
          -75 callgsubr
          -4 callsubr
          hintmask 11101000
          40 callsubr
        </CharString>
        <CharString name="Rcommaaccent">
          92 -272 -21 314 -21 345 179 0 102 49 callgsubr
          hintmask 11100100
          238 -105 -72 callgsubr
          270 557 43 callgsubr
          hintmask 11011000
          -75 callgsubr
          hintmask 11100100
          -4 callsubr
          40 callsubr
        </CharString>
        <CharString name="Rho">
          69 21 -21 222 103 201 100 hstem
          478 136 vstem
          610 426 rmoveto
          3 17 1 17 15 vvcurveto
          101 -57 50 -113 vhcurveto
          -281 hlineto
          1 -25 -6 -43 -13 -63 -13 -63 19 callsubr
          -61 19 callsubr
          -59 -13 -41 -11 78 callsubr
          25 2 28 5 29 1 7 5 24 9 43 6 29 3 14 8 23 rrcurveto
          39 76 1 1 24 hvcurveto
          60 3 45 9 30 15 65 31 39 58 14 86 rrcurveto
          -135 3 rmoveto
          -9 -48 -23 -31 -37 -15 rrcurveto
          -7 -15 -23 -3 -30 hhcurveto
          -98 hlineto
          -12 callgsubr
        </CharString>
        <CharString name="S">
          48 callgsubr
          79 callgsubr
          639 614 -90 callsubr
          33 155 rlineto
          endchar
        </CharString>
        <CharString name="Sacute">
          48 callgsubr
          230 -20 79 callgsubr
          639 614 -90 callsubr
          -143 414 -92 callgsubr
          -80 30 -92 callgsubr
          endchar
        </CharString>
        <CharString name="Scaron">
          48 callgsubr
          209 -20 79 callgsubr
          576 852 -77 callsubr
          22 -178 -90 callsubr
          endchar
        </CharString>
        <CharString name="Scedilla">
          61 -158 -21 164 124 418 116 hstem
          298 60 68 147 vstem
          629 614 -80 callsubr
          -1 7 6 0 6 hhcurveto
          -8 -40 31 3 22 -4 14 -9 rlinecurve
          9 -6 4 -10 -13 vvcurveto
          -20 -8 -14 -16 -8 90 callsubr
          -3 24 19 -1 15 hhcurveto
          31 23 6 13 15 hvcurveto
          25 21 12 27 -1 35 rrcurveto
          25 -11 20 -22 17 vhcurveto
          138 10 80 56 23 102 rrcurveto
          5 20 2 19 17 vvcurveto
          85 -56 58 -113 31 vhcurveto
          -59 17 -35 11 -12 5 -22 11 -10 14 2 19 rrcurveto
          45 5 46 22 88 hhcurveto
          49 37 -10 -20 25 hvcurveto
          7 -6 4 -13 -1 -19 rrcurveto
          68 hlineto
          33 155 rlineto
          endchar
        </CharString>
        <CharString name="Scircumflex">
          48 callgsubr
          211 -20 79 callgsubr
          597 730 -100 callsubr
          99 -65 -90 callsubr
          endchar
        </CharString>
        <CharString name="Scommaaccent">
          106 -279 -21 188 95 544 116 79 callgsubr
          196 -112 -72 callgsubr
          337 726 -90 callsubr
          endchar
        </CharString>
        <CharString name="Sigma">
          42 41 callsubr
          619 -42 callgsubr
        </CharString>
        <CharString name="T">
          99 21 -21 526 99 hstemhm
          98 625 -41 callsubr
          hintmask 11000000
          -6 callgsubr
        </CharString>
        <CharString name="Tau">
          82 21 -21 526 99 hstemhm
          91 625 -22 callsubr
          12 58 12 59 13 59 13 60 47 224 rcurveline
          88 hlineto
          34 20 -4 -8 6 hvcurveto
          hintmask 11000000
          -6 callgsubr
        </CharString>
        <CharString name="Tbar">
          62 21 -21 301 75 150 99 hstemhm
          32 625 -24 callgsubr
          -32 -150 rlineto
          -139 hlineto
          -13 -75 rlineto
          136 hlineto
          -36 -171 -25 -101 -15 -29 rrcurveto
          78 callgsubr
          41 12 59 13 59 12 59 13 59 rrcurveto
          164 hlineto
          13 75 rlineto
          -161 hlineto
          31 149 rlineto
          88 hlineto
          34 20 -4 -8 6 hvcurveto
          hintmask 11100000
          -6 callgsubr
        </CharString>
        <CharString name="Tcaron">
          99 21 -21 526 99 228 -20 hstemhm
          568 853 -77 callsubr
          -511 -168 -41 callsubr
          hintmask 11100000
          -6 callgsubr
        </CharString>
        <CharString name="Tcommaaccent">
          99 -281 -21 188 114 526 99 hstem
          181 -114 -72 callgsubr
          -189 739 -41 callsubr
          -6 callgsubr
        </CharString>
        <CharString name="Theta">
          153 -17 129 146 96 161 128 hstem
          50 -29 callgsubr
          vstem
          680 296 -79 callgsubr
          43 -47 vhcurveto
          -51 45 62 -25 79 hhcurveto
          93 81 28 56 69 hvcurveto
          69 57 46 76 22 96 22 callgsubr
          -11 -54 -26 -29 callsubr
          -34 -45 callgsubr
          -12 35 43 vvcurveto
          62 21 57 41 52 vhcurveto
          55 45 52 28 61 hhcurveto
          93 46 -47 -94 -21 -2 -21 -5 -23 hvcurveto
          -37 57 rmoveto
          -48 -7 -43 -4 -37 -1 -71 1 -39 4 -7 6 -25 -117 rcurveline
          46 6 41 3 35 1 73 -1 41 -3 9 -5 rrcurveto
          endchar
        </CharString>
        <CharString name="Thorn">
          -289 21 -21 118 104 201 100 -100 200 hstemhm
          431 136 hintmask 11101000
          563 323 rmoveto
          3 17 1 17 15 vvcurveto
          100 -57 50 -113 1 vhcurveto
          -139 1 rlineto
          hintmask 11011000
          11 45 10 33 10 21 rrcurveto
          -151 hlineto
          1 -25 -5 -42 -11 -60 -13 -61 -13 -60 -13 -61 39 callsubr
          -15 -61 -13 -42 -21 callgsubr
          23 5 40 11 55 51 1 47 1 41 1 60 3 45 9 30 15 65 31 39 58 14 86 rrcurveto
          -135 3 rmoveto
          -9 -48 -23 -31 -37 -15 rrcurveto
          -7 -15 -23 -3 -30 hhcurveto
          -98 hlineto
          -12 callgsubr
        </CharString>
        <CharString name="U">
          34 callsubr
          520 50 callsubr
          553 625 rmoveto
          1 -21 -6 -40 -11 -59 -19 -107 -17 -84 -15 -60 -10 -41 -17 -34 -25 -27 rrcurveto
          -31 -30 -37 -16 -43 hhcurveto
          -71 -36 35 71 14 2 15 3 17 hvcurveto
          20 95 16 72 11 49 19 81 14 50 10 21 rrcurveto
          -154 hlineto
          1 -16 -1 -24 -5 -31 -13 -67 -12 -57 -10 -46 -25 -126 rcurveline
          -5 -26 -2 -24 -23 vvcurveto
          -43 9 86 callgsubr
          35 61 -29 88 hhcurveto
          91 75 -4 callgsubr
          12 48 7 31 10 39 9 28 8 17 rrcurveto
          endchar
        </CharString>
        <CharString name="Uacute">
          34 callsubr
          763 50 callsubr
          553 625 rmoveto
          1 -21 -6 -40 -11 -59 -19 -107 -17 -84 -15 -60 -10 -41 -17 -34 -25 -27 rrcurveto
          -31 -30 -37 -16 -43 hhcurveto
          -71 -36 35 71 14 2 15 3 17 hvcurveto
          20 95 16 72 11 49 19 81 14 50 10 21 rrcurveto
          -154 hlineto
          1 -16 -1 -24 -5 -31 -13 -67 -12 -57 -10 -46 -25 -126 rcurveline
          -5 -26 -2 -24 -23 vvcurveto
          -43 9 86 callgsubr
          35 61 -29 88 hhcurveto
          91 75 -4 callgsubr
          12 48 7 31 10 39 9 28 8 17 rrcurveto
          -224 243 -92 callgsubr
          -80 30 -92 callgsubr
          endchar
        </CharString>
        <CharString name="Ubreve">
          34 callsubr
          566 56 86 50 callsubr
          573 813 -95 callgsubr
          -58 -149 rmoveto
          1 -21 -6 -40 -11 -59 -19 -107 -17 -84 -15 -60 -10 -41 -17 -34 -25 -27 rrcurveto
          -31 -30 -37 -16 -43 hhcurveto
          -71 -36 35 71 14 2 15 3 17 hvcurveto
          20 95 16 72 11 49 19 81 14 50 10 21 rrcurveto
          -154 hlineto
          1 -16 -1 -24 -5 -31 -13 -67 -12 -57 -10 -46 -25 -126 rcurveline
          -5 -26 -2 -24 -23 vvcurveto
          -43 9 86 callgsubr
          35 61 -29 88 hhcurveto
          91 75 -4 callgsubr
          12 48 7 31 10 39 9 28 8 17 rrcurveto
          endchar
        </CharString>
        <CharString name="Ucircumflex">
          34 callsubr
          748 50 callsubr
          614 729 -100 callsubr
          -4 -53 rmoveto
          1 -21 -6 -40 -11 -59 -19 -107 -17 -84 -15 -60 -10 -41 -17 -34 -25 -27 rrcurveto
          -31 -30 -37 -16 -43 hhcurveto
          -71 -36 35 71 14 2 15 3 17 hvcurveto
          20 95 16 72 11 49 19 81 14 50 10 21 rrcurveto
          -154 hlineto
          1 -16 -1 -24 -5 -31 -13 -67 -12 -57 -10 -46 -25 -126 rcurveline
          -5 -26 -2 -24 -23 vvcurveto
          -43 9 86 callgsubr
          35 61 -29 88 hhcurveto
          91 75 -4 callgsubr
          12 48 7 31 10 39 9 28 8 17 rrcurveto
          endchar
        </CharString>
        <CharString name="Udieresis">
          34 callsubr
          570 106 1 -20 hstemhm
          86 131 279 106 hintmask 11011000
          538 675 rmoveto
          32 32 30 32 24 -17 20 -25 -31 -33 -33 -31 -24 18 -18 24 hvcurveto
          -128 55 rmoveto
          hintmask 10111000
          25 5 -19 27 -27 hhcurveto
          -32 -34 -31 -32 -23 18 -19 25 29 30 25 28 5 hvcurveto
          143 -105 rmoveto
          1 -21 -6 -40 -11 -59 -19 -107 -17 -84 -15 -60 -10 -41 -17 -34 -25 -27 rrcurveto
          -31 -30 -37 -16 -43 hhcurveto
          -71 -36 35 71 14 2 15 3 17 hvcurveto
          20 95 16 72 11 49 19 81 14 50 10 21 rrcurveto
          -154 hlineto
          1 -16 -1 -24 -5 -31 -13 -67 -12 -57 -10 -46 -25 -126 rcurveline
          -5 -26 -2 -24 -23 vvcurveto
          -43 9 86 callgsubr
          35 61 -29 88 hhcurveto
          91 75 -4 callgsubr
          12 48 7 31 10 39 9 28 8 17 rrcurveto
          endchar
        </CharString>
        <CharString name="Ugrave">
          34 callsubr
          760 50 callsubr
          414 865 -69 callgsubr
          72 -66 rmoveto
          1 -21 -6 -40 -11 -59 -19 -107 -17 -84 -15 -60 -10 -41 -17 -34 -25 -27 rrcurveto
          -31 -30 -37 -16 -43 hhcurveto
          -71 -36 35 71 14 2 15 3 17 hvcurveto
          20 95 16 72 11 49 19 81 14 50 10 21 rrcurveto
          -154 hlineto
          1 -16 -1 -24 -5 -31 -13 -67 -12 -57 -10 -46 -25 -126 rcurveline
          -5 -26 -2 -24 -23 vvcurveto
          -43 9 86 callgsubr
          35 61 -29 88 hhcurveto
          91 75 -4 callgsubr
          12 48 7 31 10 39 9 28 8 17 rrcurveto
          endchar
        </CharString>
        <CharString name="Uhorn">
          141 -16 32 callsubr
          83 callsubr
          hintmask 10111000
          -38 callsubr
          -20 -11 -12 -21 -5 vhcurveto
          hintmask 11011000
          -21 -5 -16 -3 -9 -2 rrcurveto
          -83 callgsubr
          endchar
        </CharString>
        <CharString name="Uhungarumlaut">
          34 callsubr
          766 50 callsubr
          526 871 rmoveto
          -49 -177 73 -20 63 167 rlineto
          -227 30 rmoveto
          -49 -177 73 -20 63 167 rlineto
          80 -216 rmoveto
          1 -21 -6 -40 -11 -59 -19 -107 -17 -84 -15 -60 -10 -41 -17 -34 -25 -27 rrcurveto
          -31 -30 -37 -16 -43 hhcurveto
          -71 -36 35 71 14 2 15 3 17 hvcurveto
          20 95 16 72 11 49 19 81 14 50 10 21 rrcurveto
          -154 hlineto
          1 -16 -1 -24 -5 -31 -13 -67 -12 -57 -10 -46 -25 -126 rcurveline
          -5 -26 -2 -24 -23 vvcurveto
          -43 9 86 callgsubr
          35 61 -29 88 hhcurveto
          91 75 -4 callgsubr
          12 48 7 31 10 39 9 28 8 17 rrcurveto
          endchar
        </CharString>
        <CharString name="Umacron">
          34 callsubr
          563 52 hstem
          86 131 vstem
          300 720 -9 callgsubr
          -54 -95 rmoveto
          1 -21 -6 -40 -11 -59 -19 -107 -17 -84 -15 -60 -10 -41 -17 -34 -25 -27 rrcurveto
          -31 -30 -37 -16 -43 hhcurveto
          -71 -36 35 71 14 2 15 3 17 hvcurveto
          20 95 16 72 11 49 19 81 14 50 10 21 rrcurveto
          -154 hlineto
          1 -16 -1 -24 -5 -31 -13 -67 -12 -57 -10 -46 -25 -126 rcurveline
          -5 -26 -2 -24 -23 vvcurveto
          -43 9 86 callgsubr
          35 61 -29 88 hhcurveto
          91 75 -4 callgsubr
          12 48 7 31 10 39 9 28 8 17 rrcurveto
          endchar
        </CharString>
        <CharString name="Uogonek">
          76 -201 -21 207 120 520 -20 hstem
          11 131 vstem
          478 625 rmoveto
          1 -21 -6 -40 -11 -59 -19 -107 -17 -84 -15 -60 -10 -41 -17 -34 -25 -27 rrcurveto
          -31 -30 -37 -16 -43 hhcurveto
          -71 -36 35 71 14 2 15 3 17 hvcurveto
          20 95 16 72 11 49 19 81 14 50 10 21 rrcurveto
          -154 hlineto
          1 -16 -1 -24 -5 -31 -13 -67 -12 -57 -10 -46 -25 -126 rcurveline
          -5 -26 -2 -24 -23 vvcurveto
          -43 9 -38 19 -33 vhcurveto
          31 -53 54 -28 77 -5 -27 -34 -16 -36 -3 -38 -3 -27 9 -23 19 -19 rrcurveto
          -20 19 25 -10 29 -42 callsubr
          13 29 15 24 18 19 56 11 49 26 42 39 46 43 31 64 17 85 27 136 rcurveline
          15 67 12 48 7 31 10 39 9 28 8 17 rrcurveto
          endchar
        </CharString>
        <CharString name="Upsilon">
          -10 79 callsubr
          478 -66 callgsubr
          endchar
        </CharString>
        <CharString name="Upsilondieresis">
          -10 21 -21 668 31 callgsubr
          419 106 hintmask 11010000
          460 668 -79 callsubr
          hintmask 10110000
          -76 callsubr
          145 -97 -100 callgsubr
          endchar
        </CharString>
        <CharString name="Upsilontonos">
          -10 21 -21 676 -20 hstem
          -82 676 rmoveto
          -49 -177 73 -20 63 167 rlineto
          473 -20 -100 callgsubr
          endchar
        </CharString>
        <CharString name="Uring">
          34 callsubr
          564 49 87 48 hstem
          86 131 148 189 vstem
          440 669 -36 callsubr
          50 -137 rmoveto
          1 -21 -6 -40 -11 -59 -19 -107 -17 -84 -15 -60 -10 -41 -17 -34 -25 -27 rrcurveto
          -31 -30 -37 -16 -43 hhcurveto
          -71 -36 35 71 14 2 15 3 17 hvcurveto
          20 95 16 72 11 49 19 81 14 50 10 21 rrcurveto
          -154 hlineto
          1 -16 -1 -24 -5 -31 -13 -67 -12 -57 -10 -46 -25 -126 rcurveline
          -5 -26 -2 -24 -23 vvcurveto
          -43 9 86 callgsubr
          35 61 -29 88 hhcurveto
          91 75 -4 callgsubr
          12 48 7 31 10 39 9 28 8 17 rrcurveto
          endchar
        </CharString>
        <CharString name="Utilde">
          34 callsubr
          561 55 callgsubr
          86 131 hintmask 11010000
          651 736 -55 callgsubr
          hintmask 10110000
          -77 callgsubr
          -98 -111 rmoveto
          1 -21 -6 -40 -11 -59 -19 -107 -17 -84 -15 -60 -10 -41 -17 -34 -25 -27 rrcurveto
          -31 -30 -37 -16 -43 hhcurveto
          -71 -36 35 71 14 2 15 3 17 hvcurveto
          20 95 16 72 11 49 19 81 14 50 10 21 rrcurveto
          -154 hlineto
          1 -16 -1 -24 -5 -31 -13 -67 -12 -57 -10 -46 -25 -126 rcurveline
          -5 -26 -2 -24 -23 vvcurveto
          -43 9 86 callgsubr
          35 61 -29 88 hhcurveto
          91 75 -4 callgsubr
          12 48 7 31 10 39 9 28 8 17 rrcurveto
          endchar
        </CharString>
        <CharString name="V">
          68 21 -21 625 -20 hstem
          519 625 rmoveto
          -246 -451 -44 277 -22 150 -1 24 rlinecurve
          -130 hlineto
          43 -243 34 -209 26 -173 rrcurveto
          113 hlineto
          225 381 126 209 26 35 rrcurveto
          endchar
        </CharString>
        <CharString name="W">
          377 79 callsubr
          818 626 -64 callsubr
          endchar
        </CharString>
        <CharString name="Wacute">
          377 21 -21 869 -20 hstem
          818 626 -64 callsubr
          -401 243 -92 callgsubr
          -80 30 -92 callgsubr
          endchar
        </CharString>
        <CharString name="Wcircumflex">
          377 21 -21 849 -20 hstem
          687 725 -100 callsubr
          188 -48 -64 callsubr
          endchar
        </CharString>
        <CharString name="Wdieresis">
          377 21 -21 665 31 callgsubr
          575 106 hintmask 11010000
          616 665 -79 callsubr
          hintmask 10110000
          -76 callsubr
          329 -94 -64 callsubr
          endchar
        </CharString>
        <CharString name="Wgrave">
          377 21 -21 874 -20 hstem
          411 844 4 callgsubr
          480 -248 rmoveto
          -27 -35 -119 -209 -212 -382 rrcurveto
          -113 hlineto
          -6 57 -13 112 -21 168 -188 -337 rcurveline
          -113 hlineto
          -11 103 -11 91 -10 79 -23 191 -17 118 -10 44 rrcurveto
          140 hlineto
          -24 13 -147 26 -270 vhcurveto
          224 441 rlineto
          67 hlineto
          9 -83 16 -147 25 -211 214 441 rcurveline
          endchar
        </CharString>
        <CharString name="X">
          140 79 callsubr
          557 -24 callsubr
        </CharString>
        <CharString name="Xi">
          16 -3 110 -110 138 362 129 -100 100 hstemhm
          hintmask 10100000
          609 626 rmoveto
          -3 -111 -85 -2 -59 hhcurveto
          -53 -1 -70 2 -89 3 -1 -3 -7 -22 -13 -40 -9 -29 -9 -21 -7 -13 rrcurveto
          85 hlineto
          6 12 6 8 6 3 rrcurveto
          hintmask 01010000
          4 6 29 2 52 hhcurveto
          78 hlineto
          -271 -203 rlineto
          -17 -3 -3 -9 -1 hhcurveto
          237 hlineto
          -309 -239 -5 -20 -4 -20 -3 -21 rlinecurve
          4 12 callgsubr
          63 hhcurveto
          53 1 68 -2 85 -4 3 10 7 23 9 37 8 32 7 22 7 13 rrcurveto
          -80 hlineto
          -7 -11 -6 -7 -6 -3 rrcurveto
          hintmask 10100000
          -5 -8 -29 -2 -51 hhcurveto
          -85 hlineto
          277 219 5 24 6 24 5 23 rlinecurve
          -193 hlineto
          252 166 14 63 rlineto
          endchar
        </CharString>
        <CharString name="Xi1.alt">
          41 0 102 -90 -21 533 102 7 -20 hstemhm
          hintmask 10010000
          588 515 rmoveto
          26 118 rlineto
          hintmask 10100000
          -5 -33 -78 -2 -124 hhcurveto
          hintmask 10010000
          -116 -73 2 5 -31 hvcurveto
          -26 -118 rlineto
          hintmask 01100000
          20 5 23 3 27 1 rrcurveto
          1 58 52 1 45 hhcurveto
          110 39 0 1 -33 hvcurveto
          53 -1 38 -4 23 -7 rrcurveto
          -151 -256 rmoveto
          -9 5 -44 3 -80 1 -39 -1 -44 -3 -49 -6 25 117 rcurveline
          7 -6 43 -4 77 -1 41 1 46 4 51 7 rrcurveto
          15 -385 rmoveto
          25 75 callgsubr
          -117 -73 2 5 -31 hvcurveto
          hintmask 01100000
          -25 -118 rlineto
          hintmask 10100000
          20 5 23 3 27 1 rrcurveto
          1 57 52 1 45 hhcurveto
          110 39 0 1 -32 hvcurveto
          hintmask 01100000
          52 -1 38 -4 24 -7 rrcurveto
          endchar
        </CharString>
        <CharString name="Xi2.alt">
          37 0 102 -90 -21 535 100 7 65 callsubr
          415 526 rmoveto
          93 -1 56 -4 22 -6 rrcurveto
          hintmask 10010000
          24 75 callgsubr
          hintmask 10010000
          -117 -74 2 5 -30 hvcurveto
          -24 -118 22 5 25 4 32 1 rlinecurve
          hintmask 10100000
          26 26 0 1 26 hvcurveto
          -5 -28 -10 -53 -17 -79 -37 3 -20 3 -5 3 -24 -117 rcurveline
          6 3 21 2 38 2 -16 -81 -13 -55 -6 -27 rrcurveto
          -70 -52 2 5 -32 hvcurveto
          hintmask 01100000
          -24 -118 21 5 25 4 28 1 rlinecurve
          72 hlineto
          hintmask 10100000
          -1 147 2 vlineto
          hintmask 01100000
          87 -1 54 -4 21 -6 24 118 rcurveline
          hintmask 10100000
          -5 -32 -58 -2 -85 hhcurveto
          4 26 12 55 18 84 45 -2 24 -3 6 -3 25 117 rcurveline
          -7 -4 -27 -3 -45 -3 15 79 12 54 7 27 rrcurveto
          endchar
        </CharString>
        <CharString name="Y">
          30 79 callsubr
          480 -66 callgsubr
          endchar
        </CharString>
        <CharString name="Yacute">
          30 21 -21 866 -20 hstem
          394 866 -92 callgsubr
          6 -210 -100 callgsubr
          endchar
        </CharString>
        <CharString name="Ycircumflex">
          30 21 -21 844 -20 hstem
          545 720 -100 callsubr
          -8 -43 -100 callgsubr
          endchar
        </CharString>
        <CharString name="Ydieresis">
          30 21 -21 669 31 callgsubr
          407 106 hintmask 11010000
          448 30 callgsubr
          hintmask 10110000
          -76 callsubr
          159 -98 -100 callgsubr
          endchar
        </CharString>
        <CharString name="Ygrave">
          30 21 -21 869 -20 hstem
          241 839 4 callgsubr
          309 -243 rmoveto
          -27 -24 -51 -54 -74 -85 -45 -51 -44 -51 -44 -51 -13 -61 -12 -60 -12 -61 -12 -61 -6 -42 1 -25 rrcurveto
          -151 hlineto
          12 25 13 43 13 61 13 61 14 62 13 61 -17 41 -29 67 -40 91 -31 65 -21 38 -13 11 rrcurveto
          160 hlineto
          -2 -5 -1 -6 -8 vvcurveto
          -19 6 -21 11 -23 vhcurveto
          63 -135 116 134 32 36 18 28 3 19 rlinecurve
          endchar
        </CharString>
        <CharString name="Z">
          47 2 callsubr
          3 -20 hstemhm
          hintmask 10010000
          640 -36 callgsubr
        </CharString>
        <CharString name="Zacute">
          47 2 callsubr
          247 -20 hstemhm
          hintmask 10010100
          640 625 -62 callsubr
          238 769 -92 callgsubr
          -80 30 -92 callgsubr
          endchar
        </CharString>
        <CharString name="Zcaron">
          47 2 callsubr
          230 -20 hstemhm
          hintmask 10010100
          575 855 -77 callsubr
          24 -170 -62 callsubr
          endchar
        </CharString>
        <CharString name="Zdotaccent">
          47 2 callsubr
          47 94 hstemhm
          hintmask 10010100
          454 721 -49 callsubr
          186 -96 -62 callsubr
          endchar
        </CharString>
        <CharString name="Zeta">
          37 2 callsubr
          3 -20 hstemhm
          hintmask 10010000
          630 -36 callgsubr
        </CharString>
        <CharString name="a">
          -9 -46 callsubr
          6 callgsubr
          hintmask 10111000
          537 397 -102 callgsubr
          hintmask 01111000
          -91 callsubr
          hintmask 10111000
          -86 callsubr
        </CharString>
        <CharString name="aacute">
          -9 -46 callsubr
          249 -20 6 callgsubr
          hintmask 10111100
          537 397 -102 callgsubr
          hintmask 01111100
          -91 callsubr
          hintmask 10111100
          -91 callgsubr
          5 428 -92 callgsubr
          -80 30 -92 callgsubr
          endchar
        </CharString>
        <CharString name="abreve">
          -9 -46 callsubr
          71 56 86 -20 6 callgsubr
          hintmask 10111110
          426 610 -95 callgsubr
          73 -174 -102 callgsubr
          hintmask 01111110
          -91 callsubr
          hintmask 10111110
          -86 callsubr
        </CharString>
        <CharString name="acircumflex">
          -9 -46 callsubr
          248 -20 6 callgsubr
          hintmask 10111100
          473 521 -100 callsubr
          121 -73 -102 callgsubr
          hintmask 01111100
          -91 callsubr
          hintmask 10111100
          -86 callsubr
        </CharString>
        <CharString name="acute">
          -397 470 38 callsubr
          141 646 -92 callgsubr
          -80 30 -92 callgsubr
          endchar
        </CharString>
        <CharString name="acutecomb">
          -358 466 38 callsubr
          99 76 callgsubr
          endchar
        </CharString>
        <CharString name="adieresis">
          -9 -46 callsubr
          68 31 callgsubr
          35 99 217 68 -68 106 hintmask 10110101
          392 465 -79 callsubr
          hintmask 10101110
          -76 callsubr
          272 -123 -102 callgsubr
          hintmask 01110110
          -91 callsubr
          hintmask 10110110
          -86 callsubr
        </CharString>
        <CharString name="ae">
          172 -11 71 -71 91 87 73 66 89 7 -20 hstemhm
          32 93 hintmask 10110100
          11 callsubr
          hintmask 01101100
          -43 callsubr
          hintmask 10110100
          36 callsubr
          28 callgsubr
          endchar
        </CharString>
        <CharString name="aeacute">
          194 -11 71 -71 91 87 73 66 89 252 -20 hstemhm
          32 93 hintmask 01111100
          11 callsubr
          -43 callsubr
          36 callsubr
          rrcurveto
          hintmask 10111100
          28 callgsubr
          146 472 -92 callgsubr
          -80 30 -92 callgsubr
          endchar
        </CharString>
        <CharString name="afii00208">
          497 210 52 hstem
          1051 262 rmoveto
          -1060 -52 1060 hlineto
          endchar
        </CharString>
        <CharString name="agrave">
          -9 -46 callsubr
          245 -20 6 callgsubr
          hintmask 10111100
          252 642 -69 callgsubr
          218 -71 -102 callgsubr
          hintmask 01111100
          -91 callsubr
          hintmask 10111100
          -86 callsubr
        </CharString>
        <CharString name="alpha">
          -13 -46 callsubr
          16 callsubr
          77 hintmask 10111000
          536 397 -101 callsubr
          hintmask 01111000
          -97 callsubr
          hintmask 10111000
          10 callsubr
        </CharString>
        <CharString name="alphatonos">
          -13 -46 callsubr
          247 7 callsubr
          hintmask 10111100
          329 644 rmoveto
          -49 -177 73 -20 63 167 rlineto
          120 -217 -101 callsubr
          hintmask 01111100
          -97 callsubr
          hintmask 10111100
          10 callsubr
        </CharString>
        <CharString name="amacron">
          -9 -46 callsubr
          70 52 6 callgsubr
          hintmask 10111100
          159 519 -9 callgsubr
          71 -122 -102 callgsubr
          hintmask 01111100
          -91 callsubr
          hintmask 10111100
          -86 callsubr
        </CharString>
        <CharString name="ampersand">
          79 21 -21 552 88 hstem
          490 288 rmoveto
          -5 -20 -4 -13 -5 -7 -7 -7 -6 -8 -6 -7 -70 125 rcurveline
          77 45 43 55 9 65 3 26 -6 26 -16 25 rrcurveto
          31 -21 -31 16 -43 hhcurveto
          -45 -41 -13 -27 -37 hvcurveto
          -37 -26 -22 -31 -7 -35 rrcurveto
          -3 -13 -1 -11 -10 vvcurveto
          -25 13 -34 26 -43 vhcurveto
          -99 -49 -60 -64 -19 -79 rrcurveto
          -3 -14 -2 -15 -15 vvcurveto
          -95 55 -50 109 -3 vhcurveto
          45 -1 38 4 31 11 28 9 30 18 33 25 32 -54 rcurveline
          119 hlineto
          -72 131 39 39 26 52 11 66 rlinecurve
          -169 224 rmoveto
          -37 -26 -30 -53 -23 vhcurveto
          -20 17 -8 27 4 38 rrcurveto
          21 1 30 27 36 hhcurveto
          24 12 -13 -27 hvcurveto
          -39 -374 rmoveto
          -36 -36 -42 -15 -47 7 -45 5 -35 33 7 49 7 50 35 38 62 27 rrcurveto
          endchar
        </CharString>
        <CharString name="anoteleia">
          -332 327 126 hstem
          45 127 vstem
          172 390 rmoveto
          35 -28 28 -35 -36 -28 -28 -35 -36 28 -27 36 35 28 28 35 vhcurveto
          endchar
        </CharString>
        <CharString name="aogonek">
          -29 -201 -21 214 94 -75 -21 312 95 hstemhm
          15 99 207 78 hintmask 11011100
          517 397 rmoveto
          -24 3 -24 -5 -25 -13 -29 -16 -21 -24 -12 -32 -11 29 -13 22 -17 13 -19 14 -29 8 -37 1 -60 2 -53 -19 -46 -40 -43 -37 -25 -45 -9 -51 rrcurveto
          -3 -18 -2 -17 -17 vvcurveto
          -48 12 -38 24 -29 vhcurveto
          -32 27 40 -16 52 hhcurveto
          72 53 27 54 35 hvcurveto
          1 -22 7 -18 15 -15 -8 1 rcurveline
          -41 -35 -24 -47 -5 -60 rrcurveto
          -55 -5 36 -44 57 -42 callsubr
          15 35 14 25 11 13 rrcurveto
          hintmask 10111100
          -1 7 8 -1 8 hhcurveto
          38 91 rlineto
          -45 1 -22 23 45 vvcurveto
          9 1 11 2 13 vhcurveto
          11 62 31 40 53 19 rrcurveto
          -176 -86 rmoveto
          -35 -13 -30 -27 -27 vhcurveto
          hintmask 11011100
          -86 callsubr
        </CharString>
        <CharString name="approxequal">
          271 154 48 -35 -21 75 47 50 47 19 48 10 -20 hstemhm
          hintmask 10110100
          734 442 rmoveto
          -51 -73 -61 -26 -49 hhcurveto
          -33 -46 11 22 -61 hvcurveto
          hintmask 10111000
          23 -60 -47 11 -33 hhcurveto
          -58 -62 -24 -47 -66 hvcurveto
          -53 vlineto
          43 27 30 18 16 7 rrcurveto
          16 33 33 8 31 hhcurveto
          33 46 -11 -22 60 hvcurveto
          -22 61 47 -11 33 hhcurveto
          53 61 23 46 69 hvcurveto
          hintmask 10110100
          -108 vmoveto
          -51 -76 -61 -26 -46 hhcurveto
          -33 -47 11 22 -60 hvcurveto
          22 -59 -46 11 -32 hhcurveto
          -59 -63 -23 -45 -67 hvcurveto
          hintmask 01111000
          -54 vlineto
          39 25 29 17 20 9 rrcurveto
          16 34 33 8 31 hhcurveto
          32 46 -11 -23 60 hvcurveto
          hintmask 10111000
          -22 60 46 -11 32 hhcurveto
          63 63 24 47 61 hvcurveto
          endchar
        </CharString>
        <CharString name="aring">
          -9 -46 callsubr
          74 49 87 48 hstemhm
          35 99 67 189 -49 78 hintmask 10111110
          276 471 37 callsubr
          -24 vhcurveto
          -23 -22 -12 -26 -29 vvcurveto
          -41 31 -32 44 vhcurveto
          63 93 rmoveto
          -24 -5 -24 -20 -24 hhcurveto
          -24 -15 20 24 5 hvcurveto
          24 5 24 19 24 hhcurveto
          24 15 -19 -24 -5 hvcurveto
          198 -167 -102 callgsubr
          hintmask 01111101
          -91 callsubr
          hintmask 10111101
          -86 callsubr
        </CharString>
        <CharString name="aringacute">
          -9 -46 callsubr
          71 49 87 48 219 -20 hstemhm
          35 99 67 188 -48 78 hintmask 1011111100000000
          275 468 37 callsubr
          -23 vhcurveto
          -23 -22 -12 -26 -29 vvcurveto
          -41 30 -32 44 vhcurveto
          63 93 rmoveto
          -24 -5 -24 -20 -24 hhcurveto
          -24 -15 20 24 5 hvcurveto
          24 5 24 19 24 hhcurveto
          24 15 -19 -24 -5 hvcurveto
          41 310 rmoveto
          -87 -177 69 -20 99 167 rlineto
          77 -444 -102 callgsubr
          hintmask 0111111010000000
          -91 callsubr
          hintmask 1011111010000000
          -86 callsubr
        </CharString>
        <CharString name="asciicircum">
          -49 265 -21 382 -20 hstem
          274 626 rmoveto
          -48 hlineto
          -177 -382 rlineto
          63 hlineto
          138 311 138 -311 rlineto
          62 hlineto
          endchar
        </CharString>
        <CharString name="asciitilde">
          -59 212 -21 153 -20 hstem
          435 313 rmoveto
          -10 5 -22 12 -26 14 -12 -43 -32 -37 -18 1 -10 1 -23 11 -33 23 -41 26 -33 15 -20 -1 -40 -2 -40 -39 -45 -76 69 -31 rcurveline
          20 45 18 24 13 1 6 1 21 -12 26 -15 rrcurveto
          -23 36 45 -22 22 hhcurveto
          47 43 38 72 40 hvcurveto
          endchar
        </CharString>
        <CharString name="asterisk">
          -27 267 -21 331 -20 hstem
          420 527 rmoveto
          -17 -15 -34 -21 -50 -26 12 55 11 37 11 20 rrcurveto
          -94 hlineto
          4 -17 -5 -38 -13 -59 -35 25 -23 19 -11 15 -64 -82 rcurveline
          18 -2 27 -13 37 -25 -41 -21 -32 -14 -23 -5 30 -81 rcurveline
          12 13 30 19 48 26 -11 -47 -10 -30 -9 -14 rrcurveto
          94 hlineto
          -2 21 3 30 8 39 41 -28 24 -21 7 -13 64 81 rcurveline
          -21 5 -28 15 -37 25 53 28 36 15 19 2 rrcurveto
          endchar
        </CharString>
        <CharString name="at">
          494 -263 109 128 86 -86 101 217 94 135 103 hstemhm
          53 115 79 96 203 105 244 110 hintmask 1101111110000000
          696 -23 rmoveto
          -2 13 13 -1 13 hhcurveto
          63 54 20 40 46 hvcurveto
          49 43 32 59 16 76 rrcurveto
          7 30 3 29 29 vvcurveto
          93 -31 76 -63 58 vhcurveto
          -65 62 -91 32 -116 3 -143 3 -127 -40 -109 -83 -105 -80 -66 -100 -25 -119 rrcurveto
          -7 -34 -4 -34 -33 vvcurveto
          -104 32 -85 63 -66 vhcurveto
          -75 71 99 -37 129 hhcurveto
          2 -2 9 37 16 75 rrcurveto
          -1 -12 -12 0 -11 hhcurveto
          -88 -68 26 51 -49 hvcurveto
          -44 46 -22 60 73 vvcurveto
          115 46 99 91 83 vhcurveto
          81 89 103 41 117 hhcurveto
          93 71 -22 -43 49 hvcurveto
          45 -40 23 -54 -67 vvcurveto
          -19 -2 -19 -4 -20 vhcurveto
          -11 -57 -19 -45 -29 -31 rrcurveto
          -29 -26 -30 -15 -34 hhcurveto
          -55 -34 32 55 31 9 31 18 31 hvcurveto
          19 32 23 22 27 13 8 91 rcurveline
          -31 -6 -28 -14 -27 -23 -23 -21 -17 -22 -10 -25 rrcurveto
          57 -5 -46 42 -75 hhcurveto
          -59 -53 -20 -41 -47 hvcurveto
          -43 -37 -27 -44 -11 -51 rrcurveto
          -4 -17 -2 -17 -17 vvcurveto
          -47 13 -38 27 -29 vhcurveto
          -31 29 40 -16 51 hhcurveto
          69 72 39 59 25 hvcurveto
          9 -58 41 -34 73 -10 rrcurveto
          -150 230 rmoveto
          -33 -13 -30 -27 -28 vhcurveto
          hintmask 1011111110000000
          -27 -26 -29 -14 -33 hhcurveto
          -47 -28 34 49 9 1 10 2 11 hvcurveto
          6 28 15 24 23 21 rrcurveto
          21 24 24 10 24 hhcurveto
          48 36 -37 -48 hvcurveto
          endchar
        </CharString>
        <CharString name="atilde">
          -9 -46 callsubr
          73 66 -66 115 6 callgsubr
          hintmask 10110110
          519 540 -55 callgsubr
          hintmask 10101110
          -77 callgsubr
          18 -143 -102 callgsubr
          hintmask 01110110
          -91 callsubr
          hintmask 10110110
          -86 callsubr
        </CharString>
        <CharString name="b">
          -99 -8 92 -63 -21 304 89 232 -20 hstemhm
          349 96 hintmask 01111000
          438 185 rmoveto
          5 23 2 21 19 vvcurveto
          45 -13 35 -25 25 vhcurveto
          27 -27 -40 13 -51 hhcurveto
          -35 -32 -9 -19 -28 hvcurveto
          6 23 11 44 11 46 10 48 rlinecurve
          8 39 8 33 7 27 rrcurveto
          -104 hlineto
          -3 -27 -4 -30 -7 -34 -4 -22 -10 -49 -17 -76 -45 -207 -28 -129 -13 -51 rrcurveto
          41 hlineto
          42 21 13 -11 8 -6 5 -3 rlinecurve
          hintmask 10111000
          -6 14 22 -3 29 hhcurveto
          59 51 16 31 42 hvcurveto
          46 34 31 49 15 63 rrcurveto
          -92 9 rmoveto
          -67 -16 -52 -43 -59 hhcurveto
          -35 -25 12 23 -16 hvcurveto
          13 56 10 50 9 43 rrcurveto
          24 27 30 12 34 hhcurveto
          51 32 1 callgsubr
          endchar
        </CharString>
        <CharString name="backslash">
          -231 11 -21 642 -20 hstem
          286 -10 rmoveto
          -182 642 rlineto
          -105 hlineto
          182 -642 rlineto
          endchar
        </CharString>
        <CharString name="bar">
          -326 -207 -21 851 -20 hstem
          166 623 rmoveto
          38 callgsubr
          endchar
        </CharString>
        <CharString name="beta">
          -57 -185 -21 220 -21 533 89 hstemhm
          356 100 -82 99 hintmask 11101000
          471 192 rmoveto
          1 9 1 9 9 vvcurveto
          39 -11 31 -23 23 vhcurveto
          -21 21 -26 11 -32 1 49 29 30 38 12 47 rrcurveto
          hintmask 11110000
          3 13 2 13 13 vvcurveto
          71 -54 47 -81 -1 vhcurveto
          -42 -1 -37 -9 -32 -18 -37 -21 -26 -31 -15 -42 -29 -113 -23 -94 -15 -74 -57 -265 -30 -140 -3 -13 rrcurveto
          104 hlineto
          16 87 17 84 17 80 rrcurveto
          -48 39 34 -4 49 hhcurveto
          57 49 19 37 41 hvcurveto
          41 37 25 48 7 58 rrcurveto
          hintmask 11101000
          -97 23 rmoveto
          -35 -13 -30 -25 -27 vhcurveto
          -25 -26 -30 -12 -35 3 -26 2 -22 11 -17 19 -13 15 -8 17 -3 19 21 108 19 83 15 58 9 33 9 23 11 15 15 21 22 12 29 2 rrcurveto
          hintmask 11110000
          33 2 16 -15 -32 vvcurveto
          -7 -1 -8 -2 -9 vhcurveto
          -12 -51 -35 -32 -59 -13 -19 -91 rcurveline
          11 26 25 6 24 hhcurveto
          7 8 -1 -1 7 hvcurveto
          hintmask 11101000
          28 -4 21 -29 -37 vvcurveto
          endchar
        </CharString>
        <CharString name="braceleft">
          -139 -229 100 658 100 hstemhm
          71 120 -79 118 hintmask 11010000
          375 629 rmoveto
          -29 -33 -11 -21 -35 hvcurveto
          -42 -25 -25 -29 -7 -35 -34 -160 rcurveline
          -68 -15 -42 -50 -44 hhcurveto
          -12 -57 rlineto
          37 18 -26 -53 -13 -2 -14 -3 -15 hvcurveto
          -34 -159 rlineto
          hintmask 11100000
          -1 -6 -1 -6 -6 vvcurveto
          -30 15 -25 30 -21 vhcurveto
          -19 25 26 -9 25 hhcurveto
          55 hlineto
          22 101 -46 -2 rlineto
          -21 -1 -11 13 25 vvcurveto
          9 2 12 3 14 vhcurveto
          28 124 rlineto
          hintmask 11010000
          4 17 2 15 15 vvcurveto
          27 -6 22 -13 17 vhcurveto
          -9 12 -10 7 -11 2 -9 2 rcurveline
          17 5 18 11 19 17 28 26 18 33 9 40 25 117 rcurveline
          52 11 20 26 29 hhcurveto
          42 hlineto
          22 100 rlineto
          endchar
        </CharString>
        <CharString name="braceright">
          -139 -229 101 657 100 hstemhm
          213 117 -83 124 hintmask 11100000
          386 230 rmoveto
          -37 -19 26 52 13 2 13 3 14 hvcurveto
          34 160 rlineto
          hintmask 11010000
          1 6 1 6 6 vvcurveto
          30 -15 25 -30 21 vhcurveto
          18 -25 -26 9 -26 hhcurveto
          -55 hlineto
          -21 -100 rlineto
          42 hlineto
          21 11 -14 -27 -11 -2 -12 -3 -14 hvcurveto
          -24 -117 rlineto
          hintmask 11100000
          -3 -13 -2 -12 -12 vvcurveto
          -28 8 -23 16 -19 vhcurveto
          11 -13 11 -9 12 -3 -11 -2 rcurveline
          -15 -3 -16 -10 -17 -18 -25 -26 -17 -34 -9 -43 -25 -116 rcurveline
          -52 -11 -21 -26 -29 hhcurveto
          -42 hlineto
          -21 -101 rlineto
          55 hlineto
          29 32 11 22 36 hvcurveto
          42 25 25 29 7 35 34 159 rcurveline
          71 15 42 50 44 hhcurveto
          13 57 rlineto
          endchar
        </CharString>
        <CharString name="bracketleft">
          -57 -227 104 680 95 hstem
          188 652 rmoveto
          -187 -879 rlineto
          292 hlineto
          23 104 rlineto
          -175 hlineto
          144 680 rlineto
          174 hlineto
          21 95 rlineto
          endchar
        </CharString>
        <CharString name="bracketright">
          -57 -227 104 680 95 hstem
          216 652 rmoveto
          -19 -95 rlineto
          174 hlineto
          -145 -680 rlineto
          -175 hlineto
          -22 -104 rlineto
          292 hlineto
          187 879 rlineto
          endchar
        </CharString>
        <CharString name="breve">
          -142 465 56 86 -20 hstem
          310 607 -95 callgsubr
          endchar
        </CharString>
        <CharString name="brokenbar">
          -310 5 -21 702 -20 hstem
          90 59 vstem
          149 686 rmoveto
          -59 -294 59 hlineto
          -114 vmoveto
          -59 -294 59 hlineto
          endchar
        </CharString>
        <CharString name="bullet">
          45 190 -21 337 -20 hstem
          466 337 rmoveto
          46 -17 40 -33 33 vhcurveto
          33 -33 -40 17 -46 hhcurveto
          -46 -40 -17 -33 -33 hvcurveto
          -33 -33 -17 -40 -46 vvcurveto
          -46 17 -40 33 -33 vhcurveto
          -33 33 40 -16 46 hhcurveto
          46 40 16 33 33 hvcurveto
          33 33 17 40 46 vvcurveto
          endchar
        </CharString>
        <CharString name="c">
          84 callgsubr
          hstemhm
          35 93 hintmask 10100000
          371 385 -68 callsubr
          hintmask 01100000
          0 callgsubr
          37 93 rlineto
          endchar
        </CharString>
        <CharString name="cacute">
          84 callgsubr
          340 -20 hstemhm
          35 93 hintmask 10110000
          371 385 -68 callsubr
          hintmask 01110000
          0 callgsubr
          -60 353 -92 callgsubr
          endchar
        </CharString>
        <CharString name="caron">
          -168 487 -21 181 -20 hstem
          328 647 -77 callsubr
          endchar
        </CharString>
        <CharString name="ccaron">
          84 callgsubr
          338 -20 hstemhm
          35 93 hintmask 10110000
          433 643 -77 callsubr
          -103 -198 -68 callsubr
          hintmask 01110000
          0 callgsubr
          endchar
        </CharString>
        <CharString name="ccedilla">
          -163 -193 77 200 221 hstem
          46 93 vstem
          217 -6 rmoveto
          23 1 20 3 18 5 10 3 14 6 18 7 -10 85 rcurveline
          -13 -29 -29 -7 -27 hhcurveto
          -52 -34 38 51 38 13 31 27 25 hvcurveto
          0 callgsubr
          37 93 -37 10 -37 3 -38 -4 rlinecurve
          -57 -6 -47 -19 -39 -31 -41 -34 -26 -44 -10 -53 rrcurveto
          -3 -17 -1 -16 -15 vvcurveto
          -79 31 -52 61 -24 vhcurveto
          -35 -27 -12 -17 -38 callgsubr
          20 callsubr
          16 23 rlineto
          endchar
        </CharString>
        <CharString name="ccircumflex">
          -128 -6 90 0 221 341 -20 hstemhm
          35 93 hintmask 10110000
          371 385 -68 callsubr
          hintmask 01110000
          0 callgsubr
          83 230 -100 callsubr
          endchar
        </CharString>
        <CharString name="cdotaccent">
          -174 -6 90 221 250 -94 94 hstemhm
          35 93 hintmask 11010000
          371 385 -68 callsubr
          0 callgsubr
          -9 218 rmoveto
          24 5 -14 21 -27 hhcurveto
          -32 -26 -27 -32 hvcurveto
          hintmask 10110000
          -23 13 -12 25 31 18 16 33 7 vhcurveto
          endchar
        </CharString>
        <CharString name="cedilla">
          -148 -193 77 -77 204 1 -20 hstemhm
          hintmask 01000000
          265 -137 rmoveto
          20 callsubr
          28 40 rlineto
          hintmask 10100000
          -86 1 rlineto
          -40 -30 -14 -20 -38 callgsubr
          endchar
        </CharString>
        <CharString name="cedillacomb">
          -322 -193 77 116 -20 hstem
          111 hmoveto
          1 -36 -48 -38 callgsubr
          20 callsubr
          20 29 rlineto
          0 -87 0 0 vhcurveto
          endchar
        </CharString>
        <CharString name="cent">
          -135 608 -20 hstem
          37 92 vstem
          184 200 rmoveto
          -18 1 -14 9 -10 17 rrcurveto
          -9 15 -4 18 21 vvcurveto
          53 31 50 48 20 vhcurveto
          164 91 rmoveto
          -37 11 -40 3 -42 -5 12 104 rcurveline
          -33 hlineto
          -13 -110 -105 -26 -60 -59 -14 -91 rlinecurve
          -2 -15 -1 -14 -15 vvcurveto
          -47 11 -38 21 -31 vhcurveto
          25 -34 34 -19 44 -4 -13 -105 rcurveline
          1 -3 11 0 21 3 13 104 rcurveline
          23 1 21 4 18 5 11 3 14 5 18 7 -10 85 rcurveline
          -13 -29 -28 -7 -27 hhcurveto
          26 220 31 5 31 -4 31 -13 rlinecurve
          endchar
        </CharString>
        <CharString name="ch202">
          -299 endchar
        </CharString>
        <CharString name="chi">
          -65 -162 -21 582 -20 hstem
          395 399 rmoveto
          -63 -83 -49 -62 -34 -42 -11 35 -11 34 -11 35 -11 35 -12 22 -13 7 -21 12 -39 3 -55 -5 -19 -97 rcurveline
          32 4 23 -2 14 -8 5 -3 6 -11 7 -19 14 -41 14 -42 15 -41 -105 -127 -76 -89 -47 -52 29 -17 29 -15 28 -13 80 97 59 71 37 43 18 -81 10 -45 3 -7 rrcurveto
          10 -32 15 -21 20 -10 rrcurveto
          -7 13 23 -4 33 hhcurveto
          31 -1 18 2 5 4 17 82 rcurveline
          -5 -25 -14 -3 -5 hhcurveto
          -10 -10 3 5 -10 hvcurveto
          -10 5 -12 25 -14 47 -11 42 -12 42 -12 41 97 122 69 85 41 47 rrcurveto
          endchar
        </CharString>
        <CharString name="circumflex">
          -27 486 -21 185 -20 hstem
          437 526 rmoveto
          -50 41 -51 42 -51 41 -204 -124 rcurveline
          36 -61 71 42 54 32 37 21 rlinecurve
          42 -37 34 -28 25 -20 57 51 rcurveline
          endchar
        </CharString>
        <CharString name="colon">
          -260 -10 135 136 135 hstemhm
          56 138 -81 138 hintmask 11010000
          168 261 rmoveto
          57 callgsubr
          -21 -20 25 callsubr
          -18 -21 vvcurveto
          -31 24 -23 31 vhcurveto
          -58 -271 rmoveto
          21 20 8 17 17 hvcurveto
          hintmask 11100000
          61 callgsubr
          -32 -21 -19 25 callsubr
          -18 -21 vvcurveto
          -31 23 -23 31 vhcurveto
          endchar
        </CharString>
        <CharString name="colonmonetary">
          13 -47 -21 71 -21 660 -20 68 -20 hstem
          20 138 vstem
          196 150 rmoveto
          -25 26 -13 35 44 vvcurveto
          17 2 17 4 19 vhcurveto
          15 72 34 56 52 39 rrcurveto
          52 29 rmoveto
          19 7 20 4 19 1 -86 -404 rcurveline
          -19 -18 3 7 -16 hvcurveto
          75 568 rmoveto
          -13 -61 -140 -37 -101 -114 -29 -155 rlinecurve
          -5 -26 -3 -26 -25 vvcurveto
          -57 12 -51 24 -43 vhcurveto
          25 -47 36 -32 47 -18 -15 -66 rcurveline
          46 hlineto
          12 54 7 -1 rlineto
          -2 13 16 -1 19 hhcurveto
          -11 -50 rlineto
          46 hlineto
          11 54 19 2 17 3 15 4 rlinecurve
          39 10 29 4 19 -3 19 66 17 56 15 47 -84 -1 rcurveline
          -8 -17 -8 -13 -9 -7 -13 -11 -17 -7 -22 -3 84 396 rcurveline
          20 -5 14 -7 9 -10 3 -4 1 -5 1 -6 rrcurveto
          -21 82 vlineto
          9 90 7 54 4 18 -15 -3 -28 3 -39 10 -18 5 -14 3 -9 3 11 53 rcurveline
          -46 hlineto
          -10 -48 rlineto
          -1 hlineto
          -19 -18 -1 -3 -18 hvcurveto
          11 52 rlineto
          endchar
        </CharString>
        <CharString name="comma">
          -343 -100 -21 142 -21 67 -20 hstem
          76 67 29 callgsubr
        </CharString>
        <CharString name="commaaccent">
          -369 -281 -21 188 -20 hstem
          62 -114 29 callgsubr
        </CharString>
        <CharString name="congruent">
          -49 152 55 74 55 87 57 5 57 13 -20 hstemhm
          hintmask 11101000
          452 555 rmoveto
          -50 -28 -33 -25 -37 hhcurveto
          -17 -33 10 21 -49 hvcurveto
          hintmask 11110000
          21 -49 -36 10 -23 hhcurveto
          -28 -26 -11 -23 -24 hvcurveto
          -15 -13 -17 -23 -21 -33 33 -35 rcurveline
          17 27 14 18 10 9 rrcurveto
          18 18 20 9 21 hhcurveto
          13 23 -6 -13 31 hvcurveto
          -29 74 47 -14 19 hhcurveto
          50 43 33 65 35 hvcurveto
          hintmask 11101000
          1 -185 rmoveto
          -470 -55 470 hlineto
          -74 vmoveto
          -470 -55 470 hlineto
          endchar
        </CharString>
        <CharString name="copyright">
          199 -17 57 -57 188 327 52 84 58 hstemhm
          19 58 119 61 414 58 hintmask 01111110
          449 208 rmoveto
          -4 -13 -3 -8 -3 -4 rrcurveto
          1 vlineto
          -9 -8 -16 -4 -24 hhcurveto
          -39 -33 17 33 -26 hvcurveto
          -25 31 -11 36 42 vvcurveto
          45 11 40 22 30 vhcurveto
          24 33 32 19 40 1 24 1 20 -5 8 -8 4 -8 1 -8 2 -10 rrcurveto
          46 hlineto
          -4 33 -2 24 17 vvcurveto
          -6 -13 2 5 -21 hvcurveto
          6 -27 -20 3 -10 hhcurveto
          -58 -50 -24 -42 -35 hvcurveto
          -31 -40 -18 -53 -60 vvcurveto
          -50 15 -46 28 -40 vhcurveto
          -1 hlineto
          29 -42 40 -24 50 -10 45 -2 rcurveline
          25 3 14 3 8 2 17 4 10 3 13 -3 rrcurveto
          19 2 25 4 35 vhcurveto
          176 129 rmoveto
          -81 -29 -70 -59 -59 vhcurveto
          hintmask 10111110
          -25 callgsubr
        </CharString>
        <CharString name="currency">
          -49 112 45 -35 -21 392 47 11 -20 hstemhm
          34 58 318 56 hintmask 10011100
          466 326 rmoveto
          51 -15 44 -31 37 vhcurveto
          45 45 -8 7 -8 8 -8 7 rlinecurve
          -17 17 -9 8 1 1 -41 -51 rcurveline
          hintmask 10101100
          -38 28 -42 13 -45 -1 -48 -1 -42 -13 -35 -26 rrcurveto
          hintmask 01011100
          -41 51 1 -1 -9 -8 -17 -16 rlinecurve
          -15 -14 -8 -8 -1 -1 45 -45 rcurveline
          -31 -37 -15 -44 -51 vvcurveto
          -51 15 -44 31 -37 vhcurveto
          -45 -45 -1 -1 7 -9 17 -16 rlinecurve
          9 -7 8 -8 9 -7 41 51 rcurveline
          hintmask 10101100
          -27 37 41 -13 47 hhcurveto
          46 42 13 27 37 hvcurveto
          hintmask 01101100
          41 -51 3 2 8 8 14 13 rlinecurve
          17 15 8 9 -1 1 -45 45 rcurveline
          31 37 15 44 51 vvcurveto
          -56 -1 rmoveto
          -47 -16 -39 -32 -33 vhcurveto
          hintmask 10101100
          -33 -32 -37 -16 -42 hhcurveto
          -43 -37 16 32 -32 hvcurveto
          -31 33 -16 40 47 vvcurveto
          46 16 39 31 33 vhcurveto
          33 32 37 17 43 hhcurveto
          42 37 -17 -33 32 hvcurveto
          32 -33 16 -39 -46 vvcurveto
          endchar
        </CharString>
        <CharString name="d">
          -61 82 callsubr
          232 -20 hstemhm
          35 94 hintmask 10111000
          411 -34 callsubr
          endchar
        </CharString>
        <CharString name="dagger">
          -7 -207 -21 601 82 176 -20 hstem
          514 470 rmoveto
          -18 -7 -19 -5 -21 -1 -11 -1 -39 0 -69 -1 13 61 8 38 4 13 5 17 8 19 11 21 rrcurveto
          5 -9 -20 2 -30 hhcurveto
          -30 -20 -2 -5 -11 hvcurveto
          2 -10 1 -9 -8 vvcurveto
          -11 -9 -47 -17 -83 vhcurveto
          -69 -39 0 1 -10 hvcurveto
          -21 1 -17 5 -15 7 -7 -12 -7 -18 -5 -23 -5 -23 -1 -19 3 -14 23 7 21 4 18 1 10 1 38 0 67 -1 -108 -500 rcurveline
          27 -101 67 101 59 273 36 167 13 60 rlinecurve
          66 1 38 0 10 -1 17 -1 19 -4 21 -7 9 23 6 19 3 14 5 25 2 17 -3 11 rrcurveto
          endchar
        </CharString>
        <CharString name="daggerdbl">
          -56 -208 -21 185 74 345 74 185 -20 hstem
          216 30 rmoveto
          -1 -32 -10 1 -18 hhcurveto
          -15 -10 0 1 -5 hvcurveto
          -19 1 -22 6 -27 9 -11 -20 -8 -17 -3 -15 -2 -11 0 -21 7 -27 27 11 25 7 18 1 rrcurveto
          1 10 28 0 52 hhcurveto
          -8 -39 -6 -21 -7 -39 1 2 rcurveline
          -7 -24 -11 -24 -16 -23 rrcurveto
          -12 21 19 -5 21 hhcurveto
          17 19 4 10 23 hvcurveto
          -4 27 0 23 4 20 2 13 8 41 10 48 rrcurveto
          22 5 -1 16 hhcurveto
          29 17 0 -1 6 hvcurveto
          21 -1 19 -6 20 -9 15 20 5 15 4 14 3 15 -2 20 -7 24 -30 -9 -25 -6 -20 -1 rrcurveto
          -1 -5 -9 0 -15 hhcurveto
          -16 -12 -1 1 -26 hvcurveto
          25 121 22 104 25 120 rrcurveto
          1 31 11 -1 18 hhcurveto
          15 9 0 -1 5 hvcurveto
          20 -1 22 -5 25 -8 14 20 7 16 3 14 rrcurveto
          -1 hlineto
          3 14 -2 19 -7 25 -26 -11 -24 -6 -20 -1 rrcurveto
          -1 -6 -17 0 -29 -9 -15 -1 -11 hhcurveto
          5 23 -1 -1 4 16 rrcurveto
          6 34 5 23 0 vvcurveto
          6 22 11 25 14 28 rrcurveto
          12 -21 -18 4 -20 hhcurveto
          -17 -19 -3 -11 -23 hvcurveto
          3 -12 2 -14 -11 vvcurveto
          -7 -1 -11 -2 -11 vhcurveto
          -6 -35 -9 -36 -7 -34 rrcurveto
          -54 -32 0 1 -10 hvcurveto
          -18 1 -21 6 -21 10 -12 -21 -8 -17 -2 -11 -2 -13 0 -15 7 -31 31 8 24 6 20 1 rrcurveto
          1 5 10 0 15 hhcurveto
          16 12 1 -1 25 hvcurveto
          endchar
        </CharString>
        <CharString name="dcaron">
          71 82 callsubr
          299 -20 hstemhm
          18 94 hintmask 10111000
          394 -34 callsubr
          298 424 -92 callgsubr
          endchar
        </CharString>
        <CharString name="dcroat">
          -51 82 callsubr
          52 75 -75 180 hstemhm
          16 96 hintmask 10110100
          470 520 rmoveto
          hintmask 10101100
          9 41 10 35 10 29 rrcurveto
          -105 hlineto
          hintmask 10110100
          -5 -38 -6 -35 -7 -32 rrcurveto
          -151 hlineto
          -14 -75 rlineto
          150 hlineto
          -12 -57 -6 -28 rlineto
          22 -22 -27 11 -32 hhcurveto
          -125 -96 -72 -116 -21 hvcurveto
          -3 -17 -1 -16 -15 vvcurveto
          -101 64 -67 103 4 vhcurveto
          44 1 35 12 26 23 rrcurveto
          hintmask 01110100
          6 -29 rlineto
          70 hlineto
          33 172 26 129 19 86 12 58 rcurveline
          73 hlineto
          13 75 rlineto
          -218 -252 rmoveto
          -13 -62 -10 -50 -8 -37 rrcurveto
          hintmask 10110100
          -25 -27 -30 -12 -33 hhcurveto
          -52 -37 28 52 9 1 11 3 11 hvcurveto
          65 15 55 46 61 hhcurveto
          34 25 -12 -24 16 hvcurveto
          endchar
        </CharString>
        <CharString name="degree">
          -201 382 35 188 35 hstem
          40 56 156 56 vstem
          308 511 rmoveto
          38 -13 31 -26 24 vhcurveto
          24 -26 -32 12 -37 hhcurveto
          -37 -32 -12 -24 -26 hvcurveto
          -26 -24 -13 -31 -38 vvcurveto
          -39 13 -32 27 -24 vhcurveto
          -23 25 31 -11 38 hhcurveto
          76 58 50 79 hvcurveto
          -56 hmoveto
          -56 -33 -38 -45 -45 -33 38 56 56 33 38 45 45 33 -38 -56 vhcurveto
          endchar
        </CharString>
        <CharString name="delta">
          -106 -7 94 442 80 hstem
          24 93 3 94 102 93 vstem
          465 543 rmoveto
          -13 9 -12 8 -13 9 -25 15 -26 10 -28 7 rrcurveto
          5 -21 -21 3 -21 hhcurveto
          -37 -32 -7 -15 -27 hvcurveto
          -36 -19 -22 -29 -8 -37 rrcurveto
          -2 -7 -1 -8 -7 vvcurveto
          -40 30 -41 59 -41 vhcurveto
          -41 -3 -38 -16 -35 -30 -34 -29 -22 -35 -9 -41 rrcurveto
          -4 -19 -2 -19 -17 vvcurveto
          -93 57 -63 97 63 55 21 43 45 vhcurveto
          45 43 23 52 63 vvcurveto
          63 -21 50 -41 36 vhcurveto
          -3 3 -24 17 -45 30 -32 21 -19 18 -6 15 rrcurveto
          -3 6 -1 6 6 vvcurveto
          27 21 15 42 1 vhcurveto
          26 1 25 -6 23 -12 17 -9 25 -18 32 -25 rrcurveto
          -109 -248 rmoveto
          -31 -12 -28 -25 -27 vhcurveto
          -26 -24 -27 -13 -30 hhcurveto
          -54 -27 25 49 10 1 10 3 11 hvcurveto
          7 29 17 27 28 23 rrcurveto
          24 28 26 12 25 hhcurveto
          37 -12 27 -42 -41 vvcurveto
          endchar
        </CharString>
        <CharString name="delta.alt">
          -78 0 88 -74 -21 408 115 hstemhm
          hintmask 01100000
          405 394 rmoveto
          -13 85 -42 41 -72 -4 -66 -3 -52 -39 -38 -74 66 -63 rcurveline
          43 30 24 21 19 hhcurveto
          20 13 -5 -10 7 hvcurveto
          5 -7 3 -15 -21 vvcurveto
          -187 -256 -14 -5 -24 1 -34 9 rlinecurve
          -21 -99 rlineto
          hintmask 10100000
          5 32 37 2 41 hhcurveto
          323 hlineto
          -218 88 rmoveto
          83 135 9 -135 rlineto
          endchar
        </CharString>
        <CharString name="dieresis">
          -312 469 31 callgsubr
          211 106 hintmask 10100000
          252 469 -79 callsubr
          hintmask 01100000
          -76 callsubr
          endchar
        </CharString>
        <CharString name="dieresistonos">
          -171 465 -21 21 106 65 -20 hstemhm
          260 106 hintmask 01110000
          301 465 rmoveto
          32 33 31 32 24 -18 19 -25 -31 -32 -32 -32 -23 17 -19 24 hvcurveto
          -114 171 rmoveto
          -44 -174 rlineto
          hintmask 10110000
          50 callgsubr
          -140 -94 -71 callgsubr
          endchar
        </CharString>
        <CharString name="divide">
          45 10 113 105 55 105 114 hstem
          241 114 vstem
          355 444 rmoveto
          31 -27 27 -31 -29 -27 -27 -31 -29 27 -27 29 31 27 25 31 vhcurveto
          188 -161 rmoveto
          -494 -55 494 hlineto
          -188 -161 rmoveto
          29 -27 27 -31 -29 -27 -27 -29 -31 27 -26 29 32 26 25 32 vhcurveto
          endchar
        </CharString>
        <CharString name="dollar">
          76 -102 -21 851 -20 hstem
          140 131 121 139 vstem
          580 614 rmoveto
          -15 -3 -21 3 -27 8 -37 11 -27 7 -19 2 19 86 rcurveline
          -70 hlineto
          -19 -89 -125 -17 -73 -65 -22 -111 rlinecurve
          -3 -11 -1 -11 -9 vvcurveto
          -36 15 -30 30 -24 vhcurveto
          19 -16 34 -18 48 -19 -35 -164 rcurveline
          -39 7 -29 13 -19 19 -13 13 -6 15 1 18 rrcurveto
          -70 hlineto
          -35 -164 6 1 15 -2 23 -6 rlinecurve
          18 -6 18 -6 19 -5 33 -10 28 -7 24 -3 -23 -108 rcurveline
          70 hlineto
          23 107 108 9 89 63 29 91 rlinecurve
          7 19 3 19 19 vvcurveto
          78 -51 56 -103 34 vhcurveto
          34 158 19 -2 15 -5 9 -7 rlinecurve
          11 -11 16 -6 -1 -40 rrcurveto
          68 hlineto
          -236 -64 rmoveto
          -27 15 -14 18 23 vvcurveto
          13 5 13 10 15 vhcurveto
          12 17 18 12 24 6 rrcurveto
          46 -370 rmoveto
          -13 -29 -22 -17 -31 -6 30 138 rcurveline
          28 -18 14 -21 -23 vvcurveto
          -8 -2 -8 -4 -8 vhcurveto
          endchar
        </CharString>
        <CharString name="dotaccent">
          -189 483 94 hstem
          227 532 -49 callsubr
          endchar
        </CharString>
        <CharString name="dotbelowcomb">
          -419 -164 106 hstem
          12 106 vstem
          118 -111 -76 callgsubr
          endchar
        </CharString>
        <CharString name="dotlessi">
          -309 214 378 rmoveto
          -89 callgsubr
          endchar
        </CharString>
        <CharString name="e">
          -1 callgsubr
          -26 callgsubr
          endchar
        </CharString>
        <CharString name="eacute">
          -1 callgsubr
          250 -20 -26 callgsubr
          1 405 -92 callgsubr
          -80 30 -92 callgsubr
          endchar
        </CharString>
        <CharString name="ebreve">
          -1 callgsubr
          70 56 86 85 callsubr
          406 608 -95 callgsubr
          -23 -402 -98 callsubr
          endchar
        </CharString>
        <CharString name="ecaron">
          -1 callgsubr
          248 85 callsubr
          406 644 -77 callsubr
          -26 -417 -98 callsubr
          endchar
        </CharString>
        <CharString name="ecircumflex">
          -1 callgsubr
          249 85 callsubr
          452 521 -100 callsubr
          26 -303 -98 callsubr
          endchar
        </CharString>
        <CharString name="edieresis">
          -1 callgsubr
          67 31 callgsubr
          35 100 198 99 hintmask 11110110
          374 463 -79 callsubr
          hintmask 11101110
          -76 callsubr
          174 -351 -98 callsubr
          endchar
        </CharString>
        <CharString name="edotaccent">
          -1 callgsubr
          67 94 hstem
          35 100 114 183 vstem
          343 512 -49 callsubr
          78 -345 -98 callsubr
          endchar
        </CharString>
        <CharString name="egrave">
          -1 callgsubr
          243 85 callsubr
          236 639 -69 callgsubr
          118 -298 -98 callsubr
          endchar
        </CharString>
        <CharString name="eight">
          35 -17 102 461 97 hstemhm
          38 122 -21 110 133 115 -73 115 hintmask 11100100
          537 491 rmoveto
          1 9 1 8 8 vvcurveto
          hintmask 11011000
          38 -14 30 -28 23 vhcurveto
          24 -30 -42 12 -54 hhcurveto
          -53 -47 -11 -21 -40 hvcurveto
          -47 -25 -28 -37 -11 -48 rrcurveto
          -4 -17 -2 -16 -14 vvcurveto
          -51 24 -34 49 -19 vhcurveto
          -40 -1 -37 -16 -33 -33 -31 -30 -19 -35 -9 -40 rrcurveto
          hintmask 11101000
          -3 -15 -2 -15 -15 vvcurveto
          -47 15 -39 30 -30 vhcurveto
          -34 34 47 -17 61 hhcurveto
          75 63 18 36 50 hvcurveto
          56 41 28 56 72 vvcurveto
          72 -32 59 -55 17 vhcurveto
          72 15 42 45 13 77 rrcurveto
          hintmask 11010100
          -113 2 rmoveto
          -52 -50 -41 -53 -3 vhcurveto
          -41 3 -31 28 35 vvcurveto
          23 11 20 23 17 vhcurveto
          15 20 22 8 25 hhcurveto
          49 25 -18 -35 hvcurveto
          -45 -311 rmoveto
          -6 -27 -15 -23 -25 -19 rrcurveto
          -19 -24 -27 -9 -29 hhcurveto
          hintmask 11101000
          -57 -36 37 44 33 15 30 31 27 hvcurveto
          27 23 32 15 35 7 rrcurveto
          55 -15 27 -30 -46 vvcurveto
          -9 -1 -9 -2 -10 vhcurveto
          endchar
        </CharString>
        <CharString name="eightinferior">
          -174 -11 58 259 55 hstemhm
          72 49 callsubr
          hintmask 11010000
          281 198 33 callsubr
          -53 callgsubr
          hintmask 11101000
          -84 callsubr
        </CharString>
        <CharString name="eightsuperior">
          -161 297 58 259 55 hstemhm
          74 49 callsubr
          hintmask 11010000
          283 506 33 callsubr
          -53 callgsubr
          hintmask 11101000
          -84 callsubr
        </CharString>
        <CharString name="ellipsis">
          333 -16 127 hstem
          102 128 177 128 167 128 vstem
          830 48 rmoveto
          18 callgsubr
          -295 hmoveto
          18 callgsubr
          -305 hmoveto
          18 callgsubr
          endchar
        </CharString>
        <CharString name="emacron">
          -1 callgsubr
          68 52 hstem
          35 100 vstem
          130 516 -9 callgsubr
          -16 -349 -98 callsubr
          endchar
        </CharString>
        <CharString name="emdash">
          352 204 75 hstem
          18 279 rmoveto
          -18 -75 rlineto
          882 hlineto
          18 75 rlineto
          endchar
        </CharString>
        <CharString name="endash">
          168 204 75 hstem
          16 279 rmoveto
          -16 -75 rlineto
          698 hlineto
          16 75 rlineto
          endchar
        </CharString>
        <CharString name="eng">
          -110 -202 -21 244 -21 306 91 hstem
          326 105 vstem
          417 189 rmoveto
          9 39 5 34 27 vvcurveto
          72 -36 36 -71 -35 -34 -7 -15 -32 vhcurveto
          -23 -10 -16 -10 -11 -11 6 34 rcurveline
          1 12 -11 9 -15 -16 callsubr
          -12 -87 rcurveline
          8 3 8 2 7 2 rrcurveto
          4 13 10 2 7 hhcurveto
          5 3 -1 -2 1 hvcurveto
          -29 -137 -22 -100 -16 -65 rrcurveto
          100 hlineto
          54 257 rlineto
          33 43 42 16 39 hhcurveto
          30 15 -20 -41 -19 -5 -34 -10 -48 hvcurveto
          -32 -149 -17 -76 -1 -5 -12 -36 -19 -16 -26 4 -11 1 -14 9 -17 17 -23 -44 -16 -30 -9 -17 21 -7 15 -6 7 -5 rrcurveto
          -5 13 16 -2 19 hhcurveto
          57 41 20 40 25 hvcurveto
          13 21 16 54 20 87 13 63 14 64 13 63 rrcurveto
          endchar
        </CharString>
        <CharString name="eogonek">
          -102 -201 -21 389 74 65 90 hstem
          35 100 vstem
          11 callgsubr
          -89 37 -53 74 -18 vhcurveto
          -29 -33 -16 -40 -4 -47 rrcurveto
          -55 -5 36 -44 57 -42 callsubr
          13 31 17 25 20 19 33 5 41 14 49 25 -44 78 rcurveline
          -21 -17 -26 -11 -33 -5 rrcurveto
          -1 -9 -9 -1 -8 hhcurveto
          -50 -25 22 44 6 1 7 1 7 hvcurveto
          31 74 rmoveto
          17 43 32 21 47 1 47 1 23 -22 -1 -44 rrcurveto
          endchar
        </CharString>
        <CharString name="epsilon">
          -204 39 callgsubr
          hstem
          72 92 vstem
          339 364 -96 callsubr
          66 88 rlineto
          endchar
        </CharString>
        <CharString name="epsilontonos">
          -204 39 callgsubr
          250 -20 hstem
          72 92 vstem
          265 649 rmoveto
          -49 -177 73 -20 63 167 rlineto
          -13 -255 -96 callsubr
          endchar
        </CharString>
        <CharString name="equalorig">
          239 131 90 84 89 hstem
          146 394 rmoveto
          -19 -89 rlineto
          552 hlineto
          19 89 rlineto
          -589 -173 rmoveto
          -19 -90 rlineto
          552 hlineto
          19 90 rlineto
          endchar
        </CharString>
        <CharString name="equivalence">
          -74 55 50 66 50 66 50 hstem
          cntrmask 11100000
          462 337 rmoveto
          -424 -50 424 hlineto
          -66 vmoveto
          -424 -50 424 hlineto
          -66 vmoveto
          -424 -50 424 hlineto
          endchar
        </CharString>
        <CharString name="estimated">
          285 -9 42 296 42 292 42 hstem
          13 168 482 162 vstem
          825 329 rmoveto
          -3 70 -13 59 -23 49 rrcurveto
          128 -61 -131 70 -176 hhcurveto
          -74 -68 -14 -27 -61 hvcurveto
          -129 -56 -73 -117 -143 vvcurveto
          -107 40 -88 81 -67 vhcurveto
          -63 75 93 -32 110 hhcurveto
          76 65 11 21 53 hvcurveto
          58 23 52 39 47 54 rrcurveto
          -102 hlineto
          -39 -38 -36 -26 -31 -15 rrcurveto
          -18 -37 -43 -9 -50 hhcurveto
          -93 -81 35 71 -70 hvcurveto
          190 vlineto
          42 vmoveto
          179 vlineto
          75 58 79 38 101 hhcurveto
          49 45 -9 -18 43 hvcurveto
          48 -20 36 -29 23 -37 rrcurveto
          -179 vlineto
          endchar
        </CharString>
        <CharString name="eta">
          -23 callsubr
          -93 callgsubr
          78 376 rlineto
          endchar
        </CharString>
        <CharString name="etatonos">
          -23 callsubr
          247 -20 hstem
          388 99 vstem
          302 651 rmoveto
          -49 -177 73 -20 63 167 rlineto
          87 -425 -107 callgsubr
          endchar
        </CharString>
        <CharString name="eth">
          29 callsubr
          15 vvcurveto
          95 -41 97 -82 100 vhcurveto
          122 57 -5 20 -3 11 -1 1 rlinecurve
          -136 -64 -23 26 -29 26 -33 25 rlinecurve
          -8 6 -100 -47 40 -32 33 -29 27 -27 rlinecurve
          -120 -56 4 -23 2 -11 1 1 rlinecurve
          137 64 21 -18 21 -31 22 -44 rlinecurve
          -3 -14 7 -4 hhcurveto
          -124 -97 -69 -119 -25 hvcurveto
          -3 -17 -2 -16 -16 vvcurveto
          -48 14 -39 29 -30 vhcurveto
          -32 30 41 -16 52 hhcurveto
          65 54 15 30 44 hvcurveto
          51 35 31 52 9 69 rrcurveto
          -108 -87 callgsubr
          32 -33 -49 -17 callgsubr
          hvcurveto
          endchar
        </CharString>
        <CharString name="exclam">
          -214 -10 135 501 -20 hstem
          45 138 vstem
          167 626 rmoveto
          1 -3 0 -4 -5 vvcurveto
          -23 -11 -62 -21 -101 vhcurveto
          -31 -145 -19 -83 -7 -21 rrcurveto
          118 hlineto
          18 92 17 83 16 74 23 107 17 66 12 25 rrcurveto
          -200 -636 rmoveto
          58 callgsubr
          -32 -21 -19 25 callsubr
          -18 -21 vvcurveto
          -31 23 -23 32 vhcurveto
          endchar
        </CharString>
        <CharString name="exclamdbl">
          -36 -10 135 501 -20 hstem
          2 138 100 138 vstem
          124 626 rmoveto
          1 -3 0 -4 -5 vvcurveto
          -23 -11 -62 -21 -101 vhcurveto
          -31 -145 -19 -83 -7 -21 rrcurveto
          118 hlineto
          18 92 17 83 16 74 23 107 17 66 12 25 rrcurveto
          -200 -636 rmoveto
          58 callgsubr
          -32 -21 -19 25 callsubr
          -18 -21 vvcurveto
          -31 23 -23 32 vhcurveto
          305 636 rmoveto
          1 -3 0 -4 -5 vvcurveto
          -23 -11 -62 -21 -101 vhcurveto
          -31 -145 -19 -83 -7 -21 rrcurveto
          118 hlineto
          18 92 17 83 16 74 23 107 17 66 12 25 rrcurveto
          -200 -636 rmoveto
          58 callgsubr
          -32 -21 -19 25 callsubr
          -18 -21 vvcurveto
          -31 23 -23 32 vhcurveto
          endchar
        </CharString>
        <CharString name="exclamdown">
          -214 11 -21 501 135 hstem
          162 138 vstem
          178 -10 rmoveto
          -1 3 0 4 5 vvcurveto
          23 11 62 21 101 vhcurveto
          31 145 19 83 7 21 rrcurveto
          -118 hlineto
          -18 -91 -17 -83 -16 -75 -23 -107 -17 -66 -18 callgsubr
          200 636 rmoveto
          -21 -19 -8 -17 -17 hvcurveto
          -17 -17 -9 -18 -21 vvcurveto
          -31 23 -23 32 21 19 8 17 17 vhcurveto
          61 callgsubr
          -32 vhcurveto
          endchar
        </CharString>
        <CharString name="f">
          -188 66 callgsubr
          80 255 -20 hstem
          432 605 rmoveto
          -21 7 -15 6 -7 5 rrcurveto
          -57 callsubr
          72 -1 39 -3 7 -4 21 98 rcurveline
          -7 -4 -41 -3 -74 -3 15 75 10 42 3 9 47 callgsubr
        </CharString>
        <CharString name="ff">
          68 66 callgsubr
          79 256 67 callgsubr
          hintmask 11100000
          688 6 callsubr
          -17 -30 -17 -61 -19 -92 -77 1 -54 1 -31 -1 -10 callsubr
          29 3 28 -16 27 -35 23 108 rcurveline
          -17 4 -9 3 -3 1 rrcurveto
          hintmask 11010000
          11 -29 -27 6 -25 hhcurveto
          -54 -41 -25 -51 -29 hvcurveto
          -16 -28 -17 -61 -81 callsubr
          11 18 23 84 35 150 15 63 16 73 18 84 rrcurveto
          1 95 -9 callsubr
          72 -1 39 -3 7 -4 21 98 rcurveline
          -7 -4 -41 -3 -74 -3 15 75 10 42 3 9 47 callgsubr
        </CharString>
        <CharString name="ffi">
          209 66 callgsubr
          87 167 81 1 -20 hstemhm
          hintmask 11100000
          753 378 rmoveto
          12 -12 9 -13 -3 vhcurveto
          -111 -3 -84 -3 -55 -1 14 69 9 40 4 9 rrcurveto
          37 15 28 19 42 hhcurveto
          49 55 -27 -39 31 hvcurveto
          23 108 -21 7 -15 6 -7 5 rlinecurve
          14 -30 -38 7 -46 hhcurveto
          -75 -51 77 callgsubr
          -54 1 -31 -1 -10 callsubr
          29 3 28 -16 27 -35 23 108 rcurveline
          -17 4 -9 3 -3 1 rrcurveto
          hintmask 11010000
          11 -29 -27 6 -25 hhcurveto
          -54 -41 -25 -51 -29 hvcurveto
          -16 -28 -17 -61 -81 callsubr
          11 18 23 84 35 150 15 63 16 73 18 84 rrcurveto
          1 95 -9 callsubr
          rrcurveto
          107 56 -2 -5 6 hvcurveto
          1 -1 0 -2 -3 vvcurveto
          -3 -9 -39 -19 -77 vhcurveto
          -7 -27 -8 -27 -7 -27 rrcurveto
          -11 -43 -5 -29 3 callgsubr
          4 -11 callgsubr
          18 86 rcurveline
          -37 -18 -21 -8 -6 3 -3 1 8 39 20 1 callsubr
          endchar
        </CharString>
        <CharString name="ffl">
          238 66 callgsubr
          77 258 67 callgsubr
          hintmask 11100000
          792 611 rmoveto
          12 -11 9 -15 -3 vhcurveto
          -17 -1 -30 -5 -41 -10 rrcurveto
          -7 -11 3 7 -14 hvcurveto
          14 -30 -29 7 -29 hhcurveto
          -52 -40 77 callgsubr
          -55 1 -31 -1 -10 callsubr
          29 3 28 -16 27 -35 23 108 rcurveline
          -17 4 -9 3 -3 1 rrcurveto
          hintmask 11010000
          11 -29 -27 6 -25 hhcurveto
          -54 -41 -25 -51 -29 hvcurveto
          -16 -28 -17 -61 -81 callsubr
          11 18 23 84 35 150 15 63 16 73 18 84 rrcurveto
          1 96 -9 callsubr
          rrcurveto
          166 hlineto
          -12 -59 -10 -44 -7 -29 -7 -27 -8 -27 -7 -27 rrcurveto
          -11 -43 -5 -29 3 callgsubr
          4 -11 callgsubr
          18 86 rcurveline
          -37 -18 -21 -8 -6 3 -3 2 15 77 34 152 39 172 21 95 3 19 rrcurveto
          -127 -112 rmoveto
          -5 -27 -7 -37 -9 -47 rrcurveto
          -71 -55 0 1 -39 hvcurveto
          -10 callsubr
          32 3 34 -20 35 -44 rrcurveto
          endchar
        </CharString>
        <CharString name="fi">
          -6 66 callgsubr
          87 167 81 hstem
          497 378 rmoveto
          12 -12 9 -13 -3 vhcurveto
          -111 -3 -84 -3 -55 -1 14 69 9 40 4 9 rrcurveto
          37 15 28 19 42 hhcurveto
          49 55 -27 -39 31 hvcurveto
          23 108 -21 7 -15 6 -7 5 rlinecurve
          14 -30 -38 7 -46 hhcurveto
          -75 -51 -21 callsubr
          rrcurveto
          107 56 -2 -5 6 hvcurveto
          1 -1 0 -2 -3 vvcurveto
          -3 -9 -39 -19 -77 vhcurveto
          -7 -27 -8 -27 -7 -27 rrcurveto
          -11 -43 -5 -29 3 callgsubr
          4 -11 callgsubr
          18 86 rcurveline
          -37 -18 -21 -8 -6 3 -3 1 8 39 20 1 callsubr
          endchar
        </CharString>
        <CharString name="figuredash">
          -49 213 58 hstem
          500 271 rmoveto
          -500 -58 500 hlineto
          endchar
        </CharString>
        <CharString name="five">
          -13 -16 106 -87 -21 356 99 63 123 -97 97 1 -20 hstemhm
          369 139 hintmask 10101010
          543 623 rmoveto
          -87 -5 -69 -2 -53 1 rrcurveto
          hintmask 10100110
          -99 2 -68 2 -38 3 rrcurveto
          -19 -20 -106 -41 -191 vhcurveto
          77 hlineto
          8 11 8 6 9 3 rrcurveto
          7 25 24 3 24 hhcurveto
          37 29 -7 -15 22 hvcurveto
          25 -17 13 -23 -31 vvcurveto
          -15 -3 -17 -7 -19 vhcurveto
          -22 -61 -71 -35 -119 -8 -44 -3 -44 4 -45 9 rrcurveto
          hintmask 01110010
          -25 -118 rlineto
          hintmask 10101010
          7 1 12 0 18 1 rrcurveto
          67 hlineto
          62 50 2 5 39 hvcurveto
          85 10 67 32 48 55 rrcurveto
          43 49 21 54 60 vvcurveto
          61 -23 48 -46 36 vhcurveto
          27 -35 -54 14 -71 hhcurveto
          -21 -22 -1 -3 -23 hvcurveto
          12 53 8 31 5 9 rrcurveto
          125 hlineto
          33 15 0 1 -2 hvcurveto
          13 -3 7 -9 1 -15 rrcurveto
          85 hlineto
          7 47 9 41 12 35 rrcurveto
          endchar
        </CharString>
        <CharString name="fiveeighths">
          258 0 58 -54 -21 287 60 -13 55 98 55 51 54 58 -20 hstemhm
          240 78 154 49 callsubr
          hintmask 0110111101000000
          338 630 rmoveto
          -49 -3 -39 -1 -30 1 -81 callgsubr
          -53 callsubr
          308 58 -62 callgsubr
          32 -474 33 callsubr
          hintmask 1001111101000000
          -53 callgsubr
          hintmask 1001111110100000
          -84 callsubr
        </CharString>
        <CharString name="fiveinferior">
          -174 6 60 140 55 51 54 1 -20 hstemhm
          276 78 hintmask 11101000
          374 366 19 callgsubr
          rrcurveto
          hintmask 11011000
          -81 callgsubr
          hintmask 11101000
          -14 callsubr
        </CharString>
        <CharString name="fivesuperior">
          -161 293 60 140 55 51 54 1 -20 hstemhm
          271 78 hintmask 11101000
          369 653 19 callgsubr
          rrcurveto
          hintmask 11011000
          -81 callgsubr
          hintmask 11101000
          -14 callsubr
        </CharString>
        <CharString name="fl">
          32 66 callgsubr
          79 256 -20 hstem
          535 611 rmoveto
          12 -11 9 -15 -3 vhcurveto
          -17 -1 -30 -5 -41 -10 rrcurveto
          -7 -11 3 7 -14 hvcurveto
          -57 callsubr
          rrcurveto
          166 hlineto
          -12 -59 -10 -44 -7 -29 -7 -27 -8 -27 -7 -27 rrcurveto
          -11 -43 -5 -29 3 callgsubr
          4 -11 callgsubr
          18 86 rcurveline
          -37 -18 -21 -8 -6 3 -3 2 15 77 34 152 39 172 21 95 3 19 rrcurveto
          -127 -112 rmoveto
          -5 -27 -7 -37 -9 -47 rrcurveto
          -71 -55 0 1 -39 hvcurveto
          -10 callsubr
          32 3 34 -20 35 -44 rrcurveto
          endchar
        </CharString>
        <CharString name="florin">
          -219 66 callgsubr
          80 255 -20 hstem
          401 605 rmoveto
          -21 7 -15 6 -7 5 rrcurveto
          -57 callsubr
          72 -1 39 -3 7 -4 21 98 rcurveline
          -7 -4 -41 -3 -74 -3 15 75 10 42 3 9 47 callgsubr
        </CharString>
        <CharString name="four">
          -12 21 -21 162 98 365 -20 hstem
          510 625 rmoveto
          -3 -2 -39 0 -76 2 -29 -39 -69 -78 -109 -117 -46 -49 -52 -54 -58 -61 -14 -65 rcurveline
          111 1 86 0 63 -1 -21 -75 -14 -54 -9 -33 rrcurveto
          150 hlineto
          9 79 8 54 5 28 26 -1 22 -2 18 -5 25 118 rcurveline
          -29 -3 -23 -3 -17 -1 40 191 28 120 17 50 rrcurveto
          -187 -228 rmoveto
          1 5 1 3 1 1 rrcurveto
          1 -10 -49 -21 -98 vhcurveto
          -49 -1 -33 0 -18 1 rrcurveto
          endchar
        </CharString>
        <CharString name="fourinferior">
          -174 86 -21 352 -20 hstem
          332 417 -51 callsubr
          endchar
        </CharString>
        <CharString name="foursuperior">
          -161 338 -21 352 -20 hstem
          335 669 -51 callsubr
          endchar
        </CharString>
        <CharString name="fraction">
          -382 4 -21 705 -20 hstem
          326 688 -62 callgsubr
          endchar
        </CharString>
        <CharString name="franc">
          -53 56 callgsubr
          605 -47 callsubr
        </CharString>
        <CharString name="g">
          -45 25 callgsubr
          hstem
          60 100 vstem
          423 389 rmoveto
          -19 -29 -16 23 -30 12 -43 1 rlinecurve
          -62 2 -53 -14 -43 -30 -46 -31 -30 -47 -14 -61 rrcurveto
          -5 -21 -2 -21 -19 vvcurveto
          -97 62 -64 101 3 vhcurveto
          41 1 31 10 23 17 -15 -69 rcurveline
          -52 -11 -38 -36 -52 hhcurveto
          -34 -37 16 32 -41 hvcurveto
          -68 -95 10 -3 20 -7 29 -11 rlinecurve
          23 -9 26 -7 30 -4 rrcurveto
          -1 13 12 -1 11 hhcurveto
          104 76 59 107 23 hvcurveto
          17 81 16 80 16 81 24 113 16 69 9 23 rrcurveto
          -128 -120 rmoveto
          -12 -56 -11 -50 -9 -43 rrcurveto
          -24 -26 -30 -12 -34 hhcurveto
          -53 -34 33 52 8 1 9 2 9 hvcurveto
          7 36 16 28 27 20 rrcurveto
          18 23 28 9 31 hhcurveto
          33 24 -12 -25 17 hvcurveto
          endchar
        </CharString>
        <CharString name="gamma">
          68 -177 -21 597 -20 hstem
          188 86 vstem
          528 392 rmoveto
          -19 -12 -29 -24 -39 -37 -61 -57 -56 -62 -52 -68 rrcurveto
          1 9 1 10 9 vvcurveto
          57 -21 52 -42 46 vhcurveto
          -40 43 -49 28 -59 13 -35 -103 rcurveline
          55 -17 44 -35 35 -51 rrcurveto
          17 -27 9 -39 -53 vvcurveto
          -18 -1 -16 -3 -13 vhcurveto
          -15 -25 -14 -22 -12 -19 -33 -54 -25 -46 -18 -37 119 -22 rcurveline
          54 111 61 99 69 86 69 87 86 86 104 86 rrcurveto
          endchar
        </CharString>
        <CharString name="gbreve">
          -45 25 callgsubr
          71 56 86 -20 hstem
          60 100 vstem
          423 389 rmoveto
          -19 -29 -16 23 -30 12 -43 1 rlinecurve
          -62 2 -53 -14 -43 -30 -46 -31 -30 -47 -14 -61 rrcurveto
          -5 -21 -2 -21 -19 vvcurveto
          -97 62 -64 101 3 vhcurveto
          41 1 31 10 23 17 -15 -69 rcurveline
          -52 -11 -38 -36 -52 hhcurveto
          -34 -37 16 32 -41 hvcurveto
          -68 -95 10 -3 20 -7 29 -11 rlinecurve
          23 -9 26 -7 30 -4 rrcurveto
          -1 13 12 -1 11 hhcurveto
          104 76 59 107 23 hvcurveto
          17 81 16 80 16 81 24 113 16 69 9 23 rrcurveto
          -128 -120 rmoveto
          -12 -56 -11 -50 -9 -43 rrcurveto
          -24 -26 -30 -12 -34 hhcurveto
          -53 -34 33 52 8 1 9 2 9 hvcurveto
          7 36 16 28 27 20 rrcurveto
          18 23 28 9 31 hhcurveto
          33 24 -12 -25 17 hvcurveto
          78 339 -95 callgsubr
          endchar
        </CharString>
        <CharString name="gcircumflex">
          -32 25 callgsubr
          255 -20 hstem
          60 100 vstem
          423 389 rmoveto
          -19 -29 -16 23 -30 12 -43 1 rlinecurve
          -62 2 -53 -14 -43 -30 -46 -31 -30 -47 -14 -61 rrcurveto
          -5 -21 -2 -21 -19 vvcurveto
          -97 62 -64 101 3 vhcurveto
          41 1 31 10 23 17 -15 -69 rcurveline
          -52 -11 -38 -36 -52 hhcurveto
          -34 -37 16 32 -41 hvcurveto
          -68 -95 10 -3 20 -7 29 -11 rlinecurve
          23 -9 26 -7 30 -4 rrcurveto
          -1 13 12 -1 11 hhcurveto
          104 76 59 107 23 hvcurveto
          17 81 16 80 16 81 24 113 16 69 9 23 rrcurveto
          -128 -120 rmoveto
          -12 -56 -11 -50 -9 -43 rrcurveto
          -24 -26 -30 -12 -34 hhcurveto
          -53 -34 33 52 8 1 9 2 9 hvcurveto
          7 36 16 28 27 20 rrcurveto
          18 23 28 9 31 hhcurveto
          33 24 -12 -25 17 hvcurveto
          141 257 -100 callsubr
          endchar
        </CharString>
        <CharString name="gcommaaccent">
          -45 -223 90 0 129 89 222 0 89 0 70 188 -20 hstemhm
          60 100 hintmask 01010110
          423 389 rmoveto
          -19 -29 -16 23 -30 12 -43 1 rlinecurve
          -62 2 -53 -14 -43 -30 -46 -31 -30 -47 -14 -61 rrcurveto
          -5 -21 -2 -21 -19 vvcurveto
          -97 62 -64 101 3 vhcurveto
          41 1 31 10 23 17 -15 -69 rcurveline
          -52 -11 -38 -36 -52 hhcurveto
          -34 -37 16 32 -41 hvcurveto
          -68 -95 10 -3 20 -7 29 -11 rlinecurve
          23 -9 26 -7 30 -4 rrcurveto
          hintmask 10101110
          -1 13 12 -1 11 hhcurveto
          104 76 59 107 23 hvcurveto
          17 81 16 80 16 81 24 113 16 69 9 23 rrcurveto
          -128 -120 rmoveto
          -12 -56 -11 -50 -9 -43 rrcurveto
          -24 -26 -30 -12 -34 hhcurveto
          -53 -34 33 52 8 1 9 2 9 hvcurveto
          7 36 16 28 27 20 rrcurveto
          18 23 28 9 31 hhcurveto
          33 24 -12 -25 17 hvcurveto
          -18 196 28 callsubr
        </CharString>
        <CharString name="gdotaccent">
          -45 25 callgsubr
          73 94 hstem
          60 100 vstem
          423 389 rmoveto
          -19 -29 -16 23 -30 12 -43 1 rlinecurve
          -62 2 -53 -14 -43 -30 -46 -31 -30 -47 -14 -61 rrcurveto
          -5 -21 -2 -21 -19 vvcurveto
          -97 62 -64 101 3 vhcurveto
          41 1 31 10 23 17 -15 -69 rcurveline
          -52 -11 -38 -36 -52 hhcurveto
          -34 -37 16 32 -41 hvcurveto
          -68 -95 10 -3 20 -7 29 -11 rlinecurve
          23 -9 26 -7 30 -4 rrcurveto
          -1 13 12 -1 11 hhcurveto
          104 76 59 107 23 hvcurveto
          17 81 16 80 16 81 24 113 16 69 9 23 rrcurveto
          -128 -120 rmoveto
          -12 -56 -11 -50 -9 -43 rrcurveto
          -24 -26 -30 -12 -34 hhcurveto
          -53 -34 33 52 8 1 9 2 9 hvcurveto
          7 36 16 28 27 20 rrcurveto
          18 23 28 9 31 hhcurveto
          33 24 -12 -25 17 hvcurveto
          1 248 -49 callsubr
          endchar
        </CharString>
        <CharString name="germandbls">
          -83 21 -21 562 88 hstemhm
          210 223 -70 99 hintmask 11100000
          268 -12 rmoveto
          43 -3 39 12 33 25 rrcurveto
          33 25 17 34 43 vvcurveto
          48 -21 36 -43 25 vhcurveto
          -17 9 -18 8 -17 9 -9 5 -4 9 1 14 rrcurveto
          12 20 22 40 32 vhcurveto
          44 35 28 34 11 31 rrcurveto
          hintmask 11010000
          9 26 5 25 24 vvcurveto
          69 -35 40 -69 11 vhcurveto
          1 -9 -10 1 -9 hhcurveto
          -35 -32 -9 -17 -31 hvcurveto
          -33 -19 -23 -24 -14 -30 -19 -39 -16 -55 -14 -71 -33 -1 -22 2 -9 5 -18 -88 rcurveline
          10 3 22 2 35 1 -11 -52 -10 -52 -11 -52 -13 -61 -14 -52 -13 -41 rrcurveto
          98 hlineto
          23 116 21 101 18 86 17 73 12 54 9 36 rrcurveto
          60 13 37 36 35 hhcurveto
          36 18 -16 -31 -10 -2 -12 -5 -15 hvcurveto
          -6 -18 -24 -27 -41 -37 -41 -37 -24 -35 -7 -34 rrcurveto
          hintmask 11100000
          -2 -9 -1 -9 -8 vvcurveto
          -26 11 -21 22 -17 vhcurveto
          6 -5 23 -13 39 -19 20 -10 9 -15 -3 -21 -3 -27 -23 -21 -29 3 -17 2 -11 6 -6 9 -3 7 -2 6 -3 6 rrcurveto
          -64 hlineto
          -21 -99 6 1 8 -1 11 -4 rlinecurve
          21 -8 18 -5 16 -2 11 -1 11 0 11 -1 rrcurveto
          endchar
        </CharString>
        <CharString name="grave">
          -397 43 callsubr
          65 646 -18 callsubr
        </CharString>
        <CharString name="gravecomb">
          -389 471 38 callsubr
          12 617 4 callgsubr
          endchar
        </CharString>
        <CharString name="greater">
          -41 -66 -21 732 -20 hstem
          195 645 rmoveto
          -25 -126 181 -229 -282 -232 -30 -145 415 345 10 46 rlineto
          endchar
        </CharString>
        <CharString name="greaterequal">
          -74 2 49 506 -20 hstem
          462 352 rmoveto
          -424 205 rlineto
          -56 vlineto
          359 -171 -359 -171 rlineto
          -56 vlineto
          424 205 rlineto
          -257 vmoveto
          -424 -49 424 hlineto
          endchar
        </CharString>
        <CharString name="guillemotleft">
          118 77 callsubr
          310 37 callgsubr
          -508 -208 rmoveto
          -14 -62 210 -208 23 108 -139 122 198 132 20 116 rlineto
          endchar
        </CharString>
        <CharString name="guillemotright">
          118 77 callsubr
          386 35 callgsubr
          -420 208 rmoveto
          -24 -98 142 -132 -197 -140 -23 -108 298 208 14 62 rlineto
          endchar
        </CharString>
        <CharString name="guilsinglleft">
          -209 77 callsubr
          38 37 callgsubr
          endchar
        </CharString>
        <CharString name="guilsinglright">
          -209 77 callsubr
          106 35 callgsubr
          endchar
        </CharString>
        <CharString name="h">
          -92 21 -21 302 95 228 -20 hstem
          334 109 vstem
          432 196 -23 callgsubr
        </CharString>
        <CharString name="hbar">
          -92 21 -21 302 95 56 75 -75 172 hstemhm
          336 109 hintmask 11101000
          434 196 rmoveto
          7 32 4 28 24 vvcurveto
          78 -39 39 -77 -57 -44 -19 -38 -32 vhcurveto
          24 113 rlineto
          136 hlineto
          13 75 rlineto
          -133 hlineto
          hintmask 11011000
          7 30 9 32 10 35 rrcurveto
          -109 hlineto
          hintmask 11101000
          -3 -27 -5 -33 -7 -37 rrcurveto
          -74 hlineto
          -14 -75 rlineto
          73 hlineto
          -25 -113 -35 -162 -25 -113 -16 -65 rlinecurve
          104 hlineto
          46 210 rlineto
          61 25 36 31 46 hhcurveto
          38 19 -19 -37 -13 -3 -25 -7 -36 hvcurveto
          -36 -172 rlineto
          105 hlineto
          13 67 13 65 13 64 rrcurveto
          endchar
        </CharString>
        <CharString name="hcircumflex">
          -92 21 -21 302 95 450 -20 hstem
          334 109 vstem
          381 723 -100 callsubr
          108 -476 -23 callgsubr
        </CharString>
        <CharString name="hookabovecomb">
          -371 694 -21 156 47 hstem
          111 55 vstem
          119 -73 callsubr
          endchar
        </CharString>
        <CharString name="hungarumlaut">
          -242 474 38 callsubr
          199 75 callsubr
          -227 30 rmoveto
          -49 -177 73 -20 63 167 rlineto
          endchar
        </CharString>
        <CharString name="hyphen">
          -236 173 84 hstem
          52 257 rmoveto
          -18 -84 rlineto
          228 hlineto
          18 84 rlineto
          endchar
        </CharString>
        <CharString name="i">
          -289 396 58 0 118 hstemhm
          133 122 hintmask 01100000
          181 454 62 callsubr
          36 callgsubr
          hintmask 10100000
          -89 callgsubr
          endchar
        </CharString>
        <CharString name="iacute">
          -289 646 -20 hstem
          234 378 rmoveto
          -89 callgsubr
          -27 268 -92 callgsubr
          -80 30 -92 callgsubr
          endchar
        </CharString>
        <CharString name="ibreve">
          -309 396 70 0 56 86 65 callsubr
          214 378 rmoveto
          -89 callgsubr
          64 230 -34 callgsubr
          rrcurveto
          hintmask 01100000
          -23 -19 -23 -10 -25 1 -30 1 -24 9 -17 19 -11 17 -12 17 -11 17 -45 -33 rcurveline
          19 -35 17 -25 17 -14 22 -19 28 -9 35 -1 45 -1 35 10 26 19 7 5 24 25 41 45 rrcurveto
          endchar
        </CharString>
        <CharString name="icircumflex">
          -309 642 -20 hstem
          361 518 -100 callsubr
          -75 -90 rmoveto
          1 13 -11 8 -15 -3 -54 -2 -44 -6 -35 -9 -13 -87 rcurveline
          1 6 2 5 13 hvcurveto
          3 11 7 2 5 hhcurveto
          5 2 -3 -5 -3 -9 -39 -19 -77 hvcurveto
          -7 -27 -8 -26 -7 -27 rrcurveto
          -11 -43 -5 -30 3 callgsubr
          3 -1 vhcurveto
          17 -1 28 3 -28 callgsubr
          9 -82 callsubr
          endchar
        </CharString>
        <CharString name="idieresis">
          -309 397 72 0 31 callgsubr
          203 106 hintmask 01010000
          244 469 -79 callsubr
          hintmask 10110000
          -76 callsubr
          103 -145 rmoveto
          1 13 -11 8 -15 -3 -54 -2 -44 -6 -35 -9 -13 -87 rcurveline
          1 6 2 5 13 hvcurveto
          3 11 7 2 5 hhcurveto
          5 2 -3 -5 -3 -9 -39 -19 -77 hvcurveto
          -7 -27 -8 -26 -7 -27 rrcurveto
          -11 -43 -5 -30 3 callgsubr
          3 -1 vhcurveto
          17 -1 28 3 -28 callgsubr
          9 -82 callsubr
          endchar
        </CharString>
        <CharString name="igrave">
          -309 639 -20 hstem
          128 639 -69 callgsubr
          19 -93 rmoveto
          1 13 -11 8 -15 -3 -54 -2 -44 -6 -35 -9 -13 -87 rcurveline
          1 6 2 5 13 hvcurveto
          3 11 7 2 5 hhcurveto
          5 2 -3 -5 -3 -9 -39 -19 -77 hvcurveto
          -7 -27 -8 -26 -7 -27 rrcurveto
          -11 -43 -5 -30 3 callgsubr
          3 -1 vhcurveto
          17 -1 28 4 -28 callgsubr
          8 -82 callsubr
          endchar
        </CharString>
        <CharString name="ij">
          -95 -202 -21 677 118 hstem
          113 122 101 111 vstem
          161 454 62 callsubr
          36 callgsubr
          -89 callgsubr
          166 82 rmoveto
          32 35 31 32 24 -20 20 -24 -33 -34 -33 -32 -24 19 -18 25 hvcurveto
          -62 -71 -46 callgsubr
          endchar
        </CharString>
        <CharString name="imacron">
          -309 396 69 0 52 hstemhm
          hintmask 10000000
          214 378 rmoveto
          -89 callgsubr
          hintmask 01000000
          -219 139 -9 callgsubr
          endchar
        </CharString>
        <CharString name="infinity">
          129 42 53 -33 -21 227 52 hstemhm
          30 51 519 50 hintmask 10111000
          650 182 rmoveto
          79 -56 59 -79 -33 -32 -12 -23 -31 vhcurveto
          -11 -8 -26 -24 -42 -40 -41 39 -26 24 -12 8 rrcurveto
          24 -32 -32 12 -32 hhcurveto
          -79 -56 -59 -79 -84 51 -56 83 37 32 11 21 29 hvcurveto
          9 7 26 24 43 42 33 -33 33 -38 21 -12 rrcurveto
          hintmask 01111000
          -15 27 28 -8 30 hhcurveto
          77 61 53 88 hvcurveto
          -50 -3 rmoveto
          hintmask 10111000
          -55 -39 -29 -49 -23 -23 6 12 -21 vhcurveto
          -32 27 -24 23 -17 19 43 37 22 18 1 1 rrcurveto
          20 27 26 10 24 hhcurveto
          51 34 -37 -52 hvcurveto
          -292 3 rmoveto
          -35 -35 -21 -19 -6 -5 rrcurveto
          -19 -25 -26 -9 -27 hhcurveto
          -51 -36 33 51 49 33 39 49 26 26 -9 -19 27 hvcurveto
          endchar
        </CharString>
        <CharString name="integral">
          13 callgsubr
          -10 -17 -12 -40 -15 -61 -8 -34 -11 -50 -14 -67 -45 -216 -29 -129 -15 -43 -11 -34 -18 -15 -23 3 -11 1 -14 9 -17 17 -23 -45 -16 -31 -9 -17 21 -7 15 -6 7 -5 rrcurveto
          -5 13 15 -2 19 hhcurveto
          54 39 20 40 24 hvcurveto
          12 19 20 68 28 117 25 101 19 90 14 77 21 113 15 68 9 25 47 callgsubr
        </CharString>
        <CharString name="intersection">
          -74 48 -21 449 45 hstem
          38 51 322 51 vstem
          462 335 rmoveto
          56 -22 46 -45 35 vhcurveto
          33 -41 -49 16 -57 hhcurveto
          -57 -48 -17 -33 -40 hvcurveto
          -43 -35 -22 -46 -55 vvcurveto
          -308 51 308 vlineto
          42 16 34 33 27 vhcurveto
          25 31 36 13 43 hhcurveto
          43 37 -12 -25 32 hvcurveto
          34 -27 17 -35 -42 vvcurveto
          -308 51 vlineto
          endchar
        </CharString>
        <CharString name="iogonek">
          -309 -201 -21 676 118 hstem
          113 122 vstem
          161 454 62 callsubr
          36 callgsubr
          1 12 -13 9 -13 -16 callsubr
          -8 -58 3 -27 13 4 rrcurveto
          4 10 7 2 5 hhcurveto
          5 2 -3 -5 -3 -9 -40 -19 -76 hvcurveto
          -7 -29 -8 -29 -8 -29 -11 -46 -5 -30 2 -13 -30 -33 -17 -42 58 callsubr
          -11 63 rcurveline
          -15 -23 -18 -8 -15 hhcurveto
          -26 -1 -13 12 25 vvcurveto
          11 3 12 5 13 vhcurveto
          18 41 21 29 25 18 33 8 22 8 10 8 -31 callsubr
          1 8 39 19 1 callsubr
          endchar
        </CharString>
        <CharString name="iota">
          -310 221 -74 callgsubr
          endchar
        </CharString>
        <CharString name="iotadieresis">
          -310 390 76 0 31 callgsubr
          207 106 hintmask 01010000
          248 466 -79 callsubr
          hintmask 10110000
          -76 callsubr
          100 -149 rmoveto
          1 13 -11 8 -15 -3 -54 -2 -44 -6 -35 -9 -13 -87 rcurveline
          1 6 2 5 13 hvcurveto
          3 11 7 2 5 hhcurveto
          5 2 -3 -5 -3 -9 -39 -19 -77 hvcurveto
          -7 -27 -8 -26 -7 -27 rrcurveto
          -11 -43 -5 -30 3 callgsubr
          3 -1 vhcurveto
          17 -1 28 4 -28 callgsubr
          8 -82 callsubr
          endchar
        </CharString>
        <CharString name="iotadieresistonos">
          -312 465 106 65 -20 hstem
          217 106 vstem
          258 465 rmoveto
          32 33 31 32 24 -18 19 -25 -31 -32 -32 -32 -23 17 -19 24 hvcurveto
          -114 171 54 callgsubr
          -140 -94 -71 callgsubr
          138 -148 rmoveto
          1 13 -11 8 -15 -3 -54 -2 -44 -6 -35 -9 -13 -87 rcurveline
          1 6 2 5 13 hvcurveto
          3 11 7 2 5 hhcurveto
          5 2 -3 -5 -3 -9 -39 -19 -77 hvcurveto
          -7 -27 -8 -26 -7 -27 rrcurveto
          -11 -43 -5 -30 3 callgsubr
          3 -1 vhcurveto
          17 -1 28 4 -28 callgsubr
          8 -82 callsubr
          endchar
        </CharString>
        <CharString name="iotatonos">
          -310 648 -20 hstem
          179 648 rmoveto
          -49 -177 73 -20 63 167 rlineto
          -45 -246 rmoveto
          1 13 -11 8 -15 -3 -54 -2 -44 -6 -35 -9 -13 -87 rcurveline
          1 6 2 5 13 hvcurveto
          3 11 7 2 5 hhcurveto
          5 2 -3 -5 -3 -9 -39 -19 -77 hvcurveto
          -7 -27 -8 -26 -7 -27 rrcurveto
          -11 -43 -5 -30 3 callgsubr
          3 -1 vhcurveto
          17 -1 28 4 -28 callgsubr
          8 -82 callsubr
          endchar
        </CharString>
        <CharString name="itilde">
          -309 396 77 0 55 callgsubr
          hintmask 10000000
          214 378 rmoveto
          -89 callgsubr
          135 165 rmoveto
          -19 14 -18 14 -19 14 rrcurveto
          hintmask 01000000
          -31 -15 -19 -15 -24 hhcurveto
          -20 -22 8 16 -23 hvcurveto
          hintmask 00100000
          -77 callgsubr
          endchar
        </CharString>
        <CharString name="j">
          -298 -202 -21 683 107 hstem
          160 111 vstem
          204 460 rmoveto
          32 35 31 32 24 -20 20 -24 -33 -34 -33 -32 -24 19 -18 25 hvcurveto
          -62 -71 -46 callgsubr
          endchar
        </CharString>
        <CharString name="jcircumflex">
          -349 -202 -21 868 -20 hstem
          91 389 -46 callgsubr
          131 132 rmoveto
          -50 42 -51 41 -51 41 -204 -124 rcurveline
          36 -61 71 43 54 31 37 21 rlinecurve
          42 -36 34 -28 25 -21 rrcurveto
          endchar
        </CharString>
        <CharString name="k">
          -112 11 -21 635 -20 hstem
          28 108 vstem
          398 408 -27 callsubr
        </CharString>
        <CharString name="kappa">
          -99 8 -21 25 -21 410 65 callsubr
          394 401 rmoveto
          -96 -76 -70 -54 -44 -32 17 63 11 44 5 25 3 12 -17 9 -15 -3 -47 -1 -42 -6 -37 -10 -15 -83 rcurveline
          1 1 7 2 11 3 rrcurveto
          4 11 8 2 5 hhcurveto
          5 2 -2 -5 -1 -10 -40 -20 -79 hvcurveto
          -7 -26 -7 -26 -7 -27 rrcurveto
          -11 -41 -6 -29 -17 vvcurveto
          hintmask 01100000
          -16 3 -1 16 15 20 2 5 24 vhcurveto
          24 4 16 4 8 5 -12 14 -5 17 2 21 5 21 4 18 4 14 66 50 rcurveline
          hintmask 10100000
          127 -179 82 68 -61 80 -43 55 -23 30 rlinecurve
          161 122 rlineto
          endchar
        </CharString>
        <CharString name="kcommaaccent">
          -112 -277 -21 923 -20 hstem
          28 108 vstem
          170 -110 -72 callgsubr
          122 518 -27 callsubr
        </CharString>
        <CharString name="koroniscomb">
          -344 473 173 hstem
          188 605 rmoveto
          -35 callgsubr
        </CharString>
        <CharString name="l">
          -276 277 611 rmoveto
          1 12 -13 9 -13 -16 callsubr
          -8 -58 2 -27 13 4 rrcurveto
          4 11 7 2 5 hhcurveto
          3 2 -1 -1 1 hvcurveto
          3 -3 -9 -49 -19 -97 -18 -91 -15 -70 -12 -48 -21 -81 rcurveline
          -44 callsubr
          15 77 34 152 39 172 20 95 3 19 rrcurveto
          endchar
        </CharString>
        <CharString name="lacute">
          -276 861 -20 hstem
          274 861 -92 callgsubr
          -77 -220 rmoveto
          1 12 -13 9 -13 -16 callsubr
          -8 -58 2 -27 13 4 rrcurveto
          4 11 7 2 5 hhcurveto
          3 2 -1 -1 1 hvcurveto
          3 -3 -9 -49 -19 -97 -18 -91 -15 -70 -12 -48 -21 -81 rcurveline
          -44 callsubr
          15 77 34 152 39 172 20 95 3 19 rrcurveto
          endchar
        </CharString>
        <CharString name="lambda">
          -90 21 -21 610 -20 hstem
          290 91 vstem
          441 43 rmoveto
          -25 -1 -15 8 -5 16 -6 20 -5 45 -4 71 -4 92 -2 47 -1 2 -7 69 -6 46 -5 22 -15 67 -24 39 -32 12 rrcurveto
          8 -22 -23 4 -24 hhcurveto
          -45 -36 -10 -21 -28 hvcurveto
          15 -80 10 5 10 6 10 5 rlinecurve
          19 8 18 3 16 -2 24 -3 16 -10 9 -16 3 -7 4 -16 4 -27 -183 -293 -93 -149 -1 -3 rrcurveto
          125 hlineto
          57 102 57 102 57 101 2 -23 2 -58 2 -95 1 -59 7 -40 12 -21 5 -9 12 -6 18 -3 16 -3 12 1 8 3 12 5 13 8 13 11 14 11 7 9 1 7 rrcurveto
          endchar
        </CharString>
        <CharString name="lcaron">
          -153 637 -20 hstem
          244 611 rmoveto
          1 12 -13 9 -13 -16 callsubr
          -8 -58 2 -27 13 4 rrcurveto
          4 11 7 2 5 hhcurveto
          3 2 -1 -1 1 hvcurveto
          3 -3 -9 -49 -19 -97 -18 -91 -15 -70 -12 -48 -21 -81 rcurveline
          -44 callsubr
          15 77 34 152 39 172 20 95 3 19 rrcurveto
          152 26 -92 callgsubr
          endchar
        </CharString>
        <CharString name="lcommaaccent">
          -276 -280 -21 hstem
          59 -113 -72 callgsubr
          112 724 rmoveto
          1 12 -13 9 -13 -16 callsubr
          -8 -58 2 -27 13 4 rrcurveto
          4 11 7 2 5 hhcurveto
          3 2 -1 -1 1 hvcurveto
          3 -3 -9 -49 -19 -97 -18 -91 -15 -70 -12 -48 -21 -81 rcurveline
          -44 callsubr
          15 77 34 152 39 172 20 95 3 19 rrcurveto
          endchar
        </CharString>
        <CharString name="ldot">
          -200 258 94 hstem
          244 611 rmoveto
          1 12 -13 9 -13 -16 callsubr
          -8 -58 2 -27 13 4 rrcurveto
          4 11 7 2 5 hhcurveto
          3 2 -1 -1 1 hvcurveto
          3 -3 -9 -49 -19 -97 -18 -91 -15 -70 -12 -48 -21 -81 rcurveline
          -44 callsubr
          15 77 34 152 39 172 20 95 3 19 rrcurveto
          100 -304 -49 callsubr
          endchar
        </CharString>
        <CharString name="less">
          -56 -46 -21 692 -20 hstem
          77 304 rmoveto
          -9 -46 271 -325 22 112 -183 237 278 214 31 129 rlineto
          endchar
        </CharString>
        <CharString name="lessequal">
          -74 1 49 505 -20 hstem
          462 157 rmoveto
          -359 172 359 171 rlineto
          55 vlineto
          -424 -204 rlineto
          -44 vlineto
          424 -205 rlineto
          -52 vmoveto
          -424 -49 424 hlineto
          endchar
        </CharString>
        <CharString name="logicaland">
          -49 21 -21 549 -20 hstem
          278 549 rmoveto
          -56 hlineto
          -207 -549 rlineto
          60 hlineto
          175 474 175 -474 rlineto
          60 hlineto
          endchar
        </CharString>
        <CharString name="logicalnot">
          -49 71 -21 206 49 hstem
          408 59 vstem
          467 305 rmoveto
          -434 -49 375 -206 59 hlineto
          endchar
        </CharString>
        <CharString name="logicalor">
          -49 21 -21 549 -20 hstem
          425 549 rmoveto
          -175 -474 -175 474 rlineto
          -60 hlineto
          207 -549 rlineto
          56 hlineto
          207 549 rlineto
          endchar
        </CharString>
        <CharString name="longs">
          13 callgsubr
          -17 -29 -17 -62 -81 callsubr
          12 19 20 68 28 117 25 101 19 90 14 77 21 113 15 68 9 25 47 callgsubr
        </CharString>
        <CharString name="lozenge">
          -98 23 -21 578 -20 hstem
          242 580 rmoveto
          -48 hlineto
          -156 -285 156 -293 rlineto
          48 hlineto
          155 293 rlineto
          -179 -249 rmoveto
          -132 249 132 241 132 -241 rlineto
          endchar
        </CharString>
        <CharString name="lslash">
          -299 281 406 rmoveto
          -86 -22 29 130 17 76 3 21 rlinecurve
          1 12 -13 9 -13 -16 callsubr
          -8 -58 2 -27 13 4 rrcurveto
          4 11 7 2 5 hhcurveto
          3 2 -1 -1 1 hvcurveto
          3 -3 -10 -60 -24 -116 -99 -26 rcurveline
          -76 vlineto
          82 21 -9 -43 -7 -32 -6 -23 rlinecurve
          -21 -81 rlineto
          -44 callsubr
          13 69 30 136 118 30 rcurveline
          endchar
        </CharString>
        <CharString name="m">
          206 21 -21 307 90 hstem
          611 105 vstem
          750 117 rmoveto
          -39 -19 -22 -8 -7 3 -1 1 6 32 15 63 rrcurveto
          9 41 5 34 28 vvcurveto
          70 -35 35 -69 -35 -36 -8 -17 -36 vhcurveto
          -27 -12 -19 -12 -11 -11 rrcurveto
          40 -11 -32 20 -54 hhcurveto
          -49 -45 -18 -35 -41 hvcurveto
          6 34 1 12 -11 9 -15 -3 rlinecurve
          -27 callgsubr
          -12 -87 rcurveline
          8 3 8 2 7 2 rrcurveto
          4 13 10 2 7 hhcurveto
          5 3 -1 -2 1 hvcurveto
          -29 -137 -22 -100 -16 -65 rrcurveto
          100 hlineto
          54 257 10 9 10 8 9 9 rlinecurve
          16 21 24 8 27 hhcurveto
          38 19 -16 -33 -11 -4 -23 -7 -37 hvcurveto
          -18 -85 -14 -62 -9 -40 rrcurveto
          97 hlineto
          39 189 6 31 5 23 3 16 rlinecurve
          21 16 12 9 3 1 rrcurveto
          14 24 25 7 27 hhcurveto
          29 14 -18 -37 -16 -6 -36 -12 -55 hvcurveto
          -5 -22 -6 -22 -6 -22 rrcurveto
          -9 -33 -4 -24 -13 17 callsubr
          5 -11 callgsubr
          18 86 rcurveline
          endchar
        </CharString>
        <CharString name="middot">
          -299 241 117 hstem
          66 117 vstem
          183 299 rmoveto
          33 -26 26 -32 -33 -26 -26 -33 -32 27 -26 32 32 26 26 32 vhcurveto
          endchar
        </CharString>
        <CharString name="minus">
          -51 189 69 hstem
          498 258 rmoveto
          -498 -69 498 hlineto
          endchar
        </CharString>
</ttFont>
